<svg xmlns="http://www.w3.org/2000/svg" xmlns:xlink="http://www.w3.org/1999/xlink" version="1.1" data-diagram-type="SEQUENCE" style="width:2261px;height:1549px;background:#FFFFFF;" width="2261px" height="1549px" viewBox="0 0 2261 1549" zoomAndPan="magnify" preserveAspectRatio="none" contentStyleType="text/css"><?plantuml 1.2026.7?><defs/><g font-family="sans-serif" lengthAdjust="spacing"><rect x="241.402" y="745.148" width="2000.182" height="692.789" fill="none" style="stroke:#000;stroke-width:1.5;"/><g><title>Compliance Admin</title><rect x="75.361" y="86.297" width="8" height="1375.641" fill="#000" fill-opacity="0"/><line x1="78.861" y1="86.297" x2="78.861" y2="1461.938" style="stroke:#181818;stroke-width:0.5;stroke-dasharray:5,5;"/></g><g><title>Order Management System</title><rect x="253.902" y="86.297" width="8" height="1375.641" fill="#000" fill-opacity="0"/><line x1="257.402" y1="86.297" x2="257.402" y2="1461.938" style="stroke:#181818;stroke-width:0.5;stroke-dasharray:5,5;"/></g><g><title>Risk Officer</title><rect x="406.734" y="86.297" width="8" height="1375.641" fill="#000" fill-opacity="0"/><line x1="410.234" y1="86.297" x2="410.234" y2="1461.938" style="stroke:#181818;stroke-width:0.5;stroke-dasharray:5,5;"/></g><g><title>Clearing System</title><rect x="520.344" y="86.297" width="8" height="1375.641" fill="#000" fill-opacity="0"/><line x1="523.844" y1="86.297" x2="523.844" y2="1461.938" style="stroke:#181818;stroke-width:0.5;stroke-dasharray:5,5;"/></g><g><title>RBAC Admin API</title><rect x="655.103" y="86.297" width="8" height="1375.641" fill="#000" fill-opacity="0"/><line x1="658.603" y1="86.297" x2="658.603" y2="1461.938" style="stroke:#181818;stroke-width:0.5;stroke-dasharray:5,5;"/></g><g><title>Publish API</title><rect x="999.637" y="86.297" width="8" height="1375.641" fill="#000" fill-opacity="0"/><line x1="1003.137" y1="86.297" x2="1003.137" y2="1461.938" style="stroke:#181818;stroke-width:0.5;stroke-dasharray:5,5;"/></g><g><title>EventAppender</title><rect x="1415.708" y="86.297" width="8" height="1375.641" fill="#000" fill-opacity="0"/><line x1="1419.208" y1="86.297" x2="1419.208" y2="1461.938" style="stroke:#181818;stroke-width:0.5;stroke-dasharray:5,5;"/></g><g><title>Event Log</title><rect x="1990.387" y="86.297" width="8" height="1375.641" fill="#000" fill-opacity="0"/><line x1="1993.887" y1="86.297" x2="1993.887" y2="1461.938" style="stroke:#181818;stroke-width:0.5;stroke-dasharray:5,5;"/></g><text x="10" y="82.995" fill="#000" font-size="14" textLength="131.722">Compliance Admin</text><ellipse cx="78.861" cy="18.5" rx="8" ry="8" fill="#E2E2F0" style="stroke:#181818;stroke-width:0.5;"/><path d="M78.861,26.5 L78.861,53.5 M65.861,34.5 L91.861,34.5 M78.861,53.5 L65.861,68.5 M78.861,53.5 L91.861,68.5" style="stroke:#181818;stroke-width:0.5;" fill="none"/><text x="157.722" y="82.995" fill="#000" font-size="14" textLength="193.361">Order Management System</text><ellipse cx="257.402" cy="18.5" rx="8" ry="8" fill="#E2E2F0" style="stroke:#181818;stroke-width:0.5;"/><path d="M257.402,26.5 L257.402,53.5 M244.402,34.5 L270.402,34.5 M257.402,53.5 L244.402,68.5 M257.402,53.5 L270.402,68.5" style="stroke:#181818;stroke-width:0.5;" fill="none"/><text x="367.083" y="82.995" fill="#000" font-size="14" textLength="80.302">Risk Officer</text><ellipse cx="410.234" cy="18.5" rx="8" ry="8" fill="#E2E2F0" style="stroke:#181818;stroke-width:0.5;"/><path d="M410.234,26.5 L410.234,53.5 M397.234,34.5 L423.234,34.5 M410.234,53.5 L397.234,68.5 M410.234,53.5 L423.234,68.5" style="stroke:#181818;stroke-width:0.5;" fill="none"/><text x="463.385" y="82.995" fill="#000" font-size="14" textLength="114.919">Clearing System</text><ellipse cx="523.844" cy="18.5" rx="8" ry="8" fill="#E2E2F0" style="stroke:#181818;stroke-width:0.5;"/><path d="M523.844,26.5 L523.844,53.5 M510.844,34.5 L536.844,34.5 M523.844,53.5 L510.844,68.5 M523.844,53.5 L536.844,68.5" style="stroke:#181818;stroke-width:0.5;" fill="none"/><rect x="594.304" y="38.703" width="128.598" height="46.594" fill="#E2E2F0" style="stroke:#181818;stroke-width:0.5;" rx="2.5" ry="2.5"/><text x="601.304" y="58.698" fill="#000" font-size="14" textLength="114.598">RBAC Admin API</text><text x="606.492" y="74.995" fill="#000" font-size="14" textLength="104.221">(ADR-046/067)</text><rect x="935.926" y="38.703" width="134.422" height="46.594" fill="#E2E2F0" style="stroke:#181818;stroke-width:0.5;" rx="2.5" ry="2.5"/><text x="964.764" y="58.698" fill="#000" font-size="14" textLength="76.747">Publish API</text><text x="942.926" y="74.995" fill="#000" font-size="14" textLength="120.422">(Inbox, ADR-023)</text><rect x="1333.734" y="38.703" width="170.946" height="46.594" fill="#E2E2F0" style="stroke:#181818;stroke-width:0.5;" rx="2.5" ry="2.5"/><text x="1365.108" y="58.698" fill="#000" font-size="14" textLength="108.199">EventAppender</text><text x="1340.734" y="74.995" fill="#000" font-size="14" textLength="156.946">(ChainHash, ADR-019)</text><text x="1955.982" y="82.995" fill="#000" font-size="14" textLength="69.809">Event Log</text><path d="M1975.887,34 C1975.887,24 1993.887,24 1993.887,24 C1993.887,24 2011.887,24 2011.887,34 L2011.887,60 C2011.887,70 1993.887,70 1993.887,70 C1993.887,70 1975.887,70 1975.887,60 L1975.887,34" style="stroke:#181818;stroke-width:0.5;" fill="#E2E2F0"/><path d="M1975.887,34 C1975.887,44 1993.887,44 1993.887,44 C1993.887,44 2011.887,44 2011.887,34" style="stroke:#181818;stroke-width:0.5;" fill="none"/><text x="10" y="1474.933" fill="#000" font-size="14" textLength="131.722">Compliance Admin</text><ellipse cx="78.861" cy="1486.734" rx="8" ry="8" fill="#E2E2F0" style="stroke:#181818;stroke-width:0.5;"/><path d="M78.861,1494.734 L78.861,1521.734 M65.861,1502.734 L91.861,1502.734 M78.861,1521.734 L65.861,1536.734 M78.861,1521.734 L91.861,1536.734" style="stroke:#181818;stroke-width:0.5;" fill="none"/><text x="157.722" y="1474.933" fill="#000" font-size="14" textLength="193.361">Order Management System</text><ellipse cx="257.402" cy="1486.734" rx="8" ry="8" fill="#E2E2F0" style="stroke:#181818;stroke-width:0.5;"/><path d="M257.402,1494.734 L257.402,1521.734 M244.402,1502.734 L270.402,1502.734 M257.402,1521.734 L244.402,1536.734 M257.402,1521.734 L270.402,1536.734" style="stroke:#181818;stroke-width:0.5;" fill="none"/><text x="367.083" y="1474.933" fill="#000" font-size="14" textLength="80.302">Risk Officer</text><ellipse cx="410.234" cy="1486.734" rx="8" ry="8" fill="#E2E2F0" style="stroke:#181818;stroke-width:0.5;"/><path d="M410.234,1494.734 L410.234,1521.734 M397.234,1502.734 L423.234,1502.734 M410.234,1521.734 L397.234,1536.734 M410.234,1521.734 L423.234,1536.734" style="stroke:#181818;stroke-width:0.5;" fill="none"/><text x="463.385" y="1474.933" fill="#000" font-size="14" textLength="114.919">Clearing System</text><ellipse cx="523.844" cy="1486.734" rx="8" ry="8" fill="#E2E2F0" style="stroke:#181818;stroke-width:0.5;"/><path d="M523.844,1494.734 L523.844,1521.734 M510.844,1502.734 L536.844,1502.734 M523.844,1521.734 L510.844,1536.734 M523.844,1521.734 L536.844,1536.734" style="stroke:#181818;stroke-width:0.5;" fill="none"/><rect x="594.304" y="1461.938" width="128.598" height="46.594" fill="#E2E2F0" style="stroke:#181818;stroke-width:0.5;" rx="2.5" ry="2.5"/><text x="601.304" y="1481.933" fill="#000" font-size="14" textLength="114.598">RBAC Admin API</text><text x="606.492" y="1498.229" fill="#000" font-size="14" textLength="104.221">(ADR-046/067)</text><rect x="935.926" y="1461.938" width="134.422" height="46.594" fill="#E2E2F0" style="stroke:#181818;stroke-width:0.5;" rx="2.5" ry="2.5"/><text x="964.764" y="1481.933" fill="#000" font-size="14" textLength="76.747">Publish API</text><text x="942.926" y="1498.229" fill="#000" font-size="14" textLength="120.422">(Inbox, ADR-023)</text><rect x="1333.734" y="1461.938" width="170.946" height="46.594" fill="#E2E2F0" style="stroke:#181818;stroke-width:0.5;" rx="2.5" ry="2.5"/><text x="1365.108" y="1481.933" fill="#000" font-size="14" textLength="108.199">EventAppender</text><text x="1340.734" y="1498.229" fill="#000" font-size="14" textLength="156.946">(ChainHash, ADR-019)</text><text x="1955.982" y="1474.933" fill="#000" font-size="14" textLength="69.809">Event Log</text><path d="M1975.887,1488.234 C1975.887,1478.234 1993.887,1478.234 1993.887,1478.234 C1993.887,1478.234 2011.887,1478.234 2011.887,1488.234 L2011.887,1514.234 C2011.887,1524.234 1993.887,1524.234 1993.887,1524.234 C1993.887,1524.234 1975.887,1524.234 1975.887,1514.234 L1975.887,1488.234" style="stroke:#181818;stroke-width:0.5;" fill="#E2E2F0"/><path d="M1975.887,1488.234 C1975.887,1498.234 1993.887,1498.234 1993.887,1498.234 C1993.887,1498.234 2011.887,1498.234 2011.887,1488.234" style="stroke:#181818;stroke-width:0.5;" fill="none"/><polygon points="646.603,126.563,656.603,130.563,646.603,134.563,650.603,130.563" fill="#181818" style="stroke:#181818;stroke-width:1;stroke-linejoin:miter;stroke-miterlimit:10;"/><line x1="78.861" y1="130.563" x2="652.603" y2="130.563" style="stroke:#181818;stroke-width:1;"/><text x="85.861" y="117.93" fill="#000" font-size="13" font-weight="700">1</text><text x="98.906" y="110.364" fill="#000" font-size="13" textLength="283.721">POST /admin/roles/compliance-officer/grant</text><text x="98.906" y="125.497" fill="#000" font-size="13" textLength="212.278">{ granteeActorId: "reviewer-1" }</text><polygon points="1407.208,170.828,1417.208,174.828,1407.208,178.828,1411.208,174.828" fill="#181818" style="stroke:#181818;stroke-width:1;stroke-linejoin:miter;stroke-miterlimit:10;"/><line x1="658.603" y1="174.828" x2="1413.208" y2="174.828" style="stroke:#181818;stroke-width:1;"/><text x="665.603" y="162.196" fill="#000" font-size="13" font-weight="700">2</text><text x="678.648" y="154.629" fill="#000" font-size="13" textLength="300.885">append(RoleGranted -- reserved control-plane</text><text x="678.648" y="169.762" fill="#000" font-size="13" textLength="265.795">event type, ADR-067) ActorId: "admin-1"</text><polygon points="1981.887,230.227,1991.887,234.227,1981.887,238.227,1985.887,234.227" fill="#181818" style="stroke:#181818;stroke-width:1;stroke-linejoin:miter;stroke-miterlimit:10;"/><line x1="1419.208" y1="234.227" x2="1987.887" y2="234.227" style="stroke:#181818;stroke-width:1;"/><text x="1426.208" y="214.028" fill="#000" font-size="13" font-weight="700">3</text><text x="1439.253" y="198.895" fill="#000" font-size="13" textLength="131.27">INSERT StoredEvent</text><text x="1439.253" y="214.028" fill="#000" font-size="13" textLength="338.305">(SequenceNumber: 118, EventType: "RoleGranted",</text><text x="1443.385" y="229.161" fill="#000" font-size="13" textLength="372.119">ChainHash: SHA-256(chain[117] || hash(payload) || 118))</text><polygon points="669.603,259.359,659.603,263.359,669.603,267.359,665.603,263.359" fill="#181818" style="stroke:#181818;stroke-width:1;stroke-linejoin:miter;stroke-miterlimit:10;"/><line x1="663.603" y1="263.359" x2="1418.208" y2="263.359" style="stroke:#181818;stroke-width:1;stroke-dasharray:2,2;"/><text x="675.603" y="258.293" fill="#000" font-size="13" font-weight="700">4</text><text x="688.648" y="258.293" fill="#000" font-size="13" textLength="15.482">ok</text><polygon points="89.861,288.492,79.861,292.492,89.861,296.492,85.861,292.492" fill="#181818" style="stroke:#181818;stroke-width:1;stroke-linejoin:miter;stroke-miterlimit:10;"/><line x1="83.861" y1="292.492" x2="657.603" y2="292.492" style="stroke:#181818;stroke-width:1;stroke-dasharray:2,2;"/><text x="95.861" y="287.426" fill="#000" font-size="13" font-weight="700">5</text><text x="108.906" y="287.426" fill="#000" font-size="13" textLength="149.894">201 { eventId: "rg-1" }</text><path d="M1776.847,305.492 L1776.847,360.492 L2210.847,360.492 L2210.847,315.492 L2200.847,305.492 L1776.847,305.492" style="stroke:#181818;stroke-width:0.5;" fill="#FEFFDD"/><path d="M2200.847,305.492 L2200.847,315.492 L2210.847,315.492 L2200.847,305.492" style="stroke:#181818;stroke-width:0.5;" fill="#FEFFDD"/><text x="1782.847" y="322.559" fill="#000" font-size="13" textLength="362.807">Role/UserPermission (ADR-046) fold from this event the</text><text x="1782.847" y="337.692" fill="#000" font-size="13" textLength="404.752">same way EntityStoreRow folds a business event (ADR-067) --</text><text x="1782.847" y="352.825" fill="#000" font-size="13" textLength="413.08">same StoredEvent shape, same hash chain, ActorId always set.</text><polygon points="991.137,413.289,1001.137,417.289,991.137,421.289,995.137,417.289" fill="#181818" style="stroke:#181818;stroke-width:1;stroke-linejoin:miter;stroke-miterlimit:10;"/><line x1="257.402" y1="417.289" x2="997.137" y2="417.289" style="stroke:#181818;stroke-width:1;"/><text x="264.402" y="397.09" fill="#000" font-size="13" font-weight="700">6</text><text x="277.448" y="381.958" fill="#000" font-size="13" textLength="198.771">POST /publish/OrderSubmitted</text><text x="277.448" y="397.09" fill="#000" font-size="13" textLength="335.518">{ payload: { OrderId: "ord-1", AccountId: "acct-42",</text><text x="285.712" y="412.223" fill="#000" font-size="13" textLength="428.733">Symbol: "ACME", Side: "Buy", Quantity: 500, LimitPrice: 41.10 } }</text><polygon points="1407.208,442.422,1417.208,446.422,1407.208,450.422,1411.208,446.422" fill="#181818" style="stroke:#181818;stroke-width:1;stroke-linejoin:miter;stroke-miterlimit:10;"/><line x1="1003.137" y1="446.422" x2="1413.208" y2="446.422" style="stroke:#181818;stroke-width:1;"/><text x="1010.137" y="441.356" fill="#000" font-size="13" font-weight="700">7</text><text x="1023.183" y="441.356" fill="#000" font-size="13" textLength="379.025">append(StoredEvent, no parents -- origin event, ADR-005)</text><polygon points="1981.887,501.82,1991.887,505.82,1981.887,509.82,1985.887,505.82" fill="#181818" style="stroke:#181818;stroke-width:1;stroke-linejoin:miter;stroke-miterlimit:10;"/><line x1="1419.208" y1="505.82" x2="1987.887" y2="505.82" style="stroke:#181818;stroke-width:1;"/><text x="1426.208" y="485.622" fill="#000" font-size="13" font-weight="700">8</text><text x="1439.253" y="470.489" fill="#000" font-size="13" textLength="131.27">INSERT StoredEvent</text><text x="1439.253" y="485.622" fill="#000" font-size="13" textLength="384.731">(SequenceNumber: 119, EntityId: "brokerage:Order:ord-1",</text><text x="1443.385" y="500.754" fill="#000" font-size="13" textLength="464.617">ActorId: "oms-system", ChainHash: SHA-256(chain[118] || hash || 119))</text><polygon points="268.402,530.953,258.402,534.953,268.402,538.953,264.402,534.953" fill="#181818" style="stroke:#181818;stroke-width:1;stroke-linejoin:miter;stroke-miterlimit:10;"/><line x1="262.402" y1="534.953" x2="1002.137" y2="534.953" style="stroke:#181818;stroke-width:1;stroke-dasharray:2,2;"/><text x="274.402" y="529.887" fill="#000" font-size="13" font-weight="700">9</text><text x="287.448" y="529.887" fill="#000" font-size="13" textLength="260.832">202 { correlationId, status: "received" }</text><polygon points="991.137,590.352,1001.137,594.352,991.137,598.352,995.137,594.352" fill="#181818" style="stroke:#181818;stroke-width:1;stroke-linejoin:miter;stroke-miterlimit:10;"/><line x1="410.234" y1="594.352" x2="997.137" y2="594.352" style="stroke:#181818;stroke-width:1;"/><text x="417.234" y="574.153" fill="#000" font-size="13" textLength="18.091" font-weight="700">10</text><text x="439.325" y="559.02" fill="#000" font-size="13" textLength="214.494">POST /publish/OrderRiskChecked</text><text x="439.325" y="574.153" fill="#000" font-size="13" textLength="511.139">{ payload: { OrderId: "ord-1", Decision: "Approved", Reviewer: "reviewer-1" },</text><text x="447.589" y="589.286" fill="#000" font-size="13" textLength="213.611">parentEventIds: ["119", "rg-1"] }</text><path d="M1008.137,547.953 L1008.137,617.953 L1424.137,617.953 L1424.137,557.953 L1414.137,547.953 L1008.137,547.953" style="stroke:#181818;stroke-width:0.5;" fill="#FEFFDD"/><path d="M1414.137,547.953 L1414.137,557.953 L1424.137,557.953 L1414.137,547.953" style="stroke:#181818;stroke-width:0.5;" fill="#FEFFDD"/><text x="1014.137" y="565.02" fill="#000" font-size="13" textLength="338.863">two parents, two different reasons (ADR-005/067) --</text><text x="1014.137" y="580.153" fill="#000" font-size="13" textLength="395.973">"119" is the OrderSubmitted event this risk check evaluates;</text><text x="1014.137" y="595.286" fill="#000" font-size="13" textLength="383.265">"rg-1" is the RoleGranted event that authorized reviewer-1</text><text x="1014.137" y="610.418" fill="#000" font-size="13" textLength="182.19">to perform risk checks at all</text><polygon points="1407.208,640.617,1417.208,644.617,1407.208,648.617,1411.208,644.617" fill="#181818" style="stroke:#181818;stroke-width:1;stroke-linejoin:miter;stroke-miterlimit:10;"/><line x1="1003.137" y1="644.617" x2="1413.208" y2="644.617" style="stroke:#181818;stroke-width:1;"/><text x="1010.137" y="639.551" fill="#000" font-size="13" textLength="18.091" font-weight="700">11</text><text x="1032.228" y="639.551" fill="#000" font-size="13" textLength="254.103">append(StoredEvent, EventParents x2)</text><polygon points="1981.887,700.016,1991.887,704.016,1981.887,708.016,1985.887,704.016" fill="#181818" style="stroke:#181818;stroke-width:1;stroke-linejoin:miter;stroke-miterlimit:10;"/><line x1="1419.208" y1="704.016" x2="1987.887" y2="704.016" style="stroke:#181818;stroke-width:1;"/><text x="1426.208" y="683.817" fill="#000" font-size="13" textLength="18.091" font-weight="700">12</text><text x="1448.298" y="668.684" fill="#000" font-size="13" textLength="439.118">INSERT StoredEvent (SequenceNumber: 120, ActorId: "reviewer-1",</text><text x="1452.431" y="683.817" fill="#000" font-size="13" textLength="314.66">ChainHash: SHA-256(chain[119] || hash || 120));</text><text x="1448.298" y="698.95" fill="#000" font-size="13" textLength="291.535">INSERT EventParents (120,119), (120,"rg-1")</text><polygon points="421.234,729.148,411.234,733.148,421.234,737.148,417.234,733.148" fill="#181818" style="stroke:#181818;stroke-width:1;stroke-linejoin:miter;stroke-miterlimit:10;"/><line x1="415.234" y1="733.148" x2="1002.137" y2="733.148" style="stroke:#181818;stroke-width:1;stroke-dasharray:2,2;"/><text x="427.234" y="728.083" fill="#000" font-size="13" textLength="18.091" font-weight="700">13</text><text x="449.325" y="728.083" fill="#000" font-size="13" textLength="260.832">202 { correlationId, status: "received" }</text><path d="M241.402,745.148 L305.845,745.148 L305.845,752.281 L295.845,762.281 L241.402,762.281 L241.402,745.148" style="stroke:#000;stroke-width:1.5;" fill="#EEE"/><rect x="241.402" y="745.148" width="2000.182" height="692.789" fill="none" style="stroke:#000;stroke-width:1.5;"/><text x="256.402" y="758.215" fill="#000" font-size="13" textLength="19.443" font-weight="700">alt</text><text x="320.845" y="757.359" fill="#000" font-size="11" textLength="150.729" font-weight="700">[Decision = "Approved"]</text><polygon points="991.137,819.68,1001.137,823.68,991.137,827.68,995.137,823.68" fill="#181818" style="stroke:#181818;stroke-width:1;stroke-linejoin:miter;stroke-miterlimit:10;"/><line x1="257.402" y1="823.68" x2="997.137" y2="823.68" style="stroke:#181818;stroke-width:1;"/><text x="264.402" y="803.481" fill="#000" font-size="13" textLength="18.091" font-weight="700">14</text><text x="286.493" y="788.348" fill="#000" font-size="13" textLength="191.947">POST /publish/OrderExecuted</text><text x="286.493" y="803.481" fill="#000" font-size="13" textLength="514.325">{ payload: { OrderId: "ord-1", ExecutionPrice: 41.05, ExecutedQuantity: 500 },</text><text x="294.758" y="818.614" fill="#000" font-size="13" textLength="166.829">parentEventIds: ["120"] }</text><polygon points="1407.208,848.813,1417.208,852.813,1407.208,856.813,1411.208,852.813" fill="#181818" style="stroke:#181818;stroke-width:1;stroke-linejoin:miter;stroke-miterlimit:10;"/><line x1="1003.137" y1="852.813" x2="1413.208" y2="852.813" style="stroke:#181818;stroke-width:1;"/><text x="1010.137" y="847.747" fill="#000" font-size="13" textLength="18.091" font-weight="700">15</text><text x="1032.228" y="847.747" fill="#000" font-size="13" textLength="254.103">append(StoredEvent, EventParents x1)</text><polygon points="1981.887,893.078,1991.887,897.078,1981.887,901.078,1985.887,897.078" fill="#181818" style="stroke:#181818;stroke-width:1;stroke-linejoin:miter;stroke-miterlimit:10;"/><line x1="1419.208" y1="897.078" x2="1987.887" y2="897.078" style="stroke:#181818;stroke-width:1;"/><text x="1426.208" y="884.446" fill="#000" font-size="13" textLength="18.091" font-weight="700">16</text><text x="1448.298" y="876.879" fill="#000" font-size="13" textLength="294.277">INSERT StoredEvent (SequenceNumber: 121,</text><text x="1452.431" y="892.012" fill="#000" font-size="13" textLength="524.456">ChainHash: SHA-256(chain[120] || hash || 121)); INSERT EventParents (121,120)</text><polygon points="268.402,922.211,258.402,926.211,268.402,930.211,264.402,926.211" fill="#181818" style="stroke:#181818;stroke-width:1;stroke-linejoin:miter;stroke-miterlimit:10;"/><line x1="262.402" y1="926.211" x2="1002.137" y2="926.211" style="stroke:#181818;stroke-width:1;stroke-dasharray:2,2;"/><text x="274.402" y="921.145" fill="#000" font-size="13" textLength="18.091" font-weight="700">17</text><text x="296.493" y="921.145" fill="#000" font-size="13" textLength="24.813">202</text><polygon points="991.137,981.609,1001.137,985.609,991.137,989.609,995.137,985.609" fill="#181818" style="stroke:#181818;stroke-width:1;stroke-linejoin:miter;stroke-miterlimit:10;"/><line x1="523.844" y1="985.609" x2="997.137" y2="985.609" style="stroke:#181818;stroke-width:1;"/><text x="530.844" y="965.411" fill="#000" font-size="13" textLength="18.091" font-weight="700">18</text><text x="552.935" y="950.278" fill="#000" font-size="13" textLength="177.614">POST /publish/OrderSettled</text><text x="552.935" y="965.411" fill="#000" font-size="13" textLength="433.202">{ payload: { OrderId: "ord-1", SettledAt: "2026-08-03T00:00:00Z",</text><text x="561.2" y="980.543" fill="#000" font-size="13" textLength="381.177">SettlementAmount: 20525.00 }, parentEventIds: ["121"] }</text><polygon points="1407.208,1010.742,1417.208,1014.742,1407.208,1018.742,1411.208,1014.742" fill="#181818" style="stroke:#181818;stroke-width:1;stroke-linejoin:miter;stroke-miterlimit:10;"/><line x1="1003.137" y1="1014.742" x2="1413.208" y2="1014.742" style="stroke:#181818;stroke-width:1;"/><text x="1010.137" y="1009.676" fill="#000" font-size="13" textLength="18.091" font-weight="700">19</text><text x="1032.228" y="1009.676" fill="#000" font-size="13" textLength="254.103">append(StoredEvent, EventParents x1)</text><polygon points="1981.887,1055.008,1991.887,1059.008,1981.887,1063.008,1985.887,1059.008" fill="#181818" style="stroke:#181818;stroke-width:1;stroke-linejoin:miter;stroke-miterlimit:10;"/><line x1="1419.208" y1="1059.008" x2="1987.887" y2="1059.008" style="stroke:#181818;stroke-width:1;"/><text x="1426.208" y="1046.375" fill="#000" font-size="13" textLength="18.091" font-weight="700">20</text><text x="1448.298" y="1038.809" fill="#000" font-size="13" textLength="294.277">INSERT StoredEvent (SequenceNumber: 122,</text><text x="1452.431" y="1053.942" fill="#000" font-size="13" textLength="524.456">ChainHash: SHA-256(chain[121] || hash || 122)); INSERT EventParents (122,121)</text><polygon points="534.844,1084.141,524.844,1088.141,534.844,1092.141,530.844,1088.141" fill="#181818" style="stroke:#181818;stroke-width:1;stroke-linejoin:miter;stroke-miterlimit:10;"/><line x1="528.844" y1="1088.141" x2="1002.137" y2="1088.141" style="stroke:#181818;stroke-width:1;stroke-dasharray:2,2;"/><text x="540.844" y="1083.075" fill="#000" font-size="13" textLength="18.091" font-weight="700">21</text><text x="562.935" y="1083.075" fill="#000" font-size="13" textLength="24.813">202</text><path d="M1767.189,1101.141 L1767.189,1186.141 L2220.189,1186.141 L2220.189,1111.141 L2210.189,1101.141 L1767.189,1101.141" style="stroke:#181818;stroke-width:0.5;" fill="#FEFFDD"/><path d="M2210.189,1101.141 L2210.189,1111.141 L2220.189,1111.141 L2210.189,1101.141" style="stroke:#181818;stroke-width:0.5;" fill="#FEFFDD"/><text x="1773.189" y="1118.208" fill="#000" font-size="13" textLength="361.842">The full T+1 lifecycle is now four causally-linked events</text><text x="1773.189" y="1133.34" fill="#000" font-size="13" textLength="371.617">(119 -> 120 -> 121 -> 122, ADR-005) that are ALSO four</text><text x="1773.189" y="1148.473" fill="#000" font-size="13" textLength="394.85">consecutive links in the one store-wide ChainHash sequence</text><text x="1773.189" y="1163.606" fill="#000" font-size="13" textLength="414.312">(ADR-019) -- replaying SequenceNumber 1..122 and comparing</text><text x="1773.189" y="1178.739" fill="#000" font-size="13" textLength="432.396">the final ChainHash detects any later tampering with any of them.</text><line x1="241.402" y1="1192.805" x2="2241.585" y2="1192.805" style="stroke:#000;stroke-width:1;stroke-dasharray:2,2;"/><text x="246.402" y="1205.015" fill="#000" font-size="11" textLength="145.256" font-weight="700">[Decision = "Rejected"]</text><polygon points="991.137,1258.008,1001.137,1262.008,991.137,1266.008,995.137,1262.008" fill="#181818" style="stroke:#181818;stroke-width:1;stroke-linejoin:miter;stroke-miterlimit:10;"/><line x1="257.402" y1="1262.008" x2="997.137" y2="1262.008" style="stroke:#181818;stroke-width:1;"/><text x="264.402" y="1241.809" fill="#000" font-size="13" textLength="18.091" font-weight="700">22</text><text x="286.493" y="1226.676" fill="#000" font-size="13" textLength="188.443">POST /publish/OrderRejected</text><text x="286.493" y="1241.809" fill="#000" font-size="13" textLength="485.221">{ payload: { OrderId: "ord-1", Reason: "Exceeds account buying power" },</text><text x="294.758" y="1256.942" fill="#000" font-size="13" textLength="166.829">parentEventIds: ["120"] }</text><polygon points="1407.208,1287.141,1417.208,1291.141,1407.208,1295.141,1411.208,1291.141" fill="#181818" style="stroke:#181818;stroke-width:1;stroke-linejoin:miter;stroke-miterlimit:10;"/><line x1="1003.137" y1="1291.141" x2="1413.208" y2="1291.141" style="stroke:#181818;stroke-width:1;"/><text x="1010.137" y="1286.075" fill="#000" font-size="13" textLength="18.091" font-weight="700">23</text><text x="1032.228" y="1286.075" fill="#000" font-size="13" textLength="254.103">append(StoredEvent, EventParents x1)</text><polygon points="1981.887,1331.406,1991.887,1335.406,1981.887,1339.406,1985.887,1335.406" fill="#181818" style="stroke:#181818;stroke-width:1;stroke-linejoin:miter;stroke-miterlimit:10;"/><line x1="1419.208" y1="1335.406" x2="1987.887" y2="1335.406" style="stroke:#181818;stroke-width:1;"/><text x="1426.208" y="1322.774" fill="#000" font-size="13" textLength="18.091" font-weight="700">24</text><text x="1448.298" y="1315.208" fill="#000" font-size="13" textLength="294.277">INSERT StoredEvent (SequenceNumber: 121,</text><text x="1452.431" y="1330.34" fill="#000" font-size="13" textLength="524.456">ChainHash: SHA-256(chain[120] || hash || 121)); INSERT EventParents (121,120)</text><polygon points="268.402,1360.539,258.402,1364.539,268.402,1368.539,264.402,1364.539" fill="#181818" style="stroke:#181818;stroke-width:1;stroke-linejoin:miter;stroke-miterlimit:10;"/><line x1="262.402" y1="1364.539" x2="1002.137" y2="1364.539" style="stroke:#181818;stroke-width:1;stroke-dasharray:2,2;"/><text x="274.402" y="1359.473" fill="#000" font-size="13" textLength="18.091" font-weight="700">25</text><text x="296.493" y="1359.473" fill="#000" font-size="13" textLength="24.813">202</text><path d="M1785.042,1377.539 L1785.042,1432.539 L2202.042,1432.539 L2202.042,1387.539 L2192.042,1377.539 L1785.042,1377.539" style="stroke:#181818;stroke-width:0.5;" fill="#FEFFDD"/><path d="M2192.042,1377.539 L2192.042,1387.539 L2202.042,1387.539 L2192.042,1377.539" style="stroke:#181818;stroke-width:0.5;" fill="#FEFFDD"/><text x="1791.042" y="1394.606" fill="#000" font-size="13" textLength="396.69">No OrderExecuted/OrderSettled is ever published for ord-1 --</text><text x="1791.042" y="1409.739" fill="#000" font-size="13" textLength="377.273">the lifecycle terminates structurally at OrderRejected, not</text><text x="1791.042" y="1424.872" fill="#000" font-size="13" textLength="237.212">via a status flag on OrderSubmitted.</text><?plantuml-src xLTDSzis4BthL-pe94r9YsGY9sQddL4SJUEP97Obzz8u1uXSIQX9W0L0osgI_zu5G4gKwzXES-YbCvun2M8_yDxRnOhLHegwNA3giSn81VrJMLO5Po93cEGb5trW6fXzQdUSgnmLl6E2hR14OM2-rGPBjr6Mkjqsu_eQpfTBdg5otnJUSDnq8XN851UhhdtMhFKgfWpFUCN8Vt_sQdBgiu79nTcL64nUpyBe-V4eEdunzBuNB9jK_D3iebuKNAyRcpEnaBS1EDFacJT3aLUI2tDeDxsXKqsgYhwY8ilJDUFY3TFhnZe-yTQisTBBcM4Bfh4nXRTovTtRDthfzHo04FxS9fh2nVdy4aPkVQHaWNgKxP0FfOTjj5AKq9Nu1Eu1SMAHEyjJwBTWXd4VllGQhpP0crJQF0rcvFmNPvv3618B6jKDFMTI60eSLWKJU2LShc2s5JQd96XX7yybIi5whNyRgprV2cVlvzFP9SnfE-OE1C9jZd_MICTvxmIMGXo_3C1zlAGmvBIJMZ-u4h03EeNvcqcOZ8y7cLtw4CSlFiBdpx2cRuEARGl9yg5T89V3OIUdBiBoUe-B1SQU88KaYk6Jpzm3kV8G2caGv0qvsR46O1CS_KQ0NQ0gkTPS2cZ5DuIbB79OAbc2MVE6RNf4CjIiHDYmBKo5uMRhS9d9ZJCXuS2YrboWReq6EyJ3iBNkO0bwpImlRjrY00wMeEK7M46nD6WqHpr20knXUZqgHiTI8_9MSvKlYv6hutczABaX0gpA6cHJ0iXzT019bHD2DbOcwmOqbcKcV9uuqgXyouKiQ7Lo-cvA6-Syj-I-ghVqyclD708fZACeWBUSebqe4dSAp-EZE88lX7sRuRtwxU0GqC4eIKMFscfPAhwYiaB_pM4OZOVV9z6JeE7C7NIXv3KgQdIf0oHjmA1Zxqk3O0wrRs71Gn9-kPEmL-u9ANT_SigL75bz9WH_9fN2WXaIt5bEn1jcQktAFaDErMiLssjxmACasrPykiRi-WaqlyQCMvrRFgjAIHiiW5aJwcxdSGBmZ4nzIL6M7_fqE3BojVMnBIuYQqtvcSsEmy2zv7ovHFjElObfANHJ3j5ur9J4bN0UWOgCoWiEXRkhE_ggx9sJsPFIAYjgPb3_IDQ-o1lpRaDiRPa1Lfir2UelMjqVyKeOoXRLKggouvrAc0oAuXkKw_vTDDgzJPwkKlYdI9CeW7klWaUQwCcX0fDeE2Hqcf072Gvi32lHm3zw1E_eLUr4yGsYPONPQGn-weYC-jvJ6jRq5hFwAVtARwGe-tOJZTjbp0yQqzU5d4HEm03_bkbuICRVmtNyCAb9T8VKc4Y5ht0Q1vRqWzDq-awFFhG3sECN1nfJF866Pj-4lFGfnd4OlGoZPvTHbBg_tvixnEsoq-IajBUCpMUSZ8ySDVVo4l_Nl2IFy1BVuILvW9SaiBpTvQNbmfC3SE-80d19FMrP5mLS_X13mPUORSdITZlX9evQGSPgJUrg6nPSNBTjJplh0LMvFJu9m_-B_RzaVw4s_L7HBuAtytFdqPdI1AbTZTqWMCSQw3As7LOAfEedzC8DpG9xa6X0yIZwoEqmxSTIcaEtxjV00T8G7nrHCi24dLZBolywiEOsq98BLdJyvsWm8qYPs08r8Z8thAJsRVrkk5cx3t9fRSiZ3xUVbR2WwRtRbcRu1tbwUbjgzpzQ3pDtnz72z3P3jCEWdwje97J7h-J6_bxwlo4zgFdt4WvkWuEU17uOLz0mH2jqVuDZm0_ONZtxMZ5sl1TsMY3TgZepjRBbOc_v0tRj06gS_GrdDCRxAmwM1LkHwEyC9eS24_dV?></g></svg>