<svg xmlns="http://www.w3.org/2000/svg" xmlns:xlink="http://www.w3.org/1999/xlink" version="1.1" data-diagram-type="STATE" style="width:602px;height:790px;background:#FFFFFF;" width="602px" height="790px" viewBox="0 0 602 790" zoomAndPan="magnify" preserveAspectRatio="none" contentStyleType="text/css"><?plantuml 1.2026.7?><defs/><g font-family="sans-serif" lengthAdjust="spacing"><g class="entity" data-qualified-name="Erased" id="ent0001" data-source-line="9"><rect x="7" y="559" width="324.657" height="134.078" fill="#F1F1F1" style="stroke:#181818;stroke-width:0.5;" rx="12.5" ry="12.5"/><line x1="7" y1="585.297" x2="331.657" y2="585.297" style="stroke:#181818;stroke-width:0.5;"/><text x="145.341" y="576.995" fill="#000" font-size="14" textLength="47.975">Erased</text><text x="12" y="603.292" fill="#000" font-size="14" textLength="185.411">classified PHI fields render</text><text x="12" y="619.589" fill="#000" font-size="14" textLength="304.657">{"erased": true} on every subsequent read</text><text x="12" y="635.886" fill="#000" font-size="14" textLength="221.683">non-PHI structural/clinical fields</text><text x="12" y="652.183" fill="#000" font-size="14" textLength="292.455">remain fully readable (ICH-GCP retention)</text><text x="12" y="668.479" fill="#000" font-size="14" textLength="261.468">the EVENTS themselves, and the fact</text><text x="12" y="684.776" fill="#000" font-size="14" textLength="221.396">of erasure, are retained forever</text></g><g class="start_entity" data-qualified-name=".start." id="ent0002" data-source-line="1"><ellipse cx="169.33" cy="16" rx="10" ry="10" fill="#222" style="stroke:#222;stroke-width:1;"/></g><g class="entity" data-qualified-name="Active" id="ent0003" data-source-line="1"><rect x="137.55" y="118" width="63.552" height="50" fill="#F1F1F1" style="stroke:#181818;stroke-width:0.5;" rx="12.5" ry="12.5"/><line x1="137.55" y1="144.297" x2="201.102" y2="144.297" style="stroke:#181818;stroke-width:0.5;"/><text x="147.55" y="135.995" fill="#000" font-size="14" textLength="43.552">Active</text></g><g class="entity" data-qualified-name="Withdrawn" id="ent0006" data-source-line="4"><rect x="121.51" y="260" width="95.64" height="50" fill="#F1F1F1" style="stroke:#181818;stroke-width:0.5;" rx="12.5" ry="12.5"/><line x1="121.51" y1="286.297" x2="217.15" y2="286.297" style="stroke:#181818;stroke-width:0.5;"/><text x="131.51" y="277.995" fill="#000" font-size="14" textLength="75.64">Withdrawn</text></g><g class="entity" data-qualified-name="ErasureRequested" id="ent0008" data-source-line="6"><rect x="94.97" y="417" width="148.714" height="50" fill="#F1F1F1" style="stroke:#181818;stroke-width:0.5;" rx="12.5" ry="12.5"/><line x1="94.97" y1="443.297" x2="243.684" y2="443.297" style="stroke:#181818;stroke-width:0.5;"/><text x="104.97" y="434.995" fill="#000" font-size="14" textLength="128.714">ErasureRequested</text></g><g class="end_entity" data-qualified-name=".end." id="ent0011" data-source-line="12"><ellipse cx="169.33" cy="765.08" rx="11" ry="11" fill="none" style="stroke:#222;stroke-width:1;"/><ellipse cx="169.33" cy="765.08" rx="6" ry="6" fill="#222" style="stroke:#222;stroke-width:1;"/></g><!--link *start* to Active--><g class="link" data-entity-1="ent0002" data-entity-2="ent0003" id="lnk4" data-source-line="1" data-link-type="dependency"><path d="M169.33,26.4 C169.33,45.59 169.33,84.82 169.33,112.67" style="stroke:#181818;stroke-width:1;" fill="none" id="*start*-to-Active"/><polygon points="169.33,117.67,173.33,108.67,169.33,112.67,165.33,108.67,169.33,117.67" fill="#181818" style="stroke:#181818;stroke-width:1;stroke-linejoin:miter;stroke-miterlimit:10;"/><text x="170.33" y="69.067" fill="#000" font-size="13" textLength="416.178">PatientScreened / InformedConsentCaptured / ConsentApproval</text><text x="212.209" y="84.2" fill="#000" font-size="13" textLength="332.42">(see patient-enrollment-and-informed-consent.md)</text></g><!--link Active to Active--><g class="link" data-entity-1="ent0003" data-entity-2="ent0003" id="lnk5" data-source-line="3" data-link-type="dependency"><path d="M201.28,130.37 C219.36,127.91 236.1,132.12 236.1,143 C236.1,153.89 224.314,158.777 206.234,156.307" style="stroke:#181818;stroke-width:1;" fill="none" id="Active-to-Active"/><polygon points="201.28,155.63,209.656,160.811,206.234,156.307,210.739,152.885,201.28,155.63" fill="#181818" style="stroke:#181818;stroke-width:1;stroke-linejoin:miter;stroke-miterlimit:10;"/><text x="242.1" y="140.067" fill="#000" font-size="13" textLength="315.897">exported (ADR-068) or played back (ADR-068) --</text><text x="262.558" y="155.2" fill="#000" font-size="13" textLength="274.98">a READ, never changes this lifecycle state</text></g><!--link Active to Withdrawn--><g class="link" data-entity-1="ent0003" data-entity-2="ent0006" id="lnk7" data-source-line="4" data-link-type="dependency"><path d="M169.33,168.39 C169.33,194.08 169.33,229.31 169.33,254.9" style="stroke:#181818;stroke-width:1;" fill="none" id="Active-to-Withdrawn"/><polygon points="169.33,259.9,173.33,250.9,169.33,254.9,165.33,250.9,169.33,259.9" fill="#181818" style="stroke:#181818;stroke-width:1;stroke-linejoin:miter;stroke-miterlimit:10;"/><text x="170.33" y="211.067" fill="#000" font-size="13" textLength="190.976">ConsentWithdrawn published</text><text x="176.655" y="226.2" fill="#000" font-size="13" textLength="178.325">(retained forever, ICH-GCP)</text></g><!--link Withdrawn to ErasureRequested--><g class="link" data-entity-1="ent0006" data-entity-2="ent0008" id="lnk9" data-source-line="6" data-link-type="dependency"><path d="M169.33,310.22 C169.33,339.25 169.33,382.63 169.33,411.7" style="stroke:#181818;stroke-width:1;" fill="none" id="Withdrawn-to-ErasureRequested"/><polygon points="169.33,416.7,173.33,407.7,169.33,411.7,165.33,407.7,169.33,416.7" fill="#181818" style="stroke:#181818;stroke-width:1;stroke-linejoin:miter;stroke-miterlimit:10;"/><text x="170.33" y="353.067" fill="#000" font-size="13" textLength="224.834">EntityErasureRequested published</text><text x="176.484" y="368.2" fill="#000" font-size="13" textLength="212.526">(ADR-057) -- itself hash-chained,</text><text x="229.973" y="383.333" fill="#000" font-size="13" textLength="105.549">retained forever</text></g><!--link ErasureRequested to Erased--><g class="link" data-entity-1="ent0008" data-entity-2="ent0001" id="lnk10" data-source-line="7" data-link-type="dependency"><path d="M169.33,467.18 C169.33,490.48 169.33,521.83 169.33,553.77" style="stroke:#181818;stroke-width:1;" fill="none" id="ErasureRequested-to-Erased"/><polygon points="169.33,558.77,173.33,549.77,169.33,553.77,165.33,549.77,169.33,558.77" fill="#181818" style="stroke:#181818;stroke-width:1;stroke-linejoin:miter;stroke-miterlimit:10;"/><text x="170.33" y="510.067" fill="#000" font-size="13" textLength="228.941">IErasureKeyStore destroys the DEK</text><text x="242.938" y="525.2" fill="#000" font-size="13" textLength="83.726">(irreversible)</text></g><!--link Erased to *end*--><g class="link" data-entity-1="ent0001" data-entity-2="ent0011" id="lnk12" data-source-line="12" data-link-type="dependency"><path d="M169.33,693.55 C169.33,717.01 169.33,735.79 169.33,748.86" style="stroke:#181818;stroke-width:1;" fill="none" id="Erased-to-*end*"/><polygon points="169.33,753.86,173.33,744.86,169.33,748.86,165.33,744.86,169.33,753.86" fill="#181818" style="stroke:#181818;stroke-width:1;stroke-linejoin:miter;stroke-miterlimit:10;"/></g><?plantuml-src RL9BRnCn4BxdLunwIggOSk6X792YP4MZIYXA43rqUvZOiwo5TxpOti0AyTyPRnOIsjxi-JpVItwuVWIbFi1I9tiaMC0MaoLEUns8c0pSm8Oh7neoAyzHa1MsgGi3CawMRHly4Lt9qqW4xOb14GVlN9EFo4RPaKRfqzQhnimcar7tFmlqi_KXYS9qkTwfrs_Vpy07Q1tsCZkW_dO1A5KomgvOhkV0TAG0kaR-IX5IRICuMv7kjIE82HDTojtRL9k0FrWKno3dKTiTd8qr6SaKAA7DLOZ_h327pUfMVLnjnVvv8rCM0QDKiwFl7SKSO0459vlwPy0b_v3bpRkS1MoAv2geCTPAWcJPUSbF7KoUyVrL7pGt8tn7_Jx91XXv57oVEo5O5tSYQiF05Et1aUJujwiTncWhAvVjxGRau4o4G6mebFphYeQ7Lmj8eQFVu1aoJG-nEyJiXfCyHdCcPCygCuc3Jil7GNUZdMMhqOtiELyZ-Q3gdEk7THHNC1rhbaaINkjvTgRDIOelnQVF-tnifBKZnJd8HnkW2dKgsLT0foe4aHvUx75ix-7wyGy0?></g></svg>