<svg xmlns="http://www.w3.org/2000/svg" xmlns:xlink="http://www.w3.org/1999/xlink" version="1.1" data-diagram-type="SEQUENCE" style="width:2717px;height:1367px;background:#FFFFFF;" width="2717px" height="1367px" viewBox="0 0 2717 1367" zoomAndPan="magnify" preserveAspectRatio="none" contentStyleType="text/css"><?plantuml 1.2026.7?><defs/><g font-family="sans-serif" lengthAdjust="spacing"><rect x="13" y="186.828" width="2684.608" height="1069.211" fill="none" style="stroke:#000;stroke-width:1.5;"/><rect x="32" y="342.969" width="2640.608" height="899.07" fill="none" style="stroke:#000;stroke-width:1.5;"/><rect x="51" y="437.172" width="2546.608" height="193.602" fill="none" style="stroke:#000;stroke-width:1.5;"/><rect x="70" y="497.438" width="503.682" height="119.336" fill="none" style="stroke:#000;stroke-width:1.5;"/><rect x="51" y="648.773" width="2596.608" height="579.266" fill="none" style="stroke:#000;stroke-width:1.5;"/><rect x="70" y="709.039" width="2552.608" height="505" fill="none" style="stroke:#000;stroke-width:1.5;"/><rect x="1972.533" y="1023.438" width="625.075" height="176.602" fill="none" style="stroke:#000;stroke-width:1.5;"/><g><title>Publishing System</title><rect x="82.5" y="86.297" width="8" height="1193.742" fill="#000" fill-opacity="0"/><line x1="86" y1="86.297" x2="86" y2="1280.039" style="stroke:#181818;stroke-width:0.5;stroke-dasharray:5,5;"/></g><g><title>Inbox</title><rect x="554.182" y="86.297" width="8" height="1193.742" fill="#000" fill-opacity="0"/><line x1="557.682" y1="86.297" x2="557.682" y2="1280.039" style="stroke:#181818;stroke-width:0.5;stroke-dasharray:5,5;"/></g><g><title>Auth</title><rect x="1176.088" y="86.297" width="8" height="1193.742" fill="#000" fill-opacity="0"/><line x1="1179.588" y1="86.297" x2="1179.588" y2="1280.039" style="stroke:#181818;stroke-width:0.5;stroke-dasharray:5,5;"/></g><g><title>SchemaRegistryClient</title><rect x="1375.553" y="86.297" width="8" height="1193.742" fill="#000" fill-opacity="0"/><line x1="1379.053" y1="86.297" x2="1379.053" y2="1280.039" style="stroke:#181818;stroke-width:0.5;stroke-dasharray:5,5;"/></g><g><title>ParentLinkService</title><rect x="1540.014" y="86.297" width="8" height="1193.742" fill="#000" fill-opacity="0"/><line x1="1543.514" y1="86.297" x2="1543.514" y2="1280.039" style="stroke:#181818;stroke-width:0.5;stroke-dasharray:5,5;"/></g><g><title>EventAppender</title><rect x="1681.196" y="86.297" width="8" height="1193.742" fill="#000" fill-opacity="0"/><line x1="1684.696" y1="86.297" x2="1684.696" y2="1280.039" style="stroke:#181818;stroke-width:0.5;stroke-dasharray:5,5;"/></g><g><title>Router</title><rect x="1985.033" y="86.297" width="8" height="1193.742" fill="#000" fill-opacity="0"/><line x1="1988.533" y1="86.297" x2="1988.533" y2="1280.039" style="stroke:#181818;stroke-width:0.5;stroke-dasharray:5,5;"/></g><g><title>SchemaValidationService</title><rect x="2389.999" y="86.297" width="8" height="1193.742" fill="#000" fill-opacity="0"/><line x1="2393.499" y1="86.297" x2="2393.499" y2="1280.039" style="stroke:#181818;stroke-width:0.5;stroke-dasharray:5,5;"/></g><g><title>Event . Schema Store</title><rect x="2578.108" y="86.297" width="8" height="1193.742" fill="#000" fill-opacity="0"/><line x1="2581.608" y1="86.297" x2="2581.608" y2="1280.039" style="stroke:#181818;stroke-width:0.5;stroke-dasharray:5,5;"/></g><text x="18.773" y="82.995" fill="#000" font-size="14" textLength="128.454">Publishing System</text><ellipse cx="86" cy="18.5" rx="8" ry="8" fill="#E2E2F0" style="stroke:#181818;stroke-width:0.5;"/><path d="M86,26.5 L86,53.5 M73,34.5 L99,34.5 M86,53.5 L73,68.5 M86,53.5 L99,68.5" style="stroke:#181818;stroke-width:0.5;" fill="none"/><rect x="459.316" y="38.703" width="196.731" height="46.594" fill="#E2E2F0" style="stroke:#181818;stroke-width:0.5;" rx="2.5" ry="2.5"/><text x="538.313" y="58.698" fill="#000" font-size="14" textLength="38.739">Inbox</text><text x="466.316" y="74.995" fill="#000" font-size="14" textLength="182.731">(InboxEndpoint, ADR-023)</text><rect x="1074.502" y="38.703" width="210.171" height="46.594" fill="#E2E2F0" style="stroke:#181818;stroke-width:0.5;" rx="2.5" ry="2.5"/><text x="1163.182" y="58.698" fill="#000" font-size="14" textLength="32.813">Auth</text><text x="1081.502" y="74.995" fill="#000" font-size="14" textLength="196.171">(JWT Bearer + scope policy)</text><rect x="1294.673" y="55" width="168.759" height="30.297" fill="#E2E2F0" style="stroke:#181818;stroke-width:0.5;" rx="2.5" ry="2.5"/><text x="1301.673" y="74.995" fill="#000" font-size="14" textLength="154.759">SchemaRegistryClient</text><rect x="1473.432" y="55" width="140.164" height="30.297" fill="#E2E2F0" style="stroke:#181818;stroke-width:0.5;" rx="2.5" ry="2.5"/><text x="1480.432" y="74.995" fill="#000" font-size="14" textLength="126.164">ParentLinkService</text><rect x="1623.596" y="55" width="122.199" height="30.297" fill="#E2E2F0" style="stroke:#181818;stroke-width:0.5;" rx="2.5" ry="2.5"/><text x="1630.596" y="74.995" fill="#000" font-size="14" textLength="108.199">EventAppender</text><rect x="1883.639" y="38.703" width="209.788" height="46.594" fill="#E2E2F0" style="stroke:#181818;stroke-width:0.5;" rx="2.5" ry="2.5"/><text x="1965.021" y="58.698" fill="#000" font-size="14" textLength="47.024">Router</text><text x="1890.639" y="74.995" fill="#000" font-size="14" textLength="195.788">(async validation, ADR-023)</text><rect x="2297.375" y="55" width="192.247" height="30.297" fill="#E2E2F0" style="stroke:#181818;stroke-width:0.5;" rx="2.5" ry="2.5"/><text x="2304.375" y="74.995" fill="#000" font-size="14" textLength="178.247">SchemaValidationService</text><text x="2499.623" y="82.995" fill="#000" font-size="14" textLength="157.972">Event &amp; Schema Store</text><path d="M2563.608,34 C2563.608,24 2581.608,24 2581.608,24 C2581.608,24 2599.608,24 2599.608,34 L2599.608,60 C2599.608,70 2581.608,70 2581.608,70 C2581.608,70 2563.608,70 2563.608,60 L2563.608,34" style="stroke:#181818;stroke-width:0.5;" fill="#E2E2F0"/><path d="M2563.608,34 C2563.608,44 2581.608,44 2581.608,44 C2581.608,44 2599.608,44 2599.608,34" style="stroke:#181818;stroke-width:0.5;" fill="none"/><text x="18.773" y="1293.034" fill="#000" font-size="14" textLength="128.454">Publishing System</text><ellipse cx="86" cy="1304.836" rx="8" ry="8" fill="#E2E2F0" style="stroke:#181818;stroke-width:0.5;"/><path d="M86,1312.836 L86,1339.836 M73,1320.836 L99,1320.836 M86,1339.836 L73,1354.836 M86,1339.836 L99,1354.836" style="stroke:#181818;stroke-width:0.5;" fill="none"/><rect x="459.316" y="1280.039" width="196.731" height="46.594" fill="#E2E2F0" style="stroke:#181818;stroke-width:0.5;" rx="2.5" ry="2.5"/><text x="538.313" y="1300.034" fill="#000" font-size="14" textLength="38.739">Inbox</text><text x="466.316" y="1316.331" fill="#000" font-size="14" textLength="182.731">(InboxEndpoint, ADR-023)</text><rect x="1074.502" y="1280.039" width="210.171" height="46.594" fill="#E2E2F0" style="stroke:#181818;stroke-width:0.5;" rx="2.5" ry="2.5"/><text x="1163.182" y="1300.034" fill="#000" font-size="14" textLength="32.813">Auth</text><text x="1081.502" y="1316.331" fill="#000" font-size="14" textLength="196.171">(JWT Bearer + scope policy)</text><rect x="1294.673" y="1280.039" width="168.759" height="30.297" fill="#E2E2F0" style="stroke:#181818;stroke-width:0.5;" rx="2.5" ry="2.5"/><text x="1301.673" y="1300.034" fill="#000" font-size="14" textLength="154.759">SchemaRegistryClient</text><rect x="1473.432" y="1280.039" width="140.164" height="30.297" fill="#E2E2F0" style="stroke:#181818;stroke-width:0.5;" rx="2.5" ry="2.5"/><text x="1480.432" y="1300.034" fill="#000" font-size="14" textLength="126.164">ParentLinkService</text><rect x="1623.596" y="1280.039" width="122.199" height="30.297" fill="#E2E2F0" style="stroke:#181818;stroke-width:0.5;" rx="2.5" ry="2.5"/><text x="1630.596" y="1300.034" fill="#000" font-size="14" textLength="108.199">EventAppender</text><rect x="1883.639" y="1280.039" width="209.788" height="46.594" fill="#E2E2F0" style="stroke:#181818;stroke-width:0.5;" rx="2.5" ry="2.5"/><text x="1965.021" y="1300.034" fill="#000" font-size="14" textLength="47.024">Router</text><text x="1890.639" y="1316.331" fill="#000" font-size="14" textLength="195.788">(async validation, ADR-023)</text><rect x="2297.375" y="1280.039" width="192.247" height="30.297" fill="#E2E2F0" style="stroke:#181818;stroke-width:0.5;" rx="2.5" ry="2.5"/><text x="2304.375" y="1300.034" fill="#000" font-size="14" textLength="178.247">SchemaValidationService</text><text x="2499.623" y="1293.034" fill="#000" font-size="14" textLength="157.972">Event &amp; Schema Store</text><path d="M2563.608,1306.336 C2563.608,1296.336 2581.608,1296.336 2581.608,1296.336 C2581.608,1296.336 2599.608,1296.336 2599.608,1306.336 L2599.608,1332.336 C2599.608,1342.336 2581.608,1342.336 2581.608,1342.336 C2581.608,1342.336 2563.608,1342.336 2563.608,1332.336 L2563.608,1306.336" style="stroke:#181818;stroke-width:0.5;" fill="#E2E2F0"/><path d="M2563.608,1306.336 C2563.608,1316.336 2581.608,1316.336 2581.608,1316.336 C2581.608,1316.336 2599.608,1316.336 2599.608,1306.336" style="stroke:#181818;stroke-width:0.5;" fill="none"/><polygon points="545.682,141.695,555.682,145.695,545.682,149.695,549.682,145.695" fill="#181818" style="stroke:#181818;stroke-width:1;stroke-linejoin:miter;stroke-miterlimit:10;"/><line x1="86" y1="145.695" x2="551.682" y2="145.695" style="stroke:#181818;stroke-width:1;"/><text x="93" y="125.497" fill="#000" font-size="13" font-weight="700">1</text><text x="106.045" y="110.364" fill="#000" font-size="13" textLength="181.435">POST /publish/{event-type}</text><text x="106.045" y="125.497" fill="#000" font-size="13" textLength="189.7">Authorization: Bearer &lt;JWT></text><text x="106.045" y="140.629" fill="#000" font-size="13" textLength="434.637">{ schemaVersion, payload, parentEventIds?, eventId?, uniqueId? }</text><polygon points="1167.588,170.828,1177.588,174.828,1167.588,178.828,1171.588,174.828" fill="#181818" style="stroke:#181818;stroke-width:1;stroke-linejoin:miter;stroke-miterlimit:10;"/><line x1="557.682" y1="174.828" x2="1173.588" y2="174.828" style="stroke:#181818;stroke-width:1;"/><text x="564.682" y="169.762" fill="#000" font-size="13" font-weight="700">2</text><text x="577.728" y="169.762" fill="#000" font-size="13" textLength="584.86">validate token + events:publish scope + Publish-direction RequiredClaims (ADR-008/050)</text><path d="M13,186.828 L77.443,186.828 L77.443,193.961 L67.443,203.961 L13,203.961 L13,186.828" style="stroke:#000;stroke-width:1.5;" fill="#EEE"/><rect x="13" y="186.828" width="2684.608" height="1069.211" fill="none" style="stroke:#000;stroke-width:1.5;"/><text x="28" y="199.895" fill="#000" font-size="13" textLength="19.443" font-weight="700">alt</text><text x="92.443" y="199.039" fill="#000" font-size="11" textLength="142.737" font-weight="700">[missing/invalid token]</text><polygon points="97,231.094,87,235.094,97,239.094,93,235.094" fill="#181818" style="stroke:#181818;stroke-width:1;stroke-linejoin:miter;stroke-miterlimit:10;"/><line x1="91" y1="235.094" x2="1178.588" y2="235.094" style="stroke:#181818;stroke-width:1;stroke-dasharray:2,2;"/><text x="103" y="230.028" fill="#000" font-size="13" font-weight="700">3</text><text x="116.045" y="230.028" fill="#000" font-size="13" textLength="24.813">401</text><line x1="13" y1="244.094" x2="2697.608" y2="244.094" style="stroke:#000;stroke-width:1;stroke-dasharray:2,2;"/><text x="18" y="256.304" fill="#000" font-size="11" textLength="211.879" font-weight="700">[valid token, missing scope/claim]</text><polygon points="97,279.031,87,283.031,97,287.031,93,283.031" fill="#181818" style="stroke:#181818;stroke-width:1;stroke-linejoin:miter;stroke-miterlimit:10;"/><line x1="91" y1="283.031" x2="1178.588" y2="283.031" style="stroke:#181818;stroke-width:1;stroke-dasharray:2,2;"/><text x="103" y="277.965" fill="#000" font-size="13" font-weight="700">4</text><text x="116.045" y="277.965" fill="#000" font-size="13" textLength="24.813">403</text><line x1="13" y1="292.031" x2="2697.608" y2="292.031" style="stroke:#000;stroke-width:1;stroke-dasharray:2,2;"/><text x="18" y="304.242" fill="#000" font-size="11" textLength="76.887" font-weight="700">[authorized]</text><polygon points="1367.053,326.969,1377.053,330.969,1367.053,334.969,1371.053,330.969" fill="#181818" style="stroke:#181818;stroke-width:1;stroke-linejoin:miter;stroke-miterlimit:10;"/><line x1="557.682" y1="330.969" x2="1373.053" y2="330.969" style="stroke:#181818;stroke-width:1;"/><text x="564.682" y="325.903" fill="#000" font-size="13" font-weight="700">5</text><text x="577.728" y="325.903" fill="#000" font-size="13" textLength="352.435">does {event-type} have any registered version at all?</text><path d="M32,342.969 L96.443,342.969 L96.443,350.102 L86.443,360.102 L32,360.102 L32,342.969" style="stroke:#000;stroke-width:1.5;" fill="#EEE"/><rect x="32" y="342.969" width="2640.608" height="899.07" fill="none" style="stroke:#000;stroke-width:1.5;"/><text x="47" y="356.036" fill="#000" font-size="13" textLength="19.443" font-weight="700">alt</text><text x="111.443" y="355.179" fill="#000" font-size="11" textLength="185.125" font-weight="700">[event-type never registered]</text><polygon points="97,402.367,87,406.367,97,410.367,93,406.367" fill="#181818" style="stroke:#181818;stroke-width:1;stroke-linejoin:miter;stroke-miterlimit:10;"/><line x1="91" y1="406.367" x2="1378.053" y2="406.367" style="stroke:#181818;stroke-width:1;stroke-dasharray:2,2;"/><text x="103" y="393.735" fill="#000" font-size="13" font-weight="700">6</text><text x="116.045" y="386.168" fill="#000" font-size="13" textLength="307.277">404 (ADR-023 does not cover this -- there is no</text><text x="116.045" y="401.301" fill="#000" font-size="13" textLength="304.802">schema/AppId context to persist against at all)</text><line x1="32" y1="415.367" x2="2672.608" y2="415.367" style="stroke:#000;stroke-width:1;stroke-dasharray:2,2;"/><text x="37" y="427.578" fill="#000" font-size="11" textLength="211.621" font-weight="700">[registered (some version exists)]</text><path d="M51,437.172 L115.443,437.172 L115.443,444.305 L105.443,454.305 L51,454.305 L51,437.172" style="stroke:#000;stroke-width:1.5;" fill="#EEE"/><rect x="51" y="437.172" width="2546.608" height="193.602" fill="none" style="stroke:#000;stroke-width:1.5;"/><text x="66" y="450.239" fill="#000" font-size="13" textLength="19.443" font-weight="700">alt</text><text x="130.443" y="449.382" fill="#000" font-size="11" textLength="114.034" font-weight="700">[eventId supplied]</text><polygon points="2569.608,481.438,2579.608,485.438,2569.608,489.438,2573.608,485.438" fill="#181818" style="stroke:#181818;stroke-width:1;stroke-linejoin:miter;stroke-miterlimit:10;"/><line x1="557.682" y1="485.438" x2="2575.608" y2="485.438" style="stroke:#181818;stroke-width:1;"/><text x="564.682" y="480.372" fill="#000" font-size="13" font-weight="700">7</text><text x="577.728" y="480.372" fill="#000" font-size="13" textLength="378.879">SELECT StoredEvent WHERE EventId = eventId (ADR-011)</text><path d="M70,497.438 L134.443,497.438 L134.443,504.57 L124.443,514.57 L70,514.57 L70,497.438" style="stroke:#000;stroke-width:1.5;" fill="#EEE"/><rect x="70" y="497.438" width="503.682" height="119.336" fill="none" style="stroke:#000;stroke-width:1.5;"/><text x="85" y="510.504" fill="#000" font-size="13" textLength="19.443" font-weight="700">alt</text><text x="149.443" y="509.648" fill="#000" font-size="11" textLength="190.561" font-weight="700">[found, PayloadHash matches]</text><polygon points="97,556.836,87,560.836,97,564.836,93,560.836" fill="#181818" style="stroke:#181818;stroke-width:1;stroke-linejoin:miter;stroke-miterlimit:10;"/><line x1="91" y1="560.836" x2="556.682" y2="560.836" style="stroke:#181818;stroke-width:1;stroke-dasharray:2,2;"/><text x="103" y="548.204" fill="#000" font-size="13" font-weight="700">8</text><text x="116.045" y="540.637" fill="#000" font-size="13" textLength="249.031">202 (idempotent replay of the original</text><text x="116.045" y="555.77" fill="#000" font-size="13" textLength="307.626">response -- no new write, no further validation)</text><line x1="70" y1="569.836" x2="573.682" y2="569.836" style="stroke:#000;stroke-width:1;stroke-dasharray:2,2;"/><text x="75" y="582.046" fill="#000" font-size="11" textLength="178.707" font-weight="700">[found, PayloadHash differs]</text><polygon points="97,604.773,87,608.773,97,612.773,93,608.773" fill="#181818" style="stroke:#181818;stroke-width:1;stroke-linejoin:miter;stroke-miterlimit:10;"/><line x1="91" y1="608.773" x2="556.682" y2="608.773" style="stroke:#181818;stroke-width:1;stroke-dasharray:2,2;"/><text x="103" y="603.708" fill="#000" font-size="13" font-weight="700">9</text><text x="116.045" y="603.708" fill="#000" font-size="13" textLength="322.004">409 (eventId already used with different content)</text><path d="M51,648.773 L519.973,648.773 L519.973,655.906 L509.973,665.906 L51,665.906 L51,648.773" style="stroke:#000;stroke-width:1.5;" fill="#EEE"/><rect x="51" y="648.773" width="2596.608" height="579.266" fill="none" style="stroke:#000;stroke-width:1.5;"/><text x="66" y="661.84" fill="#000" font-size="13" textLength="423.973" font-weight="700">only reached if eventId absent, or supplied-but-not-found</text><polygon points="1531.514,693.039,1541.514,697.039,1531.514,701.039,1535.514,697.039" fill="#181818" style="stroke:#181818;stroke-width:1;stroke-linejoin:miter;stroke-miterlimit:10;"/><line x1="557.682" y1="697.039" x2="1537.514" y2="697.039" style="stroke:#181818;stroke-width:1;"/><text x="564.682" y="691.973" fill="#000" font-size="13" textLength="18.091" font-weight="700">10</text><text x="586.773" y="691.973" fill="#000" font-size="13" textLength="598.825">validate(parentEventIds, ParentValidationMode) -- still synchronous and blocking (ADR-005)</text><path d="M70,709.039 L134.443,709.039 L134.443,716.172 L124.443,726.172 L70,726.172 L70,709.039" style="stroke:#000;stroke-width:1.5;" fill="#EEE"/><rect x="70" y="709.039" width="2552.608" height="505" fill="none" style="stroke:#000;stroke-width:1.5;"/><text x="85" y="722.106" fill="#000" font-size="13" textLength="19.443" font-weight="700">alt</text><text x="149.443" y="721.25" fill="#000" font-size="11" textLength="262.48" font-weight="700">[Strict and any parentEventId unresolved]</text><polygon points="97,768.438,87,772.438,97,776.438,93,772.438" fill="#181818" style="stroke:#181818;stroke-width:1;stroke-linejoin:miter;stroke-miterlimit:10;"/><line x1="91" y1="772.438" x2="1542.514" y2="772.438" style="stroke:#181818;stroke-width:1;stroke-dasharray:2,2;"/><text x="103" y="759.805" fill="#000" font-size="13" textLength="18.091" font-weight="700">11</text><text x="125.091" y="752.239" fill="#000" font-size="13" textLength="310.445">400 (parent event not found -- NOT superseded</text><text x="125.091" y="767.372" fill="#000" font-size="13" textLength="258.718">by ADR-023, see ADR-013's error table)</text><line x1="70" y1="781.438" x2="2622.608" y2="781.438" style="stroke:#000;stroke-width:1;stroke-dasharray:2,2;"/><text x="75" y="793.648" fill="#000" font-size="11" textLength="318.114" font-weight="700">[Permissive, or all parents resolved, or no parents]</text><polygon points="1672.696,831.508,1682.696,835.508,1672.696,839.508,1676.696,835.508" fill="#181818" style="stroke:#181818;stroke-width:1;stroke-linejoin:miter;stroke-miterlimit:10;"/><line x1="557.682" y1="835.508" x2="1678.696" y2="835.508" style="stroke:#181818;stroke-width:1;"/><text x="564.682" y="822.875" fill="#000" font-size="13" textLength="18.091" font-weight="700">12</text><text x="586.773" y="815.309" fill="#000" font-size="13" textLength="387.658">append(StoredEvent [Status: received, SchemaStatus: null,</text><text x="586.773" y="830.442" fill="#000" font-size="13" textLength="221.997">EntityId: null], EventParents rows)</text><polygon points="2569.608,875.773,2579.608,879.773,2569.608,883.773,2573.608,879.773" fill="#181818" style="stroke:#181818;stroke-width:1;stroke-linejoin:miter;stroke-miterlimit:10;"/><line x1="1684.696" y1="879.773" x2="2575.608" y2="879.773" style="stroke:#181818;stroke-width:1;"/><text x="1691.696" y="867.141" fill="#000" font-size="13" textLength="18.091" font-weight="700">13</text><text x="1713.787" y="859.575" fill="#000" font-size="13" textLength="407.843">INSERT (single transaction) -- always succeeds once parseable</text><text x="1713.787" y="874.708" fill="#000" font-size="13" textLength="468.349">and parent-checked, never gated on schema/version validity (ADR-023)</text><polygon points="97,920.039,87,924.039,97,928.039,93,924.039" fill="#181818" style="stroke:#181818;stroke-width:1;stroke-linejoin:miter;stroke-miterlimit:10;"/><line x1="91" y1="924.039" x2="1683.696" y2="924.039" style="stroke:#181818;stroke-width:1;stroke-dasharray:2,2;"/><text x="103" y="911.407" fill="#000" font-size="13" textLength="18.091" font-weight="700">14</text><text x="125.091" y="903.84" fill="#000" font-size="13" textLength="342.862">202 { correlationId, status: "received", entityId: null,</text><text x="125.091" y="918.973" fill="#000" font-size="13" textLength="449.224">schemaStatus: null, authorityStatus: "accepted", sequenceNumber }</text><line x1="1986.533" y1="953.172" x2="1976.533" y2="949.172" style="stroke:#181818;stroke-width:1;"/><line x1="1986.533" y1="953.172" x2="1976.533" y2="957.172" style="stroke:#181818;stroke-width:1;"/><line x1="1684.696" y1="953.172" x2="1987.533" y2="953.172" style="stroke:#181818;stroke-width:1;"/><text x="1691.696" y="948.106" fill="#000" font-size="13" textLength="18.091" font-weight="700">15</text><text x="1713.787" y="948.106" fill="#000" font-size="13" textLength="257.747">hand off for async validation (ADR-023)</text><polygon points="1390.053,978.305,1380.053,982.305,1390.053,986.305,1386.053,982.305" fill="#181818" style="stroke:#181818;stroke-width:1;stroke-linejoin:miter;stroke-miterlimit:10;"/><line x1="1384.053" y1="982.305" x2="1987.533" y2="982.305" style="stroke:#181818;stroke-width:1;"/><text x="1396.053" y="977.239" fill="#000" font-size="13" textLength="18.091" font-weight="700">16</text><text x="1418.144" y="977.239" fill="#000" font-size="13" textLength="392.101">get schema for schemaVersion (or active version if omitted)</text><polygon points="2381.499,1007.438,2391.499,1011.438,2381.499,1015.438,2385.499,1011.438" fill="#181818" style="stroke:#181818;stroke-width:1;stroke-linejoin:miter;stroke-miterlimit:10;"/><line x1="1988.533" y1="1011.438" x2="2387.499" y2="1011.438" style="stroke:#181818;stroke-width:1;"/><text x="1995.533" y="1006.372" fill="#000" font-size="13" textLength="18.091" font-weight="700">17</text><text x="2017.624" y="1006.372" fill="#000" font-size="13" textLength="173.088">validate(payload, schema)</text><path d="M1972.533,1023.438 L2036.976,1023.438 L2036.976,1030.57 L2026.976,1040.57 L1972.533,1040.57 L1972.533,1023.438" style="stroke:#000;stroke-width:1.5;" fill="#EEE"/><rect x="1972.533" y="1023.438" width="625.075" height="176.602" fill="none" style="stroke:#000;stroke-width:1.5;"/><text x="1987.533" y="1036.504" fill="#000" font-size="13" textLength="19.443" font-weight="700">alt</text><text x="2051.976" y="1035.648" fill="#000" font-size="11" textLength="438.765" font-weight="700">[schemaVersion unknown, or payload violates schema, or upcast fails]</text><polygon points="2569.608,1082.836,2579.608,1086.836,2569.608,1090.836,2573.608,1086.836" fill="#181818" style="stroke:#181818;stroke-width:1;stroke-linejoin:miter;stroke-miterlimit:10;"/><line x1="1988.533" y1="1086.836" x2="2575.608" y2="1086.836" style="stroke:#181818;stroke-width:1;"/><text x="1995.533" y="1074.204" fill="#000" font-size="13" textLength="18.091" font-weight="700">18</text><text x="2017.624" y="1066.637" fill="#000" font-size="13" textLength="402.937">UPDATE StoredEvent SET SchemaStatus = 'unknown'|'invalid'</text><text x="2017.624" y="1081.77" fill="#000" font-size="13" textLength="457.869">(known properties still fold to Extensions, ADR-022; never re-rejected)</text><line x1="1972.533" y1="1095.836" x2="2597.608" y2="1095.836" style="stroke:#000;stroke-width:1;stroke-dasharray:2,2;"/><text x="1977.533" y="1108.046" fill="#000" font-size="11" textLength="315.648" font-weight="700">[payload conformant against the resolved version]</text><line x1="1988.533" y1="1134.773" x2="2030.533" y2="1134.773" style="stroke:#181818;stroke-width:1;"/><line x1="2030.533" y1="1134.773" x2="2030.533" y2="1147.773" style="stroke:#181818;stroke-width:1;"/><line x1="1989.533" y1="1147.773" x2="2030.533" y2="1147.773" style="stroke:#181818;stroke-width:1;"/><polygon points="1999.533,1143.773,1989.533,1147.773,1999.533,1151.773,1995.533,1147.773" fill="#181818" style="stroke:#181818;stroke-width:1;stroke-linejoin:miter;stroke-miterlimit:10;"/><text x="1995.533" y="1129.708" fill="#000" font-size="13" textLength="18.091" font-weight="700">19</text><text x="2017.624" y="1129.708" fill="#000" font-size="13" textLength="368.875">resolve EntityId from uniqueId + EntityIdField (ADR-021)</text><polygon points="2569.608,1188.039,2579.608,1192.039,2569.608,1196.039,2573.608,1192.039" fill="#181818" style="stroke:#181818;stroke-width:1;stroke-linejoin:miter;stroke-miterlimit:10;"/><line x1="1988.533" y1="1192.039" x2="2575.608" y2="1192.039" style="stroke:#181818;stroke-width:1;"/><text x="1995.533" y="1179.407" fill="#000" font-size="13" textLength="18.091" font-weight="700">20</text><text x="2017.624" y="1171.84" fill="#000" font-size="13" textLength="368.666">UPDATE StoredEvent SET SchemaStatus = 'conformant',</text><text x="2017.624" y="1186.973" fill="#000" font-size="13" textLength="438.731">Status = 'applied', EntityId = &lt;resolved> -- folded into Entity Store</text><?plantuml-src fLPBSnf74BxpAxfq25260ZrSbH1RBaKcPLoEJ0aI7q8Emsw39XfcrZEpI1l5_pqzhsLN8fL33XAxi_tu-klNiD8gMUxMg3iiiqh3oRnS2sxkkDp2eZ8MToV031JXbCGAfYtFUC6aXPEPNAl7bUpvtwdC2yMb7S3L-zlX-EoyxrKn7hSrhqfxHueVlopX9sGQDRm2awa2eL22PrNGPIJLrbjaTxXZjxZbnkhgMd2Krelgrb5RQKuEfFt4vVq2zPvd66AgJzlIqpqTNnK50KSTOCINjjojAYrg2eAPIcQmPuBdp78bdn6WlTonC7whLPgueY6bE_IVhPd1Y0c-Ww072_eQXFDrfrCd1uQNDTqJc7zUB64KFuwUq9aOsgh0Rolfw5UQ_-MTJr8Atb0wBbVoYJBXuQ4sFfo2LKAnV10fys1ckNat00oFz5HA_hL4UeHldOJ1uN4fdAIO4AowHqcvzefc4j75rB-2M7t3d6lC73QunQyblUJNWl6TWPwdTlpzQFnwtEymOM77ZQ5g7N7fdGGF7V2EOKW8QdecS34-xQ0WGXkYWsGXW1Xbpj6_wfy7VHRvmvmac-6sot02kK83JUxXZkr9NrPH52ass0UcWLbWGhnptYcoWnP8UjOD3PA0PxvUOhs8R9sT1nXIMSYKCsJlk25v-YLZmDsdbGn97r7bptAIanOVBL44XGDd2DcMSUb-FSY-2znHqGYZPzGEws3maSvDtqEjmo7JfYmAGXnYQBENhoUmc7wQNYz3YUUXxhzycDvE8POTlAqjXV1EJ_lHbFEoKQMaIfs7alt0gBXsp59e9WerFROPEnkVGO_dk2kKTMur5e9Le3QE9w1qRxbaOYKrca992fqOb8foym0FcbiSkBTDgHshZN6Gq7csZi3B-MP3bFqdl8ln3z1BeJEXaUKLb8PuV-0scN6uVUwaxHy8xZH_jpIG2b1Ik19an4mEV5DpojO6tGodNP0IDLoNTaZ5C_JWZwJjC4aFdTvhpmeNidi_ZBnVL8vzHw6nN0XmC_HEAwbAchSoXxLGsRthojZnhvj9NbZDC-lbN2UrND4aeWGfiQyh31e0Nv8wXWWrKE2xn0VgiDryNZeQA3sOOxwIwohDzW4OnF1oUjwbDQSrKKRpMc0huNFKVhxiqNDAdHFHk9KLOFeFL3hn_4WXNDOhQ1AVUit--7rXcItDX2ncoBt5i2ZIkIo56ApaL5fkgraU3luOX9QQ9pZgmVHhvybXQilPpM9wkwGMfvm8ckEQISFyYFP9PEA1LOQuoZB4t51vPUW2CkWOMKcNgX3Va91bzmvZ66fRAfQSvEFI6QNnuGk9uDP3x1YsbmtyHEMlDGfVOpFoOY879ucS4rfRBI86QVQrw4eptbRf-8HHS8Nr5Woj9QGOR_pbYNRU4Tuku-gVqCodyDLcGuL59V3ikd0amA1tR9ziqKQYlAtMeeQUiquvsH-6C7Mssd5Be8zPhwyQhRwDopxORh0kx3D_fRoNwa7w-ergiEUAkATj4qJzjxB862sE3UFYKDrD7Ax0Vfs_lrfEMtD_CLss2fb6VpVwxFxTZGk_IpSmVmI5flrDbopdtC-KZH9koSFqaUQXGspIrUpintgb3ZN-INUD9a6-SLD0D4s9wPsxjgKDwDP1Qjx4zD6uKlwZCAG6X8rMk_hAHFUUzE5dZYBjjRFJ_lybwu2zIqL-E6TXi7S71qHluKqAwT8rjEFERGRf-FD2mLjpEXrTCEu__Vq3?></g></svg>