<svg xmlns="http://www.w3.org/2000/svg" xmlns:xlink="http://www.w3.org/1999/xlink" version="1.1" data-diagram-type="STATE" style="width:981px;height:760px;background:#FFFFFF;" width="981px" height="760px" viewBox="0 0 981 760" zoomAndPan="magnify" preserveAspectRatio="none" contentStyleType="text/css"><?plantuml 1.2026.7?><defs/><g font-family="sans-serif" lengthAdjust="spacing"><g class="entity" data-qualified-name="ConsentPending" id="ent0001" data-source-line="4"><rect x="377.13" y="260" width="218.919" height="68.891" fill="#F1F1F1" style="stroke:#181818;stroke-width:0.5;" rx="12.5" ry="12.5"/><line x1="377.13" y1="286.297" x2="596.049" y2="286.297" style="stroke:#181818;stroke-width:0.5;"/><text x="429.615" y="277.995" fill="#000" font-size="14" textLength="113.948">ConsentPending</text><text x="382.13" y="304.292" fill="#000" font-size="14" textLength="198.919">visible only in the Live View,</text><text x="382.13" y="320.589" fill="#000" font-size="14" textLength="145.024">isAuthoritative: false</text></g><g class="entity" data-qualified-name="Enrolled" id="ent0002" data-source-line="12"><rect x="64.64" y="420.89" width="249.913" height="85.188" fill="#F1F1F1" style="stroke:#181818;stroke-width:0.5;" rx="12.5" ry="12.5"/><line x1="64.64" y1="447.187" x2="314.553" y2="447.187" style="stroke:#181818;stroke-width:0.5;"/><text x="160.937" y="438.885" fill="#000" font-size="14" textLength="57.319">Enrolled</text><text x="69.64" y="465.182" fill="#000" font-size="14" textLength="194.503">AuthorityStatus = accepted</text><text x="69.64" y="481.479" fill="#000" font-size="14" textLength="197.285">folded into the authoritative</text><text x="69.64" y="497.776" fill="#000" font-size="14" textLength="229.913">Entity Store (catch-up, ADR-042)</text></g><g class="start_entity" data-qualified-name=".start." id="ent0003" data-source-line="1"><ellipse cx="486.59" cy="16" rx="10" ry="10" fill="#222" style="stroke:#222;stroke-width:1;"/></g><g class="entity" data-qualified-name="Screened" id="ent0004" data-source-line="1"><rect x="443.62" y="118" width="85.939" height="50" fill="#F1F1F1" style="stroke:#181818;stroke-width:0.5;" rx="12.5" ry="12.5"/><line x1="443.62" y1="144.297" x2="529.559" y2="144.297" style="stroke:#181818;stroke-width:0.5;"/><text x="453.62" y="135.995" fill="#000" font-size="14" textLength="65.939">Screened</text></g><g class="entity" data-qualified-name="StepUpChallenged" id="ent0007" data-source-line="6"><rect x="568.65" y="438.49" width="149.89" height="50" fill="#F1F1F1" style="stroke:#181818;stroke-width:0.5;" rx="12.5" ry="12.5"/><line x1="568.65" y1="464.787" x2="718.54" y2="464.787" style="stroke:#181818;stroke-width:0.5;"/><text x="578.65" y="456.485" fill="#000" font-size="14" textLength="129.89">StepUpChallenged</text></g><g class="entity" data-qualified-name="Withdrawn" id="ent0012" data-source-line="14"><rect x="91.77" y="613.08" width="95.64" height="50" fill="#F1F1F1" style="stroke:#181818;stroke-width:0.5;" rx="12.5" ry="12.5"/><line x1="91.77" y1="639.377" x2="187.41" y2="639.377" style="stroke:#181818;stroke-width:0.5;"/><text x="101.77" y="631.075" fill="#000" font-size="14" textLength="75.64">Withdrawn</text></g><g class="end_entity" data-qualified-name=".end." id="ent0014" data-source-line="15"><ellipse cx="308.59" cy="735.08" rx="11" ry="11" fill="none" style="stroke:#222;stroke-width:1;"/><ellipse cx="308.59" cy="735.08" rx="6" ry="6" fill="#222" style="stroke:#222;stroke-width:1;"/></g><!--link *start* to Screened--><g class="link" data-entity-1="ent0003" data-entity-2="ent0004" id="lnk5" data-source-line="1" data-link-type="dependency"><path d="M486.59,26.4 C486.59,45.59 486.59,84.82 486.59,112.67" style="stroke:#181818;stroke-width:1;" fill="none" id="*start*-to-Screened"/><polygon points="486.59,117.67,490.59,108.67,486.59,112.67,482.59,108.67,486.59,117.67" fill="#181818" style="stroke:#181818;stroke-width:1;stroke-linejoin:miter;stroke-miterlimit:10;"/><text x="533.922" y="69.067" fill="#000" font-size="13" textLength="228.998">PatientScreened (ordinary capture,</text><text x="487.59" y="84.2" fill="#000" font-size="13" textLength="321.661">AuthorityStatus accepted immediately, ADR-042)</text></g><!--link Screened to ConsentPending--><g class="link" data-entity-1="ent0004" data-entity-2="ent0001" id="lnk6" data-source-line="3" data-link-type="dependency"><path d="M486.59,168.35 C486.59,193.16 486.59,226.84 486.59,254.63" style="stroke:#181818;stroke-width:1;" fill="none" id="Screened-to-ConsentPending"/><polygon points="486.59,259.63,490.59,250.63,486.59,254.63,482.59,250.63,486.59,259.63" fill="#181818" style="stroke:#181818;stroke-width:1;stroke-linejoin:miter;stroke-miterlimit:10;"/><text x="558.052" y="211.067" fill="#000" font-size="13" textLength="172.466">InformedConsentCaptured</text><text x="487.59" y="226.2" fill="#000" font-size="13" textLength="313.39">(AuthorityStatus pending_review, ADR-035/042)</text></g><!--link ConsentPending to StepUpChallenged--><g class="link" data-entity-1="ent0001" data-entity-2="ent0007" id="lnk8" data-source-line="6" data-link-type="dependency"><path d="M476.52,329.36 C472.81,348.85 471.96,372.95 483.59,390.89 C502.54,420.13 531.794,435.998 563.594,446.308" style="stroke:#181818;stroke-width:1;" fill="none" id="ConsentPending-to-StepUpChallenged"/><polygon points="568.35,447.85,561.022,441.269,563.594,446.308,558.555,448.879,568.35,447.85" fill="#181818" style="stroke:#181818;stroke-width:1;stroke-linejoin:miter;stroke-miterlimit:10;"/><text x="529.544" y="371.957" fill="#000" font-size="13" textLength="182.692">PI submits ConsentApproval</text><text x="484.59" y="387.09" fill="#000" font-size="13" textLength="272.6">without sufficient acr/max_age (ADR-066)</text></g><!--link StepUpChallenged to ConsentPending--><g class="link" data-entity-1="ent0007" data-entity-2="ent0001" id="lnk9" data-source-line="7" data-link-type="dependency"><path d="M705.62,437.99 C745.64,418.55 786.03,389.61 761.59,358.89 C740.73,332.68 668.641,317.059 601.391,307.559" style="stroke:#181818;stroke-width:1;" fill="none" id="StepUpChallenged-to-ConsentPending"/><polygon points="596.44,306.86,604.792,312.08,601.391,307.559,605.911,304.158,596.44,306.86" fill="#181818" style="stroke:#181818;stroke-width:1;stroke-linejoin:miter;stroke-miterlimit:10;"/><text x="777.903" y="371.957" fill="#000" font-size="13" textLength="179.912">RFC 9470 challenge issued,</text><text x="770.01" y="387.09" fill="#000" font-size="13" textLength="195.698">event never stored (ADR-066)</text></g><!--link ConsentPending to Enrolled--><g class="link" data-entity-1="ent0001" data-entity-2="ent0002" id="lnk10" data-source-line="9" data-link-type="dependency"><path d="M376.79,308.24 C309.9,318.31 232.94,334.72 209.59,358.89 C194,375.03 189.041,394.448 187.811,415.528" style="stroke:#181818;stroke-width:1;" fill="none" id="ConsentPending-to-Enrolled"/><polygon points="187.52,420.52,192.037,411.768,187.811,415.528,184.051,411.302,187.52,420.52" fill="#181818" style="stroke:#181818;stroke-width:1;stroke-linejoin:miter;stroke-miterlimit:10;"/><text x="241.516" y="371.957" fill="#000" font-size="13" textLength="193.28">ConsentApproval "approved",</text><text x="210.59" y="387.09" fill="#000" font-size="13" textLength="255.131">with valid step-up Signature (ADR-066)</text></g><!--link ConsentPending to ConsentPending--><g class="link" data-entity-1="ent0001" data-entity-2="ent0001" id="lnk11" data-source-line="10" data-link-type="dependency"><path d="M596.51,280.16 C616.79,281.95 631.05,286.71 631.05,294.45 C631.05,302.19 621.771,306.513 601.491,308.293" style="stroke:#181818;stroke-width:1;" fill="none" id="ConsentPending-to-ConsentPending"/><polygon points="596.51,308.73,605.825,311.928,601.491,308.293,605.126,303.958,596.51,308.73" fill="#181818" style="stroke:#181818;stroke-width:1;stroke-linejoin:miter;stroke-miterlimit:10;"/><text x="653.662" y="284.017" fill="#000" font-size="13" textLength="194.397">ConsentApproval "rejected" --</text><text x="637.05" y="299.15" fill="#000" font-size="13" textLength="227.621">stays ConsentPending; coordinator</text><text x="672.924" y="314.283" fill="#000" font-size="13" textLength="155.873">must recapture consent</text></g><!--link Enrolled to Withdrawn--><g class="link" data-entity-1="ent0002" data-entity-2="ent0012" id="lnk13" data-source-line="14" data-link-type="dependency"><path d="M64.28,495.6 C45.83,505.57 29.17,518.72 17.59,536.08 C6,553.46 6.2,565.57 17.59,583.08 C33.89,608.12 59.916,620.325 86.516,627.575" style="stroke:#181818;stroke-width:1;" fill="none" id="Enrolled-to-Withdrawn"/><polygon points="91.34,628.89,83.709,622.664,86.516,627.575,81.605,630.383,91.34,628.89" fill="#181818" style="stroke:#181818;stroke-width:1;stroke-linejoin:miter;stroke-miterlimit:10;"/><text x="89.309" y="549.147" fill="#000" font-size="13" textLength="173.38">subject withdraws consent</text><text x="30.622" y="564.28" fill="#000" font-size="13" textLength="290.754">(see trial-data-export-and-subject-rights.md,</text><text x="18.59" y="579.413" fill="#000" font-size="13" textLength="314.818">a DIFFERENT subject in that doc's own scenario)</text></g><!--link Withdrawn to *end*--><g class="link" data-entity-1="ent0012" data-entity-2="ent0014" id="lnk15" data-source-line="15" data-link-type="dependency"><path d="M183.11,663.54 C222.43,685.65 273.002,714.07 294.792,726.32" style="stroke:#181818;stroke-width:1;" fill="none" id="Withdrawn-to-*end*"/><polygon points="299.15,728.77,293.265,720.873,294.792,726.32,289.345,727.846,299.15,728.77" fill="#181818" style="stroke:#181818;stroke-width:1;stroke-linejoin:miter;stroke-miterlimit:10;"/></g><!--link Enrolled to *end*--><g class="link" data-entity-1="ent0002" data-entity-2="ent0014" id="lnk16" data-source-line="16" data-link-type="dependency"><path d="M309.52,506.49 C320.56,514.7 330.31,524.47 337.59,536.08 C377.09,599.07 332.702,690.73 316.282,720.55" style="stroke:#181818;stroke-width:1;" fill="none" id="Enrolled-to-*end*"/><polygon points="313.87,724.93,321.715,718.976,316.282,720.55,314.707,715.117,313.87,724.93" fill="#181818" style="stroke:#181818;stroke-width:1;stroke-linejoin:miter;stroke-miterlimit:10;"/></g><?plantuml-src RLFVRzf037xFNs7nCgZ8McrTftNQ94H1Gfgc2hRkeQagzyx0JSbTTEU4yj_F5qBAWAT4ZltziByyNZn1cdw7XV94bZJSmZso8SjTfU-yDXRz5XIMN7aQPdPKyTfvmzi58rS1K2agMPfDKP0so9HlXp2wcwTNrny6ITA1HQwniq48xiaAxaeOPtRflCor7yOx6ftP_Z5FkPjvzbGRshGC7pzTDYmdkBK9vYKdS3RVWh70Qu8VfYPuYCEPDM6FBvPhkeKbve6IOw1cFqpbxtAynZmdkzhjQGQXUYaCXxsZKLbwLsEUsOqHt8gbORaqAgvJLkGl2tnznXL1lz5zSpD8Jd3FBcW-7SENwyzNeFQDO4AeI8i9gYDwV7W8x7oyM0T_pih4UYSWqSAHRkXXyqQwDznv0AaQBRXKfbK92xEo66zpG766uKJ_2O-dlwGaBptfpsnWt8QZgQ-Wt2vuuYcpHHKOFBK9b6zDRv8Sc3dEohSkbOTTIvVhc5FBhia37YOWinFBWY3dTj6aGbPhCNuGvGug6lqZAz8UDrQ09GlH4spQMjYBb1W78c1lC4yrCgRqMZhFALgTjbEfDwirX_T5l2Z2tMmwdSmdFtzrg4rwaK4xzIw04yQWI7vAumR9cugewV7YwN-HKlW7?></g></svg>