<svg xmlns="http://www.w3.org/2000/svg" xmlns:xlink="http://www.w3.org/1999/xlink" version="1.1" data-diagram-type="SALT" style="width:1388px;height:116px;background:#FFFFFF;" width="1388px" height="116px" viewBox="0 0 1388 116" zoomAndPan="magnify" preserveAspectRatio="none" contentStyleType="text/css"><?plantuml 1.2026.7?><defs/><g font-family="sans-serif" lengthAdjust="spacing"><text x="10" y="18.139" fill="#000" font-size="12" textLength="334.852">Specimen Record -- did:key:z6Mk...researcher's session</text><line x1="8" y1="20.969" x2="443" y2="20.969" style="stroke:#000;stroke-width:1;"/><line x1="8" y1="17.969" x2="8" y2="19.969" style="stroke:#000;stroke-width:1;"/><line x1="443" y1="17.969" x2="443" y2="19.969" style="stroke:#000;stroke-width:1;"/><line x1="6" y1="29.469" x2="511" y2="29.469" style="stroke:#AAA;stroke-width:1;stroke-dasharray:1,2;"/><text x="10" y="46.107" fill="#000" font-size="12" textLength="241.447">Query: biobank:Specimen:spec-001-dna</text><line x1="8" y1="48.938" x2="299" y2="48.938" style="stroke:#000;stroke-width:1;"/><line x1="8" y1="45.938" x2="8" y2="47.938" style="stroke:#000;stroke-width:1;"/><line x1="299" y1="45.938" x2="299" y2="47.938" style="stroke:#000;stroke-width:1;"/><text x="6" y="65.076" fill="#000" font-size="12" textLength="51.252">Property</text><text x="512" y="65.076" fill="#000" font-size="12" textLength="33.885">Value</text><text x="547.885" y="65.076" fill="#000" font-size="12" textLength="88.658">SpecimenType</text><text x="641.543" y="65.076" fill="#000" font-size="12" textLength="73.219">DNA Extract</text><line x1="639.543" y1="67.906" x2="730.543" y2="67.906" style="stroke:#000;stroke-width:1;"/><line x1="639.543" y1="64.906" x2="639.543" y2="66.906" style="stroke:#000;stroke-width:1;"/><line x1="730.543" y1="64.906" x2="730.543" y2="66.906" style="stroke:#000;stroke-width:1;"/><text x="734.543" y="65.076" fill="#000" font-size="12" textLength="97.693">DonorReference</text><text x="834.236" y="65.076" fill="#000" font-size="12" textLength="357.375">"donor-77"  ( unmasked -- entityScope matches this grant )</text><text x="1193.611" y="65.076" fill="#000" font-size="12" textLength="88.037">CollectionDate</text><text x="1286.648" y="65.076" fill="#000" font-size="12" textLength="69.738">2026-07-03</text><line x1="1284.648" y1="67.906" x2="1367.648" y2="67.906" style="stroke:#000;stroke-width:1;"/><line x1="1284.648" y1="64.906" x2="1284.648" y2="66.906" style="stroke:#000;stroke-width:1;"/><line x1="1367.648" y1="64.906" x2="1367.648" y2="66.906" style="stroke:#000;stroke-width:1;"/><line x1="1371.648" y1="62.422" x2="1382.648" y2="62.422" style="stroke:#AAA;stroke-width:1;stroke-dasharray:1,2;"/><text x="10" y="84.045" fill="#000" font-size="12" textLength="214.541">Query: biobank:Specimen:spec-002</text><line x1="8" y1="86.875" x2="267" y2="86.875" style="stroke:#000;stroke-width:1;"/><line x1="8" y1="83.875" x2="8" y2="85.875" style="stroke:#000;stroke-width:1;"/><line x1="267" y1="83.875" x2="267" y2="85.875" style="stroke:#000;stroke-width:1;"/><text x="10" y="104.014" fill="#000" font-size="12" textLength="375.287">403 -- clearance:specimen-data does not apply to this EntityId</text><line x1="8" y1="106.844" x2="507" y2="106.844" style="stroke:#000;stroke-width:1;"/><line x1="8" y1="103.844" x2="8" y2="105.844" style="stroke:#000;stroke-width:1;"/><line x1="507" y1="103.844" x2="507" y2="105.844" style="stroke:#000;stroke-width:1;"/><?plantuml-src ZP4_JyCm4CNtV8fJ5c2mbQQeaJ8LaGuC86WH-zK-Q9J4ZkoBH6ZxtN7-TApKcophVa_llLjxHiSUQuwE4S0HubrBgcp8m9QKTHg405tglA8-_rkzLb9AHvxGgGEvEm-Ul2-jYU4SS2adZO-EN9_3lhHxD5L-aSnzU8WaMGXjS29EyEviIuvxcES4NrXt15VdD68NpS--fPcBYxSdsFooGyNnDQwmnhejVPCZesZYzF0diYn0zz2P1dr5Ot0oN7A_Ky4XDCWXiWS-b1v-71g6XrdpsTOrAGur5CYpPfgaAv5a8bd6rqBSs5OwDHKM7vFbu4hLeNuCxiUDOLLeP0HjWprZ6R1jwnxOJbutOuWNFSYSepKPFPuxMiZ1eyp-0G00?></g></svg>