<svg xmlns="http://www.w3.org/2000/svg" xmlns:xlink="http://www.w3.org/1999/xlink" version="1.1" data-diagram-type="SEQUENCE" style="width:2133px;height:898px;background:#FFFFFF;" width="2133px" height="898px" viewBox="0 0 2133 898" zoomAndPan="magnify" preserveAspectRatio="none" contentStyleType="text/css"><?plantuml 1.2026.7?><defs/><g font-family="sans-serif" lengthAdjust="spacing"><rect x="681.829" y="525.258" width="1432.067" height="245.266" fill="none" style="stroke:#000;stroke-width:1.5;"/><g><title>Publishing System</title><rect x="78.526" y="102.594" width="8" height="146.797" fill="#000" fill-opacity="0"/><line x1="82.026" y1="102.594" x2="82.026" y2="249.391" style="stroke:#181818;stroke-width:0.5;stroke-dasharray:5,5;"/></g><line x1="82.026" y1="249.391" x2="82.026" y2="290.195" style="stroke:#181818;stroke-width:0.5;stroke-dasharray:1,4;"/><g><title>Publishing System</title><rect x="78.526" y="290.195" width="8" height="504.328" fill="#000" fill-opacity="0"/><line x1="82.026" y1="290.195" x2="82.026" y2="794.523" style="stroke:#181818;stroke-width:0.5;stroke-dasharray:5,5;"/></g><g><title>PublishEndpoint</title><rect x="545.765" y="102.594" width="8" height="146.797" fill="#000" fill-opacity="0"/><line x1="549.265" y1="102.594" x2="549.265" y2="249.391" style="stroke:#181818;stroke-width:0.5;stroke-dasharray:5,5;"/></g><line x1="549.265" y1="249.391" x2="549.265" y2="290.195" style="stroke:#181818;stroke-width:0.5;stroke-dasharray:1,4;"/><g><title>PublishEndpoint</title><rect x="545.765" y="290.195" width="8" height="504.328" fill="#000" fill-opacity="0"/><line x1="549.265" y1="290.195" x2="549.265" y2="794.523" style="stroke:#181818;stroke-width:0.5;stroke-dasharray:5,5;"/></g><g><title>RouterWorker</title><rect x="694.329" y="102.594" width="8" height="146.797" fill="#000" fill-opacity="0"/><line x1="697.829" y1="102.594" x2="697.829" y2="249.391" style="stroke:#181818;stroke-width:0.5;stroke-dasharray:5,5;"/></g><line x1="697.829" y1="249.391" x2="697.829" y2="290.195" style="stroke:#181818;stroke-width:0.5;stroke-dasharray:1,4;"/><g><title>RouterWorker</title><rect x="694.329" y="290.195" width="8" height="504.328" fill="#000" fill-opacity="0"/><line x1="697.829" y1="290.195" x2="697.829" y2="794.523" style="stroke:#181818;stroke-width:0.5;stroke-dasharray:5,5;"/></g><g><title>UpcastChain</title><rect x="1090.618" y="102.594" width="8" height="146.797" fill="#000" fill-opacity="0"/><line x1="1094.118" y1="102.594" x2="1094.118" y2="249.391" style="stroke:#181818;stroke-width:0.5;stroke-dasharray:5,5;"/></g><line x1="1094.118" y1="249.391" x2="1094.118" y2="290.195" style="stroke:#181818;stroke-width:0.5;stroke-dasharray:1,4;"/><g><title>UpcastChain</title><rect x="1090.618" y="290.195" width="8" height="504.328" fill="#000" fill-opacity="0"/><line x1="1094.118" y1="290.195" x2="1094.118" y2="794.523" style="stroke:#181818;stroke-width:0.5;stroke-dasharray:5,5;"/></g><g><title>IUpcastExpressionEvaluator</title><rect x="1478.701" y="102.594" width="8" height="146.797" fill="#000" fill-opacity="0"/><line x1="1482.201" y1="102.594" x2="1482.201" y2="249.391" style="stroke:#181818;stroke-width:0.5;stroke-dasharray:5,5;"/></g><line x1="1482.201" y1="249.391" x2="1482.201" y2="290.195" style="stroke:#181818;stroke-width:0.5;stroke-dasharray:1,4;"/><g><title>IUpcastExpressionEvaluator</title><rect x="1478.701" y="290.195" width="8" height="504.328" fill="#000" fill-opacity="0"/><line x1="1482.201" y1="290.195" x2="1482.201" y2="794.523" style="stroke:#181818;stroke-width:0.5;stroke-dasharray:5,5;"/></g><g><title>Event Log</title><rect x="1631.349" y="102.594" width="8" height="146.797" fill="#000" fill-opacity="0"/><line x1="1634.849" y1="102.594" x2="1634.849" y2="249.391" style="stroke:#181818;stroke-width:0.5;stroke-dasharray:5,5;"/></g><line x1="1634.849" y1="249.391" x2="1634.849" y2="290.195" style="stroke:#181818;stroke-width:0.5;stroke-dasharray:1,4;"/><g><title>Event Log</title><rect x="1631.349" y="290.195" width="8" height="504.328" fill="#000" fill-opacity="0"/><line x1="1634.849" y1="290.195" x2="1634.849" y2="794.523" style="stroke:#181818;stroke-width:0.5;stroke-dasharray:5,5;"/></g><text x="14.799" y="82.995" fill="#000" font-size="14" textLength="128.454">Publishing System</text><text x="10" y="99.292" fill="#000" font-size="14" textLength="138.052">(still on schema v1)</text><ellipse cx="82.026" cy="18.5" rx="8" ry="8" fill="#E2E2F0" style="stroke:#181818;stroke-width:0.5;"/><path d="M82.026,26.5 L82.026,53.5 M69.026,34.5 L95.026,34.5 M82.026,53.5 L69.026,68.5 M82.026,53.5 L95.026,68.5" style="stroke:#181818;stroke-width:0.5;" fill="none"/><rect x="482.054" y="55" width="134.422" height="46.594" fill="#E2E2F0" style="stroke:#181818;stroke-width:0.5;" rx="2.5" ry="2.5"/><text x="493.036" y="74.995" fill="#000" font-size="14" textLength="112.458">PublishEndpoint</text><text x="489.054" y="91.292" fill="#000" font-size="14" textLength="120.422">(Inbox, ADR-023)</text><rect x="626.476" y="55" width="142.707" height="46.594" fill="#E2E2F0" style="stroke:#181818;stroke-width:0.5;" rx="2.5" ry="2.5"/><text x="648.997" y="74.995" fill="#000" font-size="14" textLength="97.665">RouterWorker</text><text x="633.476" y="91.292" fill="#000" font-size="14" textLength="128.707">(Router, ADR-023)</text><rect x="1043.026" y="55" width="102.184" height="46.594" fill="#E2E2F0" style="stroke:#181818;stroke-width:0.5;" rx="2.5" ry="2.5"/><text x="1050.026" y="74.995" fill="#000" font-size="14" textLength="88.184">UpcastChain</text><text x="1057.727" y="91.292" fill="#000" font-size="14" textLength="72.782">(ADR-018)</text><rect x="1377.458" y="55" width="209.487" height="46.594" fill="#E2E2F0" style="stroke:#181818;stroke-width:0.5;" rx="2.5" ry="2.5"/><text x="1384.458" y="74.995" fill="#000" font-size="14" textLength="195.487">IUpcastExpressionEvaluator</text><text x="1390.483" y="91.292" fill="#000" font-size="14" textLength="183.436">(CEL by default, ADR-053)</text><text x="1596.945" y="99.292" fill="#000" font-size="14" textLength="69.809">Event Log</text><path d="M1616.849,50.297 C1616.849,40.297 1634.849,40.297 1634.849,40.297 C1634.849,40.297 1652.849,40.297 1652.849,50.297 L1652.849,76.297 C1652.849,86.297 1634.849,86.297 1634.849,86.297 C1634.849,86.297 1616.849,86.297 1616.849,76.297 L1616.849,50.297" style="stroke:#181818;stroke-width:0.5;" fill="#E2E2F0"/><path d="M1616.849,50.297 C1616.849,60.297 1634.849,60.297 1634.849,60.297 C1634.849,60.297 1652.849,60.297 1652.849,50.297" style="stroke:#181818;stroke-width:0.5;" fill="none"/><text x="14.799" y="807.519" fill="#000" font-size="14" textLength="128.454">Publishing System</text><text x="10" y="823.815" fill="#000" font-size="14" textLength="138.052">(still on schema v1)</text><ellipse cx="82.026" cy="835.617" rx="8" ry="8" fill="#E2E2F0" style="stroke:#181818;stroke-width:0.5;"/><path d="M82.026,843.617 L82.026,870.617 M69.026,851.617 L95.026,851.617 M82.026,870.617 L69.026,885.617 M82.026,870.617 L95.026,885.617" style="stroke:#181818;stroke-width:0.5;" fill="none"/><rect x="482.054" y="794.523" width="134.422" height="46.594" fill="#E2E2F0" style="stroke:#181818;stroke-width:0.5;" rx="2.5" ry="2.5"/><text x="493.036" y="814.519" fill="#000" font-size="14" textLength="112.458">PublishEndpoint</text><text x="489.054" y="830.815" fill="#000" font-size="14" textLength="120.422">(Inbox, ADR-023)</text><rect x="626.476" y="794.523" width="142.707" height="46.594" fill="#E2E2F0" style="stroke:#181818;stroke-width:0.5;" rx="2.5" ry="2.5"/><text x="648.997" y="814.519" fill="#000" font-size="14" textLength="97.665">RouterWorker</text><text x="633.476" y="830.815" fill="#000" font-size="14" textLength="128.707">(Router, ADR-023)</text><rect x="1043.026" y="794.523" width="102.184" height="46.594" fill="#E2E2F0" style="stroke:#181818;stroke-width:0.5;" rx="2.5" ry="2.5"/><text x="1050.026" y="814.519" fill="#000" font-size="14" textLength="88.184">UpcastChain</text><text x="1057.727" y="830.815" fill="#000" font-size="14" textLength="72.782">(ADR-018)</text><rect x="1377.458" y="794.523" width="209.487" height="46.594" fill="#E2E2F0" style="stroke:#181818;stroke-width:0.5;" rx="2.5" ry="2.5"/><text x="1384.458" y="814.519" fill="#000" font-size="14" textLength="195.487">IUpcastExpressionEvaluator</text><text x="1390.483" y="830.815" fill="#000" font-size="14" textLength="183.436">(CEL by default, ADR-053)</text><text x="1596.945" y="807.519" fill="#000" font-size="14" textLength="69.809">Event Log</text><path d="M1616.849,820.82 C1616.849,810.82 1634.849,810.82 1634.849,810.82 C1634.849,810.82 1652.849,810.82 1652.849,820.82 L1652.849,846.82 C1652.849,856.82 1634.849,856.82 1634.849,856.82 C1634.849,856.82 1616.849,856.82 1616.849,846.82 L1616.849,820.82" style="stroke:#181818;stroke-width:0.5;" fill="#E2E2F0"/><path d="M1616.849,820.82 C1616.849,830.82 1634.849,830.82 1634.849,830.82 C1634.849,830.82 1652.849,830.82 1652.849,820.82" style="stroke:#181818;stroke-width:0.5;" fill="none"/><polygon points="537.265,142.859,547.265,146.859,537.265,150.859,541.265,146.859" fill="#181818" style="stroke:#181818;stroke-width:1;stroke-linejoin:miter;stroke-miterlimit:10;"/><line x1="82.026" y1="146.859" x2="543.265" y2="146.859" style="stroke:#181818;stroke-width:1;"/><text x="89.026" y="134.227" fill="#000" font-size="13" font-weight="700">1</text><text x="102.071" y="126.661" fill="#000" font-size="13" textLength="174.123">POST /publish/OrderPlaced</text><text x="102.071" y="141.793" fill="#000" font-size="13" textLength="430.193">{ schemaVersion: 1, payload: { OrderId: "o-1", Amount: 42.00 } }</text><path d="M554.265,115.594 L554.265,155.594 L1063.265,155.594 L1063.265,125.594 L1053.265,115.594 L554.265,115.594" style="stroke:#181818;stroke-width:0.5;" fill="#FEFFDD"/><path d="M1053.265,115.594 L1053.265,125.594 L1063.265,125.594 L1053.265,115.594" style="stroke:#181818;stroke-width:0.5;" fill="#FEFFDD"/><text x="560.265" y="132.661" fill="#000" font-size="13" textLength="288.666">"demo:OrderPlaced" v2 is the active version</text><text x="560.265" y="147.793" fill="#000" font-size="13" textLength="488.782">(upcastFromPrevious "Amount, 'Unknown' as Status", schema-registry.md)</text><polygon points="1622.849,208.258,1632.849,212.258,1622.849,216.258,1626.849,212.258" fill="#181818" style="stroke:#181818;stroke-width:1;stroke-linejoin:miter;stroke-miterlimit:10;"/><line x1="549.265" y1="212.258" x2="1628.849" y2="212.258" style="stroke:#181818;stroke-width:1;"/><text x="556.265" y="192.059" fill="#000" font-size="13" font-weight="700">2</text><text x="569.31" y="176.926" fill="#000" font-size="13" textLength="131.27">INSERT StoredEvent</text><text x="569.31" y="192.059" fill="#000" font-size="13" textLength="386.788">(EventKind: Original, SchemaVersion: 1, Status: "received",</text><text x="569.31" y="207.192" fill="#000" font-size="13" textLength="442.508">Payload: { OrderId: "o-1", Amount: 42.00 } -- verbatim, unchanged)</text><polygon points="93.026,237.391,83.026,241.391,93.026,245.391,89.026,241.391" fill="#181818" style="stroke:#181818;stroke-width:1;stroke-linejoin:miter;stroke-miterlimit:10;"/><line x1="87.026" y1="241.391" x2="548.265" y2="241.391" style="stroke:#181818;stroke-width:1;stroke-dasharray:2,2;"/><text x="99.026" y="236.325" fill="#000" font-size="13" font-weight="700">3</text><text x="112.071" y="236.325" fill="#000" font-size="13" textLength="341.726">202 { status: "received" } -- unconditional, ADR-023</text><text x="767.698" y="273.601" fill="#000" font-size="11" textLength="181.479">next Router tick, asynchronously</text><polygon points="1622.849,307.328,1632.849,311.328,1622.849,315.328,1626.849,311.328" fill="#181818" style="stroke:#181818;stroke-width:1;stroke-linejoin:miter;stroke-miterlimit:10;"/><line x1="697.829" y1="311.328" x2="1628.849" y2="311.328" style="stroke:#181818;stroke-width:1;"/><text x="704.829" y="306.262" fill="#000" font-size="13" font-weight="700">4</text><text x="717.875" y="306.262" fill="#000" font-size="13" textLength="281.811">SELECT events WHERE Status = "received"</text><line x1="697.829" y1="355.594" x2="739.829" y2="355.594" style="stroke:#181818;stroke-width:1;"/><line x1="739.829" y1="355.594" x2="739.829" y2="368.594" style="stroke:#181818;stroke-width:1;"/><line x1="698.829" y1="368.594" x2="739.829" y2="368.594" style="stroke:#181818;stroke-width:1;"/><polygon points="708.829,364.594,698.829,368.594,708.829,372.594,704.829,368.594" fill="#181818" style="stroke:#181818;stroke-width:1;stroke-linejoin:miter;stroke-miterlimit:10;"/><text x="704.829" y="342.961" fill="#000" font-size="13" font-weight="700">5</text><text x="717.875" y="335.395" fill="#000" font-size="13" textLength="292.335">validate against the DECLARED version (1) --</text><text x="717.875" y="350.528" fill="#000" font-size="13" textLength="369.243">conformant; also schemaVersion (1) &lt; active version (2)</text><polygon points="1082.118,393.727,1092.118,397.727,1082.118,401.727,1086.118,397.727" fill="#181818" style="stroke:#181818;stroke-width:1;stroke-linejoin:miter;stroke-miterlimit:10;"/><line x1="697.829" y1="397.727" x2="1088.118" y2="397.727" style="stroke:#181818;stroke-width:1;"/><text x="704.829" y="392.661" fill="#000" font-size="13" font-weight="700">6</text><text x="717.875" y="392.661" fill="#000" font-size="13" textLength="296.626">upcast(payload, fromVersion: 1, toVersion: 2)</text><polygon points="1470.201,437.992,1480.201,441.992,1470.201,445.992,1474.201,441.992" fill="#181818" style="stroke:#181818;stroke-width:1;stroke-linejoin:miter;stroke-miterlimit:10;"/><line x1="1094.118" y1="441.992" x2="1476.201" y2="441.992" style="stroke:#181818;stroke-width:1;"/><text x="1101.118" y="429.36" fill="#000" font-size="13" font-weight="700">7</text><text x="1114.163" y="421.793" fill="#000" font-size="13" textLength="263.936">evaluate "Amount, 'Unknown' as Status"</text><text x="1114.163" y="436.926" fill="#000" font-size="13" textLength="272.568">against { OrderId: "o-1", Amount: 42.00 }</text><polygon points="1105.118,467.125,1095.118,471.125,1105.118,475.125,1101.118,471.125" fill="#181818" style="stroke:#181818;stroke-width:1;stroke-linejoin:miter;stroke-miterlimit:10;"/><line x1="1099.118" y1="471.125" x2="1481.201" y2="471.125" style="stroke:#181818;stroke-width:1;stroke-dasharray:2,2;"/><text x="1111.118" y="466.059" fill="#000" font-size="13" font-weight="700">8</text><text x="1124.163" y="466.059" fill="#000" font-size="13" textLength="351.038">{ OrderId: "o-1", Amount: 42.00, Status: "Unknown" }</text><line x1="1094.118" y1="500.258" x2="1136.118" y2="500.258" style="stroke:#181818;stroke-width:1;"/><line x1="1136.118" y1="500.258" x2="1136.118" y2="513.258" style="stroke:#181818;stroke-width:1;"/><line x1="1095.118" y1="513.258" x2="1136.118" y2="513.258" style="stroke:#181818;stroke-width:1;"/><polygon points="1105.118,509.258,1095.118,513.258,1105.118,517.258,1101.118,513.258" fill="#181818" style="stroke:#181818;stroke-width:1;stroke-linejoin:miter;stroke-miterlimit:10;"/><text x="1101.118" y="495.192" fill="#000" font-size="13" font-weight="700">9</text><text x="1114.163" y="495.192" fill="#000" font-size="13" textLength="268.449">validate result against v2's JSON Schema</text><path d="M681.829,525.258 L746.272,525.258 L746.272,532.391 L736.272,542.391 L681.829,542.391 L681.829,525.258" style="stroke:#000;stroke-width:1.5;" fill="#EEE"/><rect x="681.829" y="525.258" width="1432.067" height="245.266" fill="none" style="stroke:#000;stroke-width:1.5;"/><text x="696.829" y="538.325" fill="#000" font-size="13" textLength="19.443" font-weight="700">alt</text><text x="761.272" y="537.468" fill="#000" font-size="11" textLength="341.457" font-weight="700">[every hop parses, evaluates, and the result validates]</text><polygon points="1622.849,614.922,1632.849,618.922,1622.849,622.922,1626.849,618.922" fill="#181818" style="stroke:#181818;stroke-width:1;stroke-linejoin:miter;stroke-miterlimit:10;"/><line x1="697.829" y1="618.922" x2="1628.849" y2="618.922" style="stroke:#181818;stroke-width:1;"/><text x="704.829" y="591.157" fill="#000" font-size="13" textLength="18.091" font-weight="700">10</text><text x="726.92" y="568.458" fill="#000" font-size="13" textLength="131.27">INSERT StoredEvent</text><text x="726.92" y="583.59" fill="#000" font-size="13" textLength="350.581">(EventKind: UpcastMaterialization, SchemaVersion: 2,</text><text x="726.92" y="598.723" fill="#000" font-size="13" textLength="307.081">MaterializationOfEventId: &lt;original's EventId>,</text><text x="726.92" y="613.856" fill="#000" font-size="13" textLength="415.905">Payload: { OrderId: "o-1", Amount: 42.00, Status: "Unknown" })</text><path d="M1639.849,557.391 L1639.849,597.391 L2092.849,597.391 L2092.849,567.391 L2082.849,557.391 L1639.849,557.391" style="stroke:#181818;stroke-width:0.5;" fill="#FEFFDD"/><path d="M2082.849,557.391 L2082.849,567.391 L2092.849,567.391 L2082.849,557.391" style="stroke:#181818;stroke-width:0.5;" fill="#FEFFDD"/><text x="1645.849" y="574.458" fill="#000" font-size="13" textLength="310.127">the new row is what ADR-020 used to discard --</text><text x="1645.849" y="589.59" fill="#000" font-size="13" textLength="432.047">ADR-027 persists it instead of recomputing it on every future read</text><polygon points="1622.849,659.188,1632.849,663.188,1622.849,667.188,1626.849,663.188" fill="#181818" style="stroke:#181818;stroke-width:1;stroke-linejoin:miter;stroke-miterlimit:10;"/><line x1="697.829" y1="663.188" x2="1628.849" y2="663.188" style="stroke:#181818;stroke-width:1;"/><text x="704.829" y="650.555" fill="#000" font-size="13" textLength="18.091" font-weight="700">11</text><text x="726.92" y="642.989" fill="#000" font-size="13" textLength="189.408">UPDATE original StoredEvent</text><text x="726.92" y="658.122" fill="#000" font-size="13" textLength="317.592">(Status: "applied", SchemaStatus: "conformant")</text><line x1="681.829" y1="672.188" x2="2113.896" y2="672.188" style="stroke:#000;stroke-width:1;stroke-dasharray:2,2;"/><text x="686.829" y="684.398" fill="#000" font-size="11" textLength="434.081" font-weight="700">[a hop fails to parse, fails to evaluate, or its output fails v2's schema]</text><polygon points="1622.849,722.258,1632.849,726.258,1622.849,730.258,1626.849,726.258" fill="#181818" style="stroke:#181818;stroke-width:1;stroke-linejoin:miter;stroke-miterlimit:10;"/><line x1="697.829" y1="726.258" x2="1628.849" y2="726.258" style="stroke:#181818;stroke-width:1;"/><text x="704.829" y="713.625" fill="#000" font-size="13" textLength="18.091" font-weight="700">12</text><text x="726.92" y="706.059" fill="#000" font-size="13" textLength="189.408">UPDATE original StoredEvent</text><text x="726.92" y="721.192" fill="#000" font-size="13" textLength="474.868">(Status: "applied", SchemaStatus: "invalid" -- no materialization created)</text><path d="M1639.849,694.992 L1639.849,764.992 L2082.849,764.992 L2082.849,704.992 L2072.849,694.992 L1639.849,694.992" style="stroke:#181818;stroke-width:0.5;" fill="#FEFFDD"/><path d="M2072.849,694.992 L2072.849,704.992 L2082.849,704.992 L2072.849,694.992" style="stroke:#181818;stroke-width:0.5;" fill="#FEFFDD"/><text x="1645.849" y="712.059" fill="#000" font-size="13" textLength="356.516">~~originally routed to a reserved "EventUpcastFailed"</text><text x="1645.849" y="727.192" fill="#000" font-size="13" textLength="419.694">dead-letter event type (ADR-020)~~ -- superseded by ADR-023:</text><text x="1645.849" y="742.325" fill="#000" font-size="13" textLength="328.993">the original just persists as SchemaStatus: invalid,</text><text x="1645.849" y="757.458" fill="#000" font-size="13" textLength="422.944">like any other schema-shape problem, no substituted event type</text><?plantuml-src jLPDRzj64BtpLmnuiGHGYgIsIC6c0GoRGTqwaI3PoKMN5RaIjoPtYTsbR2Q8VtjcFqYJSbAtXvx4_PYPzsRUp8hKMl2wt54Pa5GB2U6gtXLCvOmVODCeJSij7odDYW841vNcj2Hmd8z380egTnUDAo8rIrb5kEvS93oh1ECQ7LpndNY8uFnoFPajVdB6r1yFRTUYrbH-4lAEIZHqonDBQJU7ThTLIfI-o0dZQ6Qlptzrr-kdew7DbJDA7Yf9bMA29qTIr0JJW2ukaclODP3HFQaBxH7yqc9lBmOPqMH758KmEL9qUYqE_WQkS144NP9WyhOZ7SDgkRc1L_xmrL9cLAuAaj9iox_uF7-aqg2AOHv1HPf2a2o6Bs3lNk5dA2Rp496LeZOUVrvCPpFu2by3BZG5oGuvxeOPBKNSyn_2SG5CWSufOCtPaSBH1KBMBbVlf2XNaXwPg1M4pdy4PxVyZejxVcRuRJJHjSBe3kf4qWDJMZRJCXi7BKlBs2SYXgiFcsHzWvP2qinc2mFQtxyOHpfBHCmuAIBOFAFlmY4RILEAaBCmslBLly_9P698xeXcPGGrJtF23tI05A5sbOfXCLkWL_KigdE53WJFc4Pq1guNPp2TJZbzqE142oYqkmXprM0uAJZcicZmIk3aEypD9hbEBcxSXe9FVoJhn7E6ttlXUxRkAmPK8aCHOYqFA72bRLqlaulhytLosLOMHlCn0jyQt7iXIvJ_Rq0A9OPAizVUdAW2HejnBswlcsA_67bnHh17uVJBfaMtGYSzKyVUDr7SVj9_5jkMjnnVB7ZGERUL7O1-mRWdDey1gtwAVU2mAm6E4PmLNIMEYpC5VswM7xoW0uA7M6BPG2ugR6cfg8ewylX9U6RhvnsrZbK0y3tLlDHHRhwzHm-IeQlFn2ZsMNiji9LExYptrej9qHlXsnAv-Cst_w7tlflDCVBfpoX3cTDxv7Xl9jDzJhHlgXdKYc9E16HCfKHcLiNkx3LKXeB2Xc4QJCOfoK3iCNkfAAjQcpSCJr32BkdxMjVI99TaFqZexUho_2Q1bl99PZicfAeAPcQGJsLtyDHU8SwM0fy5Oakz9wnGXeMjUVIqRciVOKp4gW118N9_mGh8TUZ_19Xngx7GJ3Kke1pA05BCbJPpSbYlnySsOD4uMBP4nEYMIXnK_ZLq-dk7N33sbcUO-4b1jM5XAO1kAWeZN-hnuwE1eMfJLfgX5tn__MoDjzo8fEFvTutzrPNVZ8W1BqyBTLgmEom2Rq1eymJxrqhb10DNKkmAYWy2CbVr3l_bQ4lb2Pjv7xu1?></g></svg>