<svg xmlns="http://www.w3.org/2000/svg" xmlns:xlink="http://www.w3.org/1999/xlink" version="1.1" data-diagram-type="SEQUENCE" style="width:3664px;height:1270px;background:#FFFFFF;" width="3664px" height="1270px" viewBox="0 0 3664 1270" zoomAndPan="magnify" preserveAspectRatio="none" contentStyleType="text/css"><?plantuml 1.2026.7?><defs/><g font-family="sans-serif" lengthAdjust="spacing"><rect x="1344.943" y="348.922" width="2254.573" height="807.852" fill="none" style="stroke:#000;stroke-width:1.5;"/><g><title>ELD . Telematics Gateway</title><rect x="105.296" y="88.594" width="8" height="1092.18" fill="#000" fill-opacity="0"/><line x1="108.796" y1="88.594" x2="108.796" y2="1180.773" style="stroke:#181818;stroke-width:0.5;stroke-dasharray:5,5;"/></g><g><title>Telemetry Ingest API</title><rect x="585.478" y="88.594" width="8" height="1092.18" fill="#000" fill-opacity="0"/><line x1="588.978" y1="88.594" x2="588.978" y2="1180.773" style="stroke:#181818;stroke-width:0.5;stroke-dasharray:5,5;"/></g><g><title>Telemetry Channel Store</title><rect x="972.521" y="88.594" width="8" height="1092.18" fill="#000" fill-opacity="0"/><line x1="976.021" y1="88.594" x2="976.021" y2="1180.773" style="stroke:#181818;stroke-width:0.5;stroke-dasharray:5,5;"/></g><g><title>Fault-Detection Worker</title><rect x="1357.443" y="88.594" width="8" height="1092.18" fill="#000" fill-opacity="0"/><line x1="1360.943" y1="88.594" x2="1360.943" y2="1180.773" style="stroke:#181818;stroke-width:0.5;stroke-dasharray:5,5;"/></g><g><title>Inbox . PublishEndpoint</title><rect x="1951.137" y="88.594" width="8" height="1092.18" fill="#000" fill-opacity="0"/><line x1="1954.637" y1="88.594" x2="1954.637" y2="1180.773" style="stroke:#181818;stroke-width:0.5;stroke-dasharray:5,5;"/></g><g><title>Router</title><rect x="2081.057" y="88.594" width="8" height="1092.18" fill="#000" fill-opacity="0"/><line x1="2084.557" y1="88.594" x2="2084.557" y2="1180.773" style="stroke:#181818;stroke-width:0.5;stroke-dasharray:5,5;"/></g><g><title>EventStore.Fold</title><rect x="2424.63" y="88.594" width="8" height="1092.18" fill="#000" fill-opacity="0"/><line x1="2428.13" y1="88.594" x2="2428.13" y2="1180.773" style="stroke:#181818;stroke-width:0.5;stroke-dasharray:5,5;"/></g><g><title>Event Log</title><rect x="2535.166" y="88.594" width="8" height="1092.18" fill="#000" fill-opacity="0"/><line x1="2538.666" y1="88.594" x2="2538.666" y2="1180.773" style="stroke:#181818;stroke-width:0.5;stroke-dasharray:5,5;"/></g><g><title>Entity Store</title><rect x="2897.69" y="88.594" width="8" height="1092.18" fill="#000" fill-opacity="0"/><line x1="2901.19" y1="88.594" x2="2901.19" y2="1180.773" style="stroke:#181818;stroke-width:0.5;stroke-dasharray:5,5;"/></g><g><title>Webhook Dispatcher</title><rect x="3120.198" y="88.594" width="8" height="1092.18" fill="#000" fill-opacity="0"/><line x1="3123.698" y1="88.594" x2="3123.698" y2="1180.773" style="stroke:#181818;stroke-width:0.5;stroke-dasharray:5,5;"/></g><g><title>Fleet CMMS . TMS</title><rect x="3580.016" y="88.594" width="8" height="1092.18" fill="#000" fill-opacity="0"/><line x1="3583.516" y1="88.594" x2="3583.516" y2="1180.773" style="stroke:#181818;stroke-width:0.5;stroke-dasharray:5,5;"/></g><rect x="10" y="57.297" width="197.593" height="30.297" fill="#E2E2F0" style="stroke:#181818;stroke-width:0.5;" rx="2.5" ry="2.5"/><text x="17" y="77.292" fill="#000" font-size="14" textLength="183.593">ELD / Telematics Gateway</text><rect x="509.086" y="57.297" width="159.783" height="30.297" fill="#E2E2F0" style="stroke:#181818;stroke-width:0.5;" rx="2.5" ry="2.5"/><text x="516.086" y="77.292" fill="#000" font-size="14" textLength="145.783">Telemetry Ingest API</text><text x="885.452" y="68.995" fill="#000" font-size="14" textLength="175.137">Telemetry Channel Store</text><text x="803.387" y="85.292" fill="#000" font-size="14" textLength="339.268">(TelemetryChannel/TelemetrySample, ADR-031)</text><path d="M958.021,20 C958.021,10 976.021,10 976.021,10 C976.021,10 994.021,10 994.021,20 L994.021,46 C994.021,56 976.021,56 976.021,56 C976.021,56 958.021,56 958.021,46 L958.021,20" style="stroke:#181818;stroke-width:0.5;" fill="#E2E2F0"/><path d="M958.021,20 C958.021,30 976.021,30 976.021,30 C976.021,30 994.021,30 994.021,20" style="stroke:#181818;stroke-width:0.5;" fill="none"/><rect x="1183.256" y="41" width="355.373" height="46.594" fill="#E2E2F0" style="stroke:#181818;stroke-width:0.5;" rx="2.5" ry="2.5"/><text x="1279.424" y="60.995" fill="#000" font-size="14" textLength="163.037">Fault-Detection Worker</text><text x="1190.256" y="77.292" fill="#000" font-size="14" textLength="341.373">(app-specific, ADR-031: out of framework scope)</text><rect x="1865.23" y="57.297" width="178.814" height="30.297" fill="#E2E2F0" style="stroke:#181818;stroke-width:0.5;" rx="2.5" ry="2.5"/><text x="1872.23" y="77.292" fill="#000" font-size="14" textLength="164.814">Inbox / PublishEndpoint</text><rect x="2054.044" y="57.297" width="61.024" height="30.297" fill="#E2E2F0" style="stroke:#181818;stroke-width:0.5;" rx="2.5" ry="2.5"/><text x="2061.044" y="77.292" fill="#000" font-size="14" textLength="47.024">Router</text><rect x="2365.5" y="57.297" width="125.262" height="30.297" fill="#E2E2F0" style="stroke:#181818;stroke-width:0.5;" rx="2.5" ry="2.5"/><text x="2372.5" y="77.292" fill="#000" font-size="14" textLength="111.262">EventStore.Fold</text><text x="2500.761" y="85.292" fill="#000" font-size="14" textLength="69.809">Event Log</text><path d="M2520.666,36.297 C2520.666,26.297 2538.666,26.297 2538.666,26.297 C2538.666,26.297 2556.666,26.297 2556.666,36.297 L2556.666,62.297 C2556.666,72.297 2538.666,72.297 2538.666,72.297 C2538.666,72.297 2520.666,72.297 2520.666,62.297 L2520.666,36.297" style="stroke:#181818;stroke-width:0.5;" fill="#E2E2F0"/><path d="M2520.666,36.297 C2520.666,46.297 2538.666,46.297 2538.666,46.297 C2538.666,46.297 2556.666,46.297 2556.666,36.297" style="stroke:#181818;stroke-width:0.5;" fill="none"/><text x="2856.874" y="68.995" fill="#000" font-size="14" textLength="82.633">Entity Store</text><text x="2768.563" y="85.292" fill="#000" font-size="14" textLength="259.253">(authoritative + Live View, ADR-042)</text><path d="M2883.19,20 C2883.19,10 2901.19,10 2901.19,10 C2901.19,10 2919.19,10 2919.19,20 L2919.19,46 C2919.19,56 2901.19,56 2901.19,56 C2901.19,56 2883.19,56 2883.19,46 L2883.19,20" style="stroke:#181818;stroke-width:0.5;" fill="#E2E2F0"/><path d="M2883.19,20 C2883.19,30 2901.19,30 2901.19,30 C2901.19,30 2919.19,30 2919.19,20" style="stroke:#181818;stroke-width:0.5;" fill="none"/><rect x="3043.816" y="41" width="159.763" height="46.594" fill="#E2E2F0" style="stroke:#181818;stroke-width:0.5;" rx="2.5" ry="2.5"/><text x="3050.816" y="60.995" fill="#000" font-size="14" textLength="145.763">Webhook Dispatcher</text><text x="3087.307" y="77.292" fill="#000" font-size="14" textLength="72.782">(ADR-060)</text><rect x="3513.984" y="41" width="139.063" height="46.594" fill="#E2E2F0" style="stroke:#181818;stroke-width:0.5;" rx="2.5" ry="2.5"/><text x="3520.984" y="60.995" fill="#000" font-size="14" textLength="125.063">Fleet CMMS / TMS</text><text x="3534.482" y="77.292" fill="#000" font-size="14" textLength="98.068">(downstream)</text><rect x="10" y="1180.773" width="197.593" height="30.297" fill="#E2E2F0" style="stroke:#181818;stroke-width:0.5;" rx="2.5" ry="2.5"/><text x="17" y="1200.769" fill="#000" font-size="14" textLength="183.593">ELD / Telematics Gateway</text><rect x="509.086" y="1180.773" width="159.783" height="30.297" fill="#E2E2F0" style="stroke:#181818;stroke-width:0.5;" rx="2.5" ry="2.5"/><text x="516.086" y="1200.769" fill="#000" font-size="14" textLength="145.783">Telemetry Ingest API</text><text x="885.452" y="1193.769" fill="#000" font-size="14" textLength="175.137">Telemetry Channel Store</text><text x="803.387" y="1210.065" fill="#000" font-size="14" textLength="339.268">(TelemetryChannel/TelemetrySample, ADR-031)</text><path d="M958.021,1223.367 C958.021,1213.367 976.021,1213.367 976.021,1213.367 C976.021,1213.367 994.021,1213.367 994.021,1223.367 L994.021,1249.367 C994.021,1259.367 976.021,1259.367 976.021,1259.367 C976.021,1259.367 958.021,1259.367 958.021,1249.367 L958.021,1223.367" style="stroke:#181818;stroke-width:0.5;" fill="#E2E2F0"/><path d="M958.021,1223.367 C958.021,1233.367 976.021,1233.367 976.021,1233.367 C976.021,1233.367 994.021,1233.367 994.021,1223.367" style="stroke:#181818;stroke-width:0.5;" fill="none"/><rect x="1183.256" y="1180.773" width="355.373" height="46.594" fill="#E2E2F0" style="stroke:#181818;stroke-width:0.5;" rx="2.5" ry="2.5"/><text x="1279.424" y="1200.769" fill="#000" font-size="14" textLength="163.037">Fault-Detection Worker</text><text x="1190.256" y="1217.065" fill="#000" font-size="14" textLength="341.373">(app-specific, ADR-031: out of framework scope)</text><rect x="1865.23" y="1180.773" width="178.814" height="30.297" fill="#E2E2F0" style="stroke:#181818;stroke-width:0.5;" rx="2.5" ry="2.5"/><text x="1872.23" y="1200.769" fill="#000" font-size="14" textLength="164.814">Inbox / PublishEndpoint</text><rect x="2054.044" y="1180.773" width="61.024" height="30.297" fill="#E2E2F0" style="stroke:#181818;stroke-width:0.5;" rx="2.5" ry="2.5"/><text x="2061.044" y="1200.769" fill="#000" font-size="14" textLength="47.024">Router</text><rect x="2365.5" y="1180.773" width="125.262" height="30.297" fill="#E2E2F0" style="stroke:#181818;stroke-width:0.5;" rx="2.5" ry="2.5"/><text x="2372.5" y="1200.769" fill="#000" font-size="14" textLength="111.262">EventStore.Fold</text><text x="2500.761" y="1193.769" fill="#000" font-size="14" textLength="69.809">Event Log</text><path d="M2520.666,1207.07 C2520.666,1197.07 2538.666,1197.07 2538.666,1197.07 C2538.666,1197.07 2556.666,1197.07 2556.666,1207.07 L2556.666,1233.07 C2556.666,1243.07 2538.666,1243.07 2538.666,1243.07 C2538.666,1243.07 2520.666,1243.07 2520.666,1233.07 L2520.666,1207.07" style="stroke:#181818;stroke-width:0.5;" fill="#E2E2F0"/><path d="M2520.666,1207.07 C2520.666,1217.07 2538.666,1217.07 2538.666,1217.07 C2538.666,1217.07 2556.666,1217.07 2556.666,1207.07" style="stroke:#181818;stroke-width:0.5;" fill="none"/><text x="2856.874" y="1193.769" fill="#000" font-size="14" textLength="82.633">Entity Store</text><text x="2768.563" y="1210.065" fill="#000" font-size="14" textLength="259.253">(authoritative + Live View, ADR-042)</text><path d="M2883.19,1223.367 C2883.19,1213.367 2901.19,1213.367 2901.19,1213.367 C2901.19,1213.367 2919.19,1213.367 2919.19,1223.367 L2919.19,1249.367 C2919.19,1259.367 2901.19,1259.367 2901.19,1259.367 C2901.19,1259.367 2883.19,1259.367 2883.19,1249.367 L2883.19,1223.367" style="stroke:#181818;stroke-width:0.5;" fill="#E2E2F0"/><path d="M2883.19,1223.367 C2883.19,1233.367 2901.19,1233.367 2901.19,1233.367 C2901.19,1233.367 2919.19,1233.367 2919.19,1223.367" style="stroke:#181818;stroke-width:0.5;" fill="none"/><rect x="3043.816" y="1180.773" width="159.763" height="46.594" fill="#E2E2F0" style="stroke:#181818;stroke-width:0.5;" rx="2.5" ry="2.5"/><text x="3050.816" y="1200.769" fill="#000" font-size="14" textLength="145.763">Webhook Dispatcher</text><text x="3087.307" y="1217.065" fill="#000" font-size="14" textLength="72.782">(ADR-060)</text><rect x="3513.984" y="1180.773" width="139.063" height="46.594" fill="#E2E2F0" style="stroke:#181818;stroke-width:0.5;" rx="2.5" ry="2.5"/><text x="3520.984" y="1200.769" fill="#000" font-size="14" textLength="125.063">Fleet CMMS / TMS</text><text x="3534.482" y="1217.065" fill="#000" font-size="14" textLength="98.068">(downstream)</text><polygon points="576.978,143.992,586.978,147.992,576.978,151.992,580.978,147.992" fill="#181818" style="stroke:#181818;stroke-width:1;stroke-linejoin:miter;stroke-miterlimit:10;"/><line x1="108.796" y1="147.992" x2="582.978" y2="147.992" style="stroke:#181818;stroke-width:1;"/><text x="115.796" y="127.793" fill="#000" font-size="13" font-weight="700">1</text><text x="128.842" y="112.661" fill="#000" font-size="13" textLength="280.966">POST /telemetry/truck-118-engine/samples</text><text x="128.842" y="127.793" fill="#000" font-size="13" textLength="357.011">{ startTimestamp, sampleIntervalMicros, values: [...] }</text><text x="128.842" y="142.926" fill="#000" font-size="13" textLength="443.136">(EngineHours, FuelLevel, ActiveDtcCode per ISO 15143-3/AEMP 2.0)</text><polygon points="964.021,188.258,974.021,192.258,964.021,196.258,968.021,192.258" fill="#181818" style="stroke:#181818;stroke-width:1;stroke-linejoin:miter;stroke-miterlimit:10;"/><line x1="588.978" y1="192.258" x2="970.021" y2="192.258" style="stroke:#181818;stroke-width:1;"/><text x="595.978" y="179.625" fill="#000" font-size="13" font-weight="700">2</text><text x="609.023" y="172.059" fill="#000" font-size="13" textLength="201.056">INSERT TelemetrySample rows</text><text x="609.023" y="187.192" fill="#000" font-size="13" textLength="349.997">(no schema check, no ChainHash, no fold -- ADR-031)</text><polygon points="119.796,217.391,109.796,221.391,119.796,225.391,115.796,221.391" fill="#181818" style="stroke:#181818;stroke-width:1;stroke-linejoin:miter;stroke-miterlimit:10;"/><line x1="113.796" y1="221.391" x2="587.978" y2="221.391" style="stroke:#181818;stroke-width:1;stroke-dasharray:2,2;"/><text x="125.796" y="216.325" fill="#000" font-size="13" font-weight="700">3</text><text x="138.842" y="216.325" fill="#000" font-size="13" textLength="341.834">202 { channelId, samplesWritten, lateArrivalCount }</text><polygon points="987.021,246.523,977.021,250.523,987.021,254.523,983.021,250.523" fill="#181818" style="stroke:#181818;stroke-width:1;stroke-linejoin:miter;stroke-miterlimit:10;"/><line x1="981.021" y1="250.523" x2="1359.943" y2="250.523" style="stroke:#181818;stroke-width:1;"/><text x="993.021" y="245.458" fill="#000" font-size="13" font-weight="700">4</text><text x="1006.066" y="245.458" fill="#000" font-size="13" textLength="347.877">GET /telemetry/truck-118-engine/samples?mode=tail</text><polygon points="1348.943,275.656,1358.943,279.656,1348.943,283.656,1352.943,279.656" fill="#181818" style="stroke:#181818;stroke-width:1;stroke-linejoin:miter;stroke-miterlimit:10;"/><line x1="976.021" y1="279.656" x2="1354.943" y2="279.656" style="stroke:#181818;stroke-width:1;stroke-dasharray:2,2;"/><text x="983.021" y="274.59" fill="#000" font-size="13" font-weight="700">5</text><text x="996.066" y="274.59" fill="#000" font-size="13" textLength="216.15">streamed TelemetrySample rows</text><line x1="1360.943" y1="323.922" x2="1402.943" y2="323.922" style="stroke:#181818;stroke-width:1;"/><line x1="1402.943" y1="323.922" x2="1402.943" y2="336.922" style="stroke:#181818;stroke-width:1;"/><line x1="1361.943" y1="336.922" x2="1402.943" y2="336.922" style="stroke:#181818;stroke-width:1;"/><polygon points="1371.943,332.922,1361.943,336.922,1371.943,340.922,1367.943,336.922" fill="#181818" style="stroke:#181818;stroke-width:1;stroke-linejoin:miter;stroke-miterlimit:10;"/><text x="1367.943" y="311.29" fill="#000" font-size="13" font-weight="700">6</text><text x="1380.988" y="303.723" fill="#000" font-size="13" textLength="202.179">apply VMRS fault-mapping rule</text><text x="1380.988" y="318.856" fill="#000" font-size="13" textLength="566.649">(DTC SPN 190 sustained overspeed -> System 043 Engine, ADR-031 takes no position)</text><path d="M1344.943,348.922 L1409.386,348.922 L1409.386,356.055 L1399.386,366.055 L1344.943,366.055 L1344.943,348.922" style="stroke:#000;stroke-width:1.5;" fill="#EEE"/><rect x="1344.943" y="348.922" width="2254.573" height="807.852" fill="none" style="stroke:#000;stroke-width:1.5;"/><text x="1359.943" y="361.989" fill="#000" font-size="13" textLength="19.443" font-weight="700">alt</text><text x="1424.386" y="361.132" fill="#000" font-size="11" textLength="240.056" font-weight="700">[high-confidence VMRS fault mapping]</text><polygon points="1942.637,468.852,1952.637,472.852,1942.637,476.852,1946.637,472.852" fill="#181818" style="stroke:#181818;stroke-width:1;stroke-linejoin:miter;stroke-miterlimit:10;"/><line x1="1360.943" y1="472.852" x2="1948.637" y2="472.852" style="stroke:#181818;stroke-width:1;"/><text x="1367.943" y="429.954" fill="#000" font-size="13" font-weight="700">7</text><text x="1380.988" y="392.122" fill="#000" font-size="13" textLength="292.341">POST /publish/MaintenanceWorkOrderRaised</text><text x="1380.988" y="407.254" fill="#000" font-size="13" textLength="389.08">{ payload: { AssetId: "truck-118", VmrsSystemCode: "043",</text><text x="1389.253" y="422.387" fill="#000" font-size="13" textLength="477.966">VmrsAssemblyCode: "004", ComplaintCode: "Sustained overspeed fault",</text><text x="1389.253" y="437.52" fill="#000" font-size="13" textLength="183.733">DetectorConfidence: 0.92 },</text><text x="1389.253" y="452.653" fill="#000" font-size="13" textLength="335.594">telemetryPointer: [{ channelId: "truck-118-engine",</text><text x="1397.518" y="467.786" fill="#000" font-size="13" textLength="271.426">fromTimestamp: t1, toTimestamp: t2 }] }</text><polygon points="2526.666,528.25,2536.666,532.25,2526.666,536.25,2530.666,532.25" fill="#181818" style="stroke:#181818;stroke-width:1;stroke-linejoin:miter;stroke-miterlimit:10;"/><line x1="1954.637" y1="532.25" x2="2532.666" y2="532.25" style="stroke:#181818;stroke-width:1;"/><text x="1961.637" y="512.051" fill="#000" font-size="13" font-weight="700">8</text><text x="1974.683" y="496.918" fill="#000" font-size="13" textLength="131.27">INSERT StoredEvent</text><text x="1974.683" y="512.051" fill="#000" font-size="13" textLength="186.996">(AuthorityStatus: "accepted"</text><text x="2169.943" y="512.051" fill="#000" font-size="13" textLength="111.446" text-decoration="line-through">default, ADR-042</text><text x="1974.683" y="527.184" fill="#000" font-size="13" textLength="201.189">no review-pending marker set)</text><polygon points="1371.943,572.516,1361.943,576.516,1371.943,580.516,1367.943,576.516" fill="#181818" style="stroke:#181818;stroke-width:1;stroke-linejoin:miter;stroke-miterlimit:10;"/><line x1="1365.943" y1="576.516" x2="1953.637" y2="576.516" style="stroke:#181818;stroke-width:1;stroke-dasharray:2,2;"/><text x="1377.943" y="563.883" fill="#000" font-size="13" font-weight="700">9</text><text x="1390.988" y="556.317" fill="#000" font-size="13" textLength="252.561">202 { correlationId, status: "received",</text><text x="1399.253" y="571.45" fill="#000" font-size="13" textLength="193.4">authorityStatus: "accepted" }</text><polygon points="2416.13,601.648,2426.13,605.648,2416.13,609.648,2420.13,605.648" fill="#181818" style="stroke:#181818;stroke-width:1;stroke-linejoin:miter;stroke-miterlimit:10;"/><line x1="2084.557" y1="605.648" x2="2422.13" y2="605.648" style="stroke:#181818;stroke-width:1;"/><text x="2091.557" y="600.583" fill="#000" font-size="13" textLength="18.091" font-weight="700">10</text><text x="2113.647" y="600.583" fill="#000" font-size="13" textLength="114.677">fold(StoredEvent)</text><polygon points="2889.19,645.914,2899.19,649.914,2889.19,653.914,2893.19,649.914" fill="#181818" style="stroke:#181818;stroke-width:1;stroke-linejoin:miter;stroke-miterlimit:10;"/><line x1="2428.13" y1="649.914" x2="2895.19" y2="649.914" style="stroke:#181818;stroke-width:1;"/><text x="2435.13" y="637.282" fill="#000" font-size="13" textLength="18.091" font-weight="700">11</text><text x="2457.221" y="629.715" fill="#000" font-size="13" textLength="244.81">UPDATE authoritative EntityStoreRow</text><text x="2457.221" y="644.848" fill="#000" font-size="13" textLength="426.969">"vem:MaintenanceWorkOrder:truck-118-&lt;eventId>" (Version++)</text><polygon points="3111.698,690.18,3121.698,694.18,3111.698,698.18,3115.698,694.18" fill="#181818" style="stroke:#181818;stroke-width:1;stroke-linejoin:miter;stroke-miterlimit:10;"/><line x1="2428.13" y1="694.18" x2="3117.698" y2="694.18" style="stroke:#181818;stroke-width:1;"/><text x="2435.13" y="681.547" fill="#000" font-size="13" textLength="18.091" font-weight="700">12</text><text x="2457.221" y="673.981" fill="#000" font-size="13" textLength="207.848">enqueue WebhookOutbox entry</text><text x="2457.221" y="689.114" fill="#000" font-size="13" textLength="441.391">(matching WebhookSubscription for MaintenanceWorkOrderRaised)</text><polygon points="3571.516,734.445,3581.516,738.445,3571.516,742.445,3575.516,738.445" fill="#181818" style="stroke:#181818;stroke-width:1;stroke-linejoin:miter;stroke-miterlimit:10;"/><line x1="3123.698" y1="738.445" x2="3577.516" y2="738.445" style="stroke:#181818;stroke-width:1;"/><text x="3130.698" y="725.813" fill="#000" font-size="13" textLength="18.091" font-weight="700">13</text><text x="3152.789" y="718.247" fill="#000" font-size="13" textLength="157.841">POST &lt;subscriber URL></text><text x="3152.789" y="733.379" fill="#000" font-size="13" textLength="413.728">webhook-id/webhook-timestamp/webhook-signature (ADR-060)</text><polygon points="3134.698,763.578,3124.698,767.578,3134.698,771.578,3130.698,767.578" fill="#181818" style="stroke:#181818;stroke-width:1;stroke-linejoin:miter;stroke-miterlimit:10;"/><line x1="3128.698" y1="767.578" x2="3582.516" y2="767.578" style="stroke:#181818;stroke-width:1;stroke-dasharray:2,2;"/><text x="3140.698" y="762.512" fill="#000" font-size="13" textLength="18.091" font-weight="700">14</text><text x="3162.789" y="762.512" fill="#000" font-size="13" textLength="47.703">200 OK</text><line x1="1344.943" y1="776.578" x2="3599.516" y2="776.578" style="stroke:#000;stroke-width:1;stroke-dasharray:2,2;"/><text x="1349.943" y="788.789" fill="#000" font-size="11" textLength="234.239" font-weight="700">[low-confidence VMRS fault mapping]</text><polygon points="1942.637,917.445,1952.637,921.445,1942.637,925.445,1946.637,921.445" fill="#181818" style="stroke:#181818;stroke-width:1;stroke-linejoin:miter;stroke-miterlimit:10;"/><line x1="1360.943" y1="921.445" x2="1948.637" y2="921.445" style="stroke:#181818;stroke-width:1;"/><text x="1367.943" y="863.415" fill="#000" font-size="13" textLength="18.091" font-weight="700">15</text><text x="1390.034" y="810.45" fill="#000" font-size="13" textLength="292.341">POST /publish/MaintenanceWorkOrderRaised</text><text x="1390.034" y="825.583" fill="#000" font-size="13" textLength="389.08">{ payload: { AssetId: "truck-118", VmrsSystemCode: "043",</text><text x="1398.298" y="840.715" fill="#000" font-size="13" textLength="438.56">VmrsAssemblyCode: "004", ComplaintCode: "Possible sensor drift",</text><text x="1398.298" y="855.848" fill="#000" font-size="13" textLength="183.733">DetectorConfidence: 0.38 },</text><text x="1398.298" y="870.981" fill="#000" font-size="13" textLength="335.594">telemetryPointer: [{ channelId: "truck-118-engine",</text><text x="1406.563" y="886.114" fill="#000" font-size="13" textLength="263.155">fromTimestamp: t3, toTimestamp: t4 }],</text><text x="1398.298" y="901.247" fill="#000" font-size="13" textLength="442.451">attestedClaims: { type: "detector-confidence", reviewPending: true,</text><text x="1406.563" y="916.379" fill="#000" font-size="13" textLength="329.043">confidence: 0.38, rule: "spn190-overspeed-v2" } }</text><path d="M1959.637,934.445 L1959.637,989.445 L2374.637,989.445 L2374.637,944.445 L2364.637,934.445 L1959.637,934.445" style="stroke:#181818;stroke-width:0.5;" fill="#FEFFDD"/><path d="M2364.637,934.445 L2364.637,944.445 L2374.637,944.445 L2364.637,934.445" style="stroke:#181818;stroke-width:0.5;" fill="#FEFFDD"/><text x="1965.637" y="951.512" fill="#000" font-size="13" textLength="385.023">An explicit review-pending marker, per ADR-042: the same</text><text x="1965.637" y="966.645" fill="#000" font-size="13" textLength="381.513">"automated detector, unvalidated result" trigger industrial</text><text x="1965.637" y="981.778" fill="#000" font-size="13" textLength="394.704">IoT's own sensor-driven-maintenance-alert.md already uses.</text><polygon points="2526.666,1027.109,2536.666,1031.109,2526.666,1035.109,2530.666,1031.109" fill="#181818" style="stroke:#181818;stroke-width:1;stroke-linejoin:miter;stroke-miterlimit:10;"/><line x1="1954.637" y1="1031.109" x2="2532.666" y2="1031.109" style="stroke:#181818;stroke-width:1;"/><text x="1961.637" y="1018.477" fill="#000" font-size="13" textLength="18.091" font-weight="700">16</text><text x="1983.728" y="1010.911" fill="#000" font-size="13" textLength="131.27">INSERT StoredEvent</text><text x="1983.728" y="1026.043" fill="#000" font-size="13" textLength="234.832">(AuthorityStatus: "pending_review")</text><polygon points="1371.943,1071.375,1361.943,1075.375,1371.943,1079.375,1367.943,1075.375" fill="#181818" style="stroke:#181818;stroke-width:1;stroke-linejoin:miter;stroke-miterlimit:10;"/><line x1="1365.943" y1="1075.375" x2="1953.637" y2="1075.375" style="stroke:#181818;stroke-width:1;stroke-dasharray:2,2;"/><text x="1377.943" y="1062.743" fill="#000" font-size="13" textLength="18.091" font-weight="700">17</text><text x="1400.034" y="1055.176" fill="#000" font-size="13" textLength="252.561">202 { correlationId, status: "received",</text><text x="1408.298" y="1070.309" fill="#000" font-size="13" textLength="236.165">authorityStatus: "pending_review" }</text><polygon points="2416.13,1100.508,2426.13,1104.508,2416.13,1108.508,2420.13,1104.508" fill="#181818" style="stroke:#181818;stroke-width:1;stroke-linejoin:miter;stroke-miterlimit:10;"/><line x1="2084.557" y1="1104.508" x2="2422.13" y2="1104.508" style="stroke:#181818;stroke-width:1;"/><text x="2091.557" y="1099.442" fill="#000" font-size="13" textLength="18.091" font-weight="700">18</text><text x="2113.647" y="1099.442" fill="#000" font-size="13" textLength="297.483">fold(StoredEvent) -- Live View only (ADR-042)</text><polygon points="2889.19,1144.773,2899.19,1148.773,2889.19,1152.773,2893.19,1148.773" fill="#181818" style="stroke:#181818;stroke-width:1;stroke-linejoin:miter;stroke-miterlimit:10;"/><line x1="2428.13" y1="1148.773" x2="2895.19" y2="1148.773" style="stroke:#181818;stroke-width:1;"/><text x="2435.13" y="1136.141" fill="#000" font-size="13" textLength="18.091" font-weight="700">19</text><text x="2457.221" y="1128.575" fill="#000" font-size="13" textLength="183.308">UPDATE LiveEntityStoreRow</text><text x="2457.221" y="1143.708" fill="#000" font-size="13" textLength="380.193">(isAuthoritative: false), authoritative row NOT yet updated</text><?plantuml-src tLPTRzis57tthxZmonBKyaUI3QtHPJ1iTpMMD8RjfW_DCD3IjKr48ZMIYciK_Uyxf6J5yRAkmBQNlIGooVjrxZs758NJgiYMR1gvC4x6CXVAKNDyDQ8EBJZbJ63Lqi_2yLRicYGihSllfnRXB3kpeubQitKqc4x2QHb-DXBXn59OFZmvt0YbEAMvquRlr4czKsrqweMvoFAKMpGOpQBkUUyqU7RMsprDuuqeKXUDs77if5RqGPjxDl0jyZooESTo9UFQJvzquKYlQ6L4nbkS9Hlhd4l_IV2YZw2PgAN-172cnJALTZDMIQwbSbMjs7jwV8O8RCAk2Pz7G3-mSg7-zXkT9k7S2Xy7U8KZTANNOPFzB_muFA2STBiQHL6uZJRIeN4FJ2_eol-xbRojohuuAylZO3R_CuOVUBdH-fv6qkR2nPk0Np3zeLkQRiiJHz2dp8w6rzTpFphNSnWbUgkiCoooqYxECjjeLFD3qMKr77sQtimNr77xTdUSAUBxgDTx6R5QIyKT6mR0tgdFP1sYBcG6GoosgDoQA63x8D9h6HjjMuJFWcsVFhRRxL_f2v8P1qzlTM6m_QRWz0fOfW0bza2DN3pK2LFEXYRp6-fztxiuZyuxW_7rbCxQtTD6cQlFkXoyFatUpSUp1HrDAVgyHQ8dIcEODY0GuMzyto8iOB2bUYli9lpoZQOeggUw3e4O5KXzEkkUqMUu28oO9FjwxGUqsB5gKOgJ0sCaAXxg0ftuqcZiH_Smsv_7tmJnJnbW-D49cJPAov3Etc6VodvoycpPJm8_se1ywOvkhsTpMWM2PbX1iMIAr8_iQ36a-VGTzLvroHReA_99I3-m0MNn1MVpdNMSKVVYdCf6rYGc9-xPUZnpRQLd_McZ8L976xdUHB5MAvcmYlaWFbNn6qI72GVwxeSnB_dTkKOom5d0WnUJ6vEmcGbfEV73c8jTgaNIHui6rhARuBDPGzjiqMrcR9cx7oziee9cwqvHsF4ssJBTxVUw5p0PQk3ferQhysSG2MMKVaPL1SEwqZvrsw_Ew4lOhZi-zJB5wCR7Wt4wpBOQXD8hGHDrLjEiJwxN8gSF5n01p0A60JSFu5wSQce4TKc2WdaDgPG9eYDS0N8sHHnpxXYw1nea7AggPGfhTmfjDVm0zOfoLecVcKnuIIU0VVeO-ycuLPJHnZ38WO48jDd7D1mp29-KTOglvEHhAqNR5-VPsWz_JmxAyZcKFBuyLDG-lP-E1einFLNZyUE9cTxUgUO3P_td9gp_s9NN0TL9Sjcaarlq7_MyU74OjbBZFkB_Nd31L0duJU4yDZ0sEw2VUItt05RRys9fOoFpS4-km82_ddGVhOhY0tePhsZosfPUy8AWzxEhopjLdOjaqjb_kltGr2jMhXNWXhZK5mj2UB-XbNL5PzqktVpIu1JtNAgt_mSsJxMrSWczjAmiCasCN7sLoUSl_sqcdnyp-G9CBjc0AmNL9KDax7lycTmkzrdlWJte06ehcJajYGa_fk0gP7nKGYj8FHpPN47berh9eeSp42rGJMc7MmIY7PvavLlA-neeuazvYeU6UruBMk7MhbG3QMpONv8SZ9iWeCReGpFtDRIeKBWiPH9M3LilfKXUhjTm8rK2lJLIfC5-eXVVMS8xfkfNX7w1ZxZ1wa6AHCh6jRE4H8gxCTbHOTcsOOuiGrN_I2EhMdyhIs_-Dw9t5EJRfC-BTlsw9Armnv_idvX_8ulUx5WCJwGT7Aeb8WeG_xHr9A9uQD2xcmNjyDmiyj351jB_0m00?></g></svg>