<svg xmlns="http://www.w3.org/2000/svg" xmlns:xlink="http://www.w3.org/1999/xlink" version="1.1" data-diagram-type="SEQUENCE" style="width:2299px;height:1129px;background:#FFFFFF;" width="2299px" height="1129px" viewBox="0 0 2299 1129" zoomAndPan="magnify" preserveAspectRatio="none" contentStyleType="text/css"><?plantuml 1.2026.7?><defs/><g font-family="sans-serif" lengthAdjust="spacing"><rect x="687.614" y="608.813" width="1591.572" height="376.93" fill="none" style="stroke:#000;stroke-width:1.5;"/><g><title>Applicant client</title><rect x="92" y="118.891" width="8" height="890.852" fill="#000" fill-opacity="0"/><line x1="95.5" y1="118.891" x2="95.5" y2="1009.742" style="stroke:#181818;stroke-width:0.5;stroke-dasharray:5,5;"/></g><g><title>PublishEndpoint</title><rect x="558.68" y="118.891" width="8" height="890.852" fill="#000" fill-opacity="0"/><line x1="562.18" y1="118.891" x2="562.18" y2="1009.742" style="stroke:#181818;stroke-width:0.5;stroke-dasharray:5,5;"/></g><g><title>Router</title><rect x="700.114" y="118.891" width="8" height="890.852" fill="#000" fill-opacity="0"/><line x1="703.614" y1="118.891" x2="703.614" y2="1009.742" style="stroke:#181818;stroke-width:0.5;stroke-dasharray:5,5;"/></g><g><title>EventStore.DevIdp</title><rect x="1143.632" y="118.891" width="8" height="890.852" fill="#000" fill-opacity="0"/><line x1="1147.132" y1="118.891" x2="1147.132" y2="1009.742" style="stroke:#181818;stroke-width:0.5;stroke-dasharray:5,5;"/></g><g><title>EventStore.Fold</title><rect x="1444.966" y="118.891" width="8" height="890.852" fill="#000" fill-opacity="0"/><line x1="1448.466" y1="118.891" x2="1448.466" y2="1009.742" style="stroke:#181818;stroke-width:0.5;stroke-dasharray:5,5;"/></g><g><title>Event Log</title><rect x="1629.63" y="118.891" width="8" height="890.852" fill="#000" fill-opacity="0"/><line x1="1633.13" y1="118.891" x2="1633.13" y2="1009.742" style="stroke:#181818;stroke-width:0.5;stroke-dasharray:5,5;"/></g><g><title>Live View</title><rect x="1863.912" y="118.891" width="8" height="890.852" fill="#000" fill-opacity="0"/><line x1="1867.412" y1="118.891" x2="1867.412" y2="1009.742" style="stroke:#181818;stroke-width:0.5;stroke-dasharray:5,5;"/></g><text x="38.164" y="82.995" fill="#000" font-size="14" textLength="108.671">Applicant client</text><text x="10" y="99.292" fill="#000" font-size="14" textLength="164.999">(holds a DID it controls,</text><text x="15.893" y="115.589" fill="#000" font-size="14" textLength="153.214">self-attests via UCAN)</text><ellipse cx="95.5" cy="18.5" rx="8" ry="8" fill="#E2E2F0" style="stroke:#181818;stroke-width:0.5;"/><path d="M95.5,26.5 L95.5,53.5 M82.5,34.5 L108.5,34.5 M95.5,53.5 L82.5,68.5 M95.5,53.5 L108.5,68.5" style="stroke:#181818;stroke-width:0.5;" fill="none"/><rect x="498.951" y="71.297" width="126.458" height="46.594" fill="#E2E2F0" style="stroke:#181818;stroke-width:0.5;" rx="2.5" ry="2.5"/><text x="505.951" y="91.292" fill="#000" font-size="14" textLength="112.458">PublishEndpoint</text><text x="537.348" y="107.589" fill="#000" font-size="14" textLength="49.663">(Inbox)</text><rect x="635.409" y="71.297" width="136.411" height="46.594" fill="#E2E2F0" style="stroke:#181818;stroke-width:0.5;" rx="2.5" ry="2.5"/><text x="680.102" y="91.292" fill="#000" font-size="14" textLength="47.024">Router</text><text x="642.409" y="107.589" fill="#000" font-size="14" textLength="122.411">(async, ADR-023)</text><rect x="992.558" y="71.297" width="309.148" height="46.594" fill="#E2E2F0" style="stroke:#181818;stroke-width:0.5;" rx="2.5" ry="2.5"/><text x="1081.408" y="91.292" fill="#000" font-size="14" textLength="131.448">EventStore.DevIdp</text><text x="999.558" y="107.589" fill="#000" font-size="14" textLength="295.148">(OAuth Token Exchange bridge, ADR-036)</text><rect x="1311.706" y="71.297" width="273.52" height="46.594" fill="#E2E2F0" style="stroke:#181818;stroke-width:0.5;" rx="2.5" ry="2.5"/><text x="1392.835" y="91.292" fill="#000" font-size="14" textLength="111.262">EventStore.Fold</text><text x="1318.706" y="107.589" fill="#000" font-size="14" textLength="259.52">(Live View only, ungated -- ADR-042)</text><text x="1595.226" y="115.589" fill="#000" font-size="14" textLength="69.809">Event Log</text><path d="M1615.13,66.594 C1615.13,56.594 1633.13,56.594 1633.13,56.594 C1633.13,56.594 1651.13,56.594 1651.13,66.594 L1651.13,92.594 C1651.13,102.594 1633.13,102.594 1633.13,102.594 C1633.13,102.594 1615.13,102.594 1615.13,92.594 L1615.13,66.594" style="stroke:#181818;stroke-width:0.5;" fill="#E2E2F0"/><path d="M1615.13,66.594 C1615.13,76.594 1633.13,76.594 1633.13,76.594 C1633.13,76.594 1651.13,76.594 1651.13,66.594" style="stroke:#181818;stroke-width:0.5;" fill="none"/><text x="1831.127" y="99.292" fill="#000" font-size="14" textLength="66.568">Live View</text><text x="1790.693" y="115.589" fill="#000" font-size="14" textLength="147.438">(LiveEntityStoreRow)</text><path d="M1849.412,50.297 C1849.412,40.297 1867.412,40.297 1867.412,40.297 C1867.412,40.297 1885.412,40.297 1885.412,50.297 L1885.412,76.297 C1885.412,86.297 1867.412,86.297 1867.412,86.297 C1867.412,86.297 1849.412,86.297 1849.412,76.297 L1849.412,50.297" style="stroke:#181818;stroke-width:0.5;" fill="#E2E2F0"/><path d="M1849.412,50.297 C1849.412,60.297 1867.412,60.297 1867.412,60.297 C1867.412,60.297 1885.412,60.297 1885.412,50.297" style="stroke:#181818;stroke-width:0.5;" fill="none"/><text x="38.164" y="1022.737" fill="#000" font-size="14" textLength="108.671">Applicant client</text><text x="10" y="1039.034" fill="#000" font-size="14" textLength="164.999">(holds a DID it controls,</text><text x="15.893" y="1055.331" fill="#000" font-size="14" textLength="153.214">self-attests via UCAN)</text><ellipse cx="95.5" cy="1067.133" rx="8" ry="8" fill="#E2E2F0" style="stroke:#181818;stroke-width:0.5;"/><path d="M95.5,1075.133 L95.5,1102.133 M82.5,1083.133 L108.5,1083.133 M95.5,1102.133 L82.5,1117.133 M95.5,1102.133 L108.5,1117.133" style="stroke:#181818;stroke-width:0.5;" fill="none"/><rect x="498.951" y="1009.742" width="126.458" height="46.594" fill="#E2E2F0" style="stroke:#181818;stroke-width:0.5;" rx="2.5" ry="2.5"/><text x="505.951" y="1029.737" fill="#000" font-size="14" textLength="112.458">PublishEndpoint</text><text x="537.348" y="1046.034" fill="#000" font-size="14" textLength="49.663">(Inbox)</text><rect x="635.409" y="1009.742" width="136.411" height="46.594" fill="#E2E2F0" style="stroke:#181818;stroke-width:0.5;" rx="2.5" ry="2.5"/><text x="680.102" y="1029.737" fill="#000" font-size="14" textLength="47.024">Router</text><text x="642.409" y="1046.034" fill="#000" font-size="14" textLength="122.411">(async, ADR-023)</text><rect x="992.558" y="1009.742" width="309.148" height="46.594" fill="#E2E2F0" style="stroke:#181818;stroke-width:0.5;" rx="2.5" ry="2.5"/><text x="1081.408" y="1029.737" fill="#000" font-size="14" textLength="131.448">EventStore.DevIdp</text><text x="999.558" y="1046.034" fill="#000" font-size="14" textLength="295.148">(OAuth Token Exchange bridge, ADR-036)</text><rect x="1311.706" y="1009.742" width="273.52" height="46.594" fill="#E2E2F0" style="stroke:#181818;stroke-width:0.5;" rx="2.5" ry="2.5"/><text x="1392.835" y="1029.737" fill="#000" font-size="14" textLength="111.262">EventStore.Fold</text><text x="1318.706" y="1046.034" fill="#000" font-size="14" textLength="259.52">(Live View only, ungated -- ADR-042)</text><text x="1595.226" y="1022.737" fill="#000" font-size="14" textLength="69.809">Event Log</text><path d="M1615.13,1036.039 C1615.13,1026.039 1633.13,1026.039 1633.13,1026.039 C1633.13,1026.039 1651.13,1026.039 1651.13,1036.039 L1651.13,1062.039 C1651.13,1072.039 1633.13,1072.039 1633.13,1072.039 C1633.13,1072.039 1615.13,1072.039 1615.13,1062.039 L1615.13,1036.039" style="stroke:#181818;stroke-width:0.5;" fill="#E2E2F0"/><path d="M1615.13,1036.039 C1615.13,1046.039 1633.13,1046.039 1633.13,1046.039 C1633.13,1046.039 1651.13,1046.039 1651.13,1036.039" style="stroke:#181818;stroke-width:0.5;" fill="none"/><text x="1831.127" y="1022.737" fill="#000" font-size="14" textLength="66.568">Live View</text><text x="1790.693" y="1039.034" fill="#000" font-size="14" textLength="147.438">(LiveEntityStoreRow)</text><path d="M1849.412,1052.336 C1849.412,1042.336 1867.412,1042.336 1867.412,1042.336 C1867.412,1042.336 1885.412,1042.336 1885.412,1052.336 L1885.412,1078.336 C1885.412,1088.336 1867.412,1088.336 1867.412,1088.336 C1867.412,1088.336 1849.412,1088.336 1849.412,1078.336 L1849.412,1052.336" style="stroke:#181818;stroke-width:0.5;" fill="#E2E2F0"/><path d="M1849.412,1052.336 C1849.412,1062.336 1867.412,1062.336 1867.412,1062.336 C1867.412,1062.336 1885.412,1062.336 1885.412,1052.336" style="stroke:#181818;stroke-width:0.5;" fill="none"/><polygon points="550.18,189.422,560.18,193.422,550.18,197.422,554.18,193.422" fill="#181818" style="stroke:#181818;stroke-width:1;stroke-linejoin:miter;stroke-miterlimit:10;"/><line x1="95.5" y1="193.422" x2="556.18" y2="193.422" style="stroke:#181818;stroke-width:1;"/><text x="102.5" y="165.657" fill="#000" font-size="13" font-weight="700">1</text><text x="115.545" y="142.958" fill="#000" font-size="13" textLength="248.352">POST /publish/IdentityClaimSubmitted</text><text x="115.545" y="158.09" fill="#000" font-size="13" textLength="429.635">{ payload: { ApplicantId: "applicant-1001", Did: "did:key:z6Mk...",</text><text x="123.81" y="173.223" fill="#000" font-size="13" textLength="412.877">ClaimedLegalName, DateOfBirth, DocumentType: "passport" },</text><text x="123.81" y="188.356" fill="#000" font-size="13" textLength="396.17">attestedClaims: { type: "ucan", invocation: &lt;raw UCAN> } }</text><polygon points="1621.13,248.82,1631.13,252.82,1621.13,256.82,1625.13,252.82" fill="#181818" style="stroke:#181818;stroke-width:1;stroke-linejoin:miter;stroke-miterlimit:10;"/><line x1="562.18" y1="252.82" x2="1627.13" y2="252.82" style="stroke:#181818;stroke-width:1;"/><text x="569.18" y="232.622" fill="#000" font-size="13" font-weight="700">2</text><text x="582.225" y="217.489" fill="#000" font-size="13" textLength="131.27">INSERT StoredEvent</text><text x="582.225" y="232.622" fill="#000" font-size="13" textLength="404.289">(AttestedClaims = raw UCAN, AuthorityStatus = "unattested",</text><text x="586.357" y="247.754" fill="#000" font-size="13" textLength="359.195">EntityId resolved later via EntityIdField "$.ApplicantId")</text><polygon points="106.5,277.953,96.5,281.953,106.5,285.953,102.5,281.953" fill="#181818" style="stroke:#181818;stroke-width:1;stroke-linejoin:miter;stroke-miterlimit:10;"/><line x1="100.5" y1="281.953" x2="561.18" y2="281.953" style="stroke:#181818;stroke-width:1;stroke-dasharray:2,2;"/><text x="112.5" y="276.887" fill="#000" font-size="13" font-weight="700">3</text><text x="125.545" y="276.887" fill="#000" font-size="13" textLength="370.373">202 { status: "received", authorityStatus: "unattested" }</text><path d="M516.613,294.953 L516.613,364.953 L1678.613,364.953 L1678.613,304.953 L1668.613,294.953 L516.613,294.953" style="stroke:#181818;stroke-width:0.5;" fill="#FEFFDD"/><path d="M1668.613,294.953 L1668.613,304.953 L1678.613,304.953 L1668.613,294.953" style="stroke:#181818;stroke-width:0.5;" fill="#FEFFDD"/><text x="890.766" y="312.02" fill="#000" font-size="13" textLength="344.925">Persisted immediately, never blocked on the identity</text><text x="890.766" y="327.153" fill="#000" font-size="13" textLength="351.229">provider's reachability (ADR-023). The DID proves the</text><text x="890.766" y="342.286" fill="#000" font-size="13" textLength="332.363">applicant controls "did:key:z6Mk..." -- NOT that the</text><text x="890.766" y="357.418" fill="#000" font-size="13" textLength="404.777">claimed legal name/DOB are real (ADR-036's own distinction).</text><rect x="10" y="391.051" width="2278.186" height="3" fill="#EEE" style="stroke:#EEE;stroke-width:1;"/><line x1="10" y1="391.051" x2="2288.186" y2="391.051" style="stroke:#000;stroke-width:1;"/><line x1="10" y1="394.051" x2="2288.186" y2="394.051" style="stroke:#000;stroke-width:1;"/><rect x="902.472" y="380.484" width="493.242" height="23.133" fill="#EEE" style="stroke:#000;stroke-width:2;"/><text x="908.472" y="396.551" fill="#000" font-size="13" textLength="474.716" font-weight="700">asynchronously, once the Router can reach the identity provider</text><polygon points="1621.13,445.883,1631.13,449.883,1621.13,453.883,1625.13,449.883" fill="#181818" style="stroke:#181818;stroke-width:1;stroke-linejoin:miter;stroke-miterlimit:10;"/><line x1="703.614" y1="449.883" x2="1627.13" y2="449.883" style="stroke:#181818;stroke-width:1;"/><text x="710.614" y="437.25" fill="#000" font-size="13" font-weight="700">4</text><text x="723.66" y="429.684" fill="#000" font-size="13" textLength="223.076">pick up event with AttestedClaims</text><text x="723.66" y="444.817" fill="#000" font-size="13" textLength="161.459">pending token exchange</text><polygon points="1135.132,535.547,1145.132,539.547,1135.132,543.547,1139.132,539.547" fill="#181818" style="stroke:#181818;stroke-width:1;stroke-linejoin:miter;stroke-miterlimit:10;"/><line x1="703.614" y1="539.547" x2="1141.132" y2="539.547" style="stroke:#181818;stroke-width:1;"/><text x="710.614" y="504.215" fill="#000" font-size="13" font-weight="700">5</text><text x="723.66" y="473.95" fill="#000" font-size="13" textLength="121.469">POST /oauth/token</text><text x="723.66" y="489.083" fill="#000" font-size="13" textLength="406.472">grant_type=urn:ietf:params:oauth:grant-type:token-exchange</text><text x="723.66" y="504.215" fill="#000" font-size="13" textLength="231.969">subject_token=&lt;UCAN invocation></text><text x="723.66" y="519.348" fill="#000" font-size="13" textLength="329.443">subject_token_type=urn:your-org:token-type:ucan</text><text x="723.66" y="534.481" fill="#000" font-size="13" textLength="397.059">requested_token_type=urn:ietf:params:oauth:token-type:jwt</text><line x1="1147.132" y1="583.813" x2="1189.132" y2="583.813" style="stroke:#181818;stroke-width:1;"/><line x1="1189.132" y1="583.813" x2="1189.132" y2="596.813" style="stroke:#181818;stroke-width:1;"/><line x1="1148.132" y1="596.813" x2="1189.132" y2="596.813" style="stroke:#181818;stroke-width:1;"/><polygon points="1158.132,592.813,1148.132,596.813,1158.132,600.813,1154.132,596.813" fill="#181818" style="stroke:#181818;stroke-width:1;stroke-linejoin:miter;stroke-miterlimit:10;"/><text x="1154.132" y="571.18" fill="#000" font-size="13" font-weight="700">6</text><text x="1167.177" y="563.614" fill="#000" font-size="13" textLength="205.988">validate UCAN delegation chain</text><text x="1167.177" y="578.747" fill="#000" font-size="13" textLength="250.358">(self-verifying, no third-party callback)</text><path d="M687.614,608.813 L752.057,608.813 L752.057,615.945 L742.057,625.945 L687.614,625.945 L687.614,608.813" style="stroke:#000;stroke-width:1.5;" fill="#EEE"/><rect x="687.614" y="608.813" width="1591.572" height="376.93" fill="none" style="stroke:#000;stroke-width:1.5;"/><text x="702.614" y="621.879" fill="#000" font-size="13" textLength="19.443" font-weight="700">alt</text><text x="767.057" y="621.023" fill="#000" font-size="11" textLength="185.931" font-weight="700">[UCAN delegation chain valid]</text><polygon points="714.614,668.211,704.614,672.211,714.614,676.211,710.614,672.211" fill="#181818" style="stroke:#181818;stroke-width:1;stroke-linejoin:miter;stroke-miterlimit:10;"/><line x1="708.614" y1="672.211" x2="1146.132" y2="672.211" style="stroke:#181818;stroke-width:1;stroke-dasharray:2,2;"/><text x="720.614" y="659.579" fill="#000" font-size="13" font-weight="700">7</text><text x="733.66" y="652.012" fill="#000" font-size="13" textLength="179.778">200 { access_token (JWT) }</text><text x="733.66" y="667.145" fill="#000" font-size="13" textLength="384.439">claims: provenance, authority_status, delegation_chain_ref</text><polygon points="1621.13,742.742,1631.13,746.742,1621.13,750.742,1625.13,746.742" fill="#181818" style="stroke:#181818;stroke-width:1;stroke-linejoin:miter;stroke-miterlimit:10;"/><line x1="703.614" y1="746.742" x2="1627.13" y2="746.742" style="stroke:#181818;stroke-width:1;"/><text x="710.614" y="718.977" fill="#000" font-size="13" font-weight="700">8</text><text x="723.66" y="696.278" fill="#000" font-size="13" textLength="136.684">UPDATE StoredEvent</text><text x="723.66" y="711.411" fill="#000" font-size="13" textLength="197.114">AttestedClaims := JWT claims,</text><text x="723.66" y="726.543" fill="#000" font-size="13" textLength="239.713">AuthorityStatus := "pending_review"</text><text x="723.66" y="741.676" fill="#000" font-size="13" textLength="189.078">(NOT "accepted" -- ADR-036)</text><polygon points="1436.466,771.875,1446.466,775.875,1436.466,779.875,1440.466,775.875" fill="#181818" style="stroke:#181818;stroke-width:1;stroke-linejoin:miter;stroke-miterlimit:10;"/><line x1="703.614" y1="775.875" x2="1442.466" y2="775.875" style="stroke:#181818;stroke-width:1;"/><text x="710.614" y="770.809" fill="#000" font-size="13" font-weight="700">9</text><text x="723.66" y="770.809" fill="#000" font-size="13" textLength="222.72">fold into Live View only (ADR-042)</text><polygon points="1855.412,816.141,1865.412,820.141,1855.412,824.141,1859.412,820.141" fill="#181818" style="stroke:#181818;stroke-width:1;stroke-linejoin:miter;stroke-miterlimit:10;"/><line x1="1448.466" y1="820.141" x2="1861.412" y2="820.141" style="stroke:#181818;stroke-width:1;"/><text x="1455.466" y="807.508" fill="#000" font-size="13" textLength="18.091" font-weight="700">10</text><text x="1477.557" y="799.942" fill="#000" font-size="13" textLength="181.689">UPSERT LiveEntityStoreRow</text><text x="1477.557" y="815.075" fill="#000" font-size="13" textLength="372.855">(Data: claimed fields, AuthorityStatus: "pending_review")</text><path d="M1872.412,833.141 L1872.412,888.141 L2257.412,888.141 L2257.412,843.141 L2247.412,833.141 L1872.412,833.141" style="stroke:#181818;stroke-width:0.5;" fill="#FEFFDD"/><path d="M2247.412,833.141 L2247.412,843.141 L2257.412,843.141 L2247.412,833.141" style="stroke:#181818;stroke-width:0.5;" fill="#FEFFDD"/><text x="1878.412" y="850.208" fill="#000" font-size="13" textLength="357.36">Every read of this row is wrapped isAuthoritative: false</text><text x="1878.412" y="865.34" fill="#000" font-size="13" textLength="364.774">(ADR-042). The authoritative Entity Store does not exist</text><text x="1878.412" y="880.473" fill="#000" font-size="13" textLength="197.457">for "applicant-1001" at all yet.</text><line x1="687.614" y1="894.539" x2="2279.186" y2="894.539" style="stroke:#000;stroke-width:1;stroke-dasharray:2,2;"/><text x="692.614" y="906.75" fill="#000" font-size="11" textLength="411.592" font-weight="700">[UCAN delegation chain invalid (malformed, expired, broken link)]</text><polygon points="714.614,929.477,704.614,933.477,714.614,937.477,710.614,933.477" fill="#181818" style="stroke:#181818;stroke-width:1;stroke-linejoin:miter;stroke-miterlimit:10;"/><line x1="708.614" y1="933.477" x2="1146.132" y2="933.477" style="stroke:#181818;stroke-width:1;stroke-dasharray:2,2;"/><text x="720.614" y="928.411" fill="#000" font-size="13" textLength="18.091" font-weight="700">11</text><text x="742.705" y="928.411" fill="#000" font-size="13" textLength="113.331">400 invalid_grant</text><polygon points="1621.13,973.742,1631.13,977.742,1621.13,981.742,1625.13,977.742" fill="#181818" style="stroke:#181818;stroke-width:1;stroke-linejoin:miter;stroke-miterlimit:10;"/><line x1="703.614" y1="977.742" x2="1627.13" y2="977.742" style="stroke:#181818;stroke-width:1;"/><text x="710.614" y="965.11" fill="#000" font-size="13" textLength="18.091" font-weight="700">12</text><text x="732.705" y="957.543" fill="#000" font-size="13" textLength="196.244">leave StoredEvent unchanged</text><text x="732.705" y="972.676" fill="#000" font-size="13" textLength="237.021">(AuthorityStatus stays "unattested")</text><?plantuml-src TLPTR-8u57tFhxYALjeY0Usqepv4GoLcO2HMtLArpEuBKcKI0nwCdNKSQ6RK_xx7Ta89RVj0INplkL_d7iDAgrMvNN0JiTHgG_4mpwL8cRAKIi6LdQkpjPPPGOn6an49lDVA6YsBxbmLN2vxp5fUs89sWj6FRyExJamCvWrEb3DZHIfoXndVbmifYlLOPRaM7dsY5lev-0ZtjMt_e4lB3SnOKQcqIyFHG-_YyYhO6t_OTXZlaFGZIk7z4TzDiXo-qs5frpJJ6wve_9okcLfnMXYHhNYDU7LTPv3b7y9zHni0TYjsdFuHV4zQoQfBfLenopFgzGBKvyi0jOHvb37B5gpWDH3TwfK_vEu93qS61zmwnbXPOIiV-a7l0wR4UsSIHOVsKkycz2sX--dZZCxpqE7pISOzmZV9nFQnN6m5veG2VbFEAgbPbj1lEanxWiVu0DhxT77nAUxIIBZN6Jutl4f-NV-zwVVxCGPFv65vTijNJDwnBHevGXkcow_2s3KUT5fkaS2ioZaWSbOKkJOsfXVl7JZ3CuzIk4niC2mH7e65skcKMQ5LGbyCstjYtT0BlKI-M5TrqyE49dUFuuSP-Lvblj7euR0LWWRKm63ae8CslhlCbkuiBbMJaYylD7-IaU65bZkCLw8wupdUd7qNN6OK_z4_QcBSQV93WeTs9dHvSOaQ2nyELHgUSemIiOYrSqbQgQ1SfIqdlKDi3znzfGxHFJU5S8OajfY5G8gEaOexyuNKwGP7Mf5TSp0xq05kkT4xF9e_iK6SOHqMGkA4pfhbwjCC7cxTdIal703yNZdNIC1RRhWrk9lEuC5ixPO6ff1qL245hfoFfb-96Ux2ophirJNIqNj56IeIAdMpx_GZhZ9oBOYYmO2y1goDLheiNA5QfTmN5rI2a5keg5NneLuQ3A8W6Mtwv2BTK9c7DxGNq8esUUOgHnv2hSXw3U6rXXoXGJYQ1THkfEVUSgvM1lrwSkGUb4ObWjjb0e5X8BstIxn1pxFVk_GQSAXhkVZ9KtYxzuClZhj7Yt5pOl0QfDAbwMcpgW4zjjkhkJBylzBNTUhoDgyZtvzx6w6-Gvax9WLqY_jjeeoxmRgC28aBH3dprm8uA9OLcWP2QWn4cApdfBN2cAHSi7JJYPYqxuE4622FZul0eTDkaIwmI2nDUL648kZihtzd7NgPgxGM4qzQnK2Ee_Lw2ilNFGhrv4Cz6Rv4eFU8yUD-D9oDsxfo8Yl9W10-SDpTYAVIWlEu9Wy2xQ3TCHhaDYHsHUH-ovkh0xTGAnDtXIJ-4tEtcjfNJxquk6_Wv8tWqjmGBdalYc-l4iI7LBFai9XB9sJ56rbCtcJk0dazCcArjgINhnSIuGyTCfLRmCmTOUBkXjuJ_kqDjCF9LD74m01sqFibamNtpeTYWlYmOxjQSiCWADDG9AI1DOHKUEUb--LoSdlXZY4GZIfk-p0w20b7n0z8X-LojAEpBPE0H6yWjy-vCExBmdYsIQ4sdNU8-Hd4hFsV_4v_m2d96GeweXH-G8I5TpykJka3qbP5wqheE4dy7m00?></g></svg>