<svg xmlns="http://www.w3.org/2000/svg" xmlns:xlink="http://www.w3.org/1999/xlink" version="1.1" data-diagram-type="SALT" style="width:843px;height:172px;background:#FFFFFF;" width="843px" height="172px" viewBox="0 0 843 172" zoomAndPan="magnify" preserveAspectRatio="none" contentStyleType="text/css"><?plantuml 1.2026.7?><defs/><g font-family="sans-serif" lengthAdjust="spacing"><text x="10" y="18.139" fill="#000" font-size="12" textLength="375.258">Claim claim-9911 -- secondary opinion  (Adjuster B, read-only)</text><line x1="8" y1="20.969" x2="507" y2="20.969" style="stroke:#000;stroke-width:1;"/><line x1="8" y1="17.969" x2="8" y2="19.969" style="stroke:#000;stroke-width:1;"/><line x1="507" y1="17.969" x2="507" y2="19.969" style="stroke:#000;stroke-width:1;"/><line x1="6" y1="29.469" x2="837" y2="29.469" style="stroke:#AAA;stroke-width:1;stroke-dasharray:1,2;"/><text x="10" y="46.107" fill="#000" font-size="12" textLength="41.291">Access</text><line x1="8" y1="48.938" x2="59" y2="48.938" style="stroke:#000;stroke-width:1;"/><line x1="8" y1="45.938" x2="8" y2="47.938" style="stroke:#000;stroke-width:1;"/><line x1="59" y1="45.938" x2="59" y2="47.938" style="stroke:#000;stroke-width:1;"/><text x="66" y="46.107" fill="#000" font-size="12" textLength="334.465">claims:read, scoped to acme-ubi:Claim:claim-9911 only</text><line x1="64" y1="48.938" x2="491" y2="48.938" style="stroke:#000;stroke-width:1;"/><line x1="64" y1="45.938" x2="64" y2="47.938" style="stroke:#000;stroke-width:1;"/><line x1="491" y1="45.938" x2="491" y2="47.938" style="stroke:#000;stroke-width:1;"/><text x="10" y="66.076" fill="#000" font-size="12" textLength="67.43">Granted by</text><line x1="8" y1="68.906" x2="91" y2="68.906" style="stroke:#000;stroke-width:1;"/><line x1="8" y1="65.906" x2="8" y2="67.906" style="stroke:#000;stroke-width:1;"/><line x1="91" y1="65.906" x2="91" y2="67.906" style="stroke:#000;stroke-width:1;"/><text x="98" y="66.076" fill="#000" font-size="12" textLength="187.248">Adjuster A, expires 2026-08-01</text><line x1="96" y1="68.906" x2="339" y2="68.906" style="stroke:#000;stroke-width:1;"/><line x1="96" y1="65.906" x2="96" y2="67.906" style="stroke:#000;stroke-width:1;"/><line x1="339" y1="65.906" x2="339" y2="67.906" style="stroke:#000;stroke-width:1;"/><line x1="6" y1="77.406" x2="837" y2="77.406" style="stroke:#AAA;stroke-width:1;stroke-dasharray:1,2;"/><text x="10" y="94.045" fill="#000" font-size="12" textLength="110.332">Risk score at filing</text><line x1="8" y1="96.875" x2="171" y2="96.875" style="stroke:#000;stroke-width:1;"/><line x1="8" y1="93.875" x2="8" y2="95.875" style="stroke:#000;stroke-width:1;"/><line x1="171" y1="93.875" x2="171" y2="95.875" style="stroke:#000;stroke-width:1;"/><text x="178" y="94.045" fill="#000" font-size="12" textLength="49.846">72 / 100</text><line x1="176" y1="96.875" x2="243" y2="96.875" style="stroke:#000;stroke-width:1;"/><line x1="176" y1="93.875" x2="176" y2="95.875" style="stroke:#000;stroke-width:1;"/><line x1="243" y1="93.875" x2="243" y2="95.875" style="stroke:#000;stroke-width:1;"/><text x="10" y="114.014" fill="#000" font-size="12" textLength="84.205">Claim amount</text><line x1="8" y1="116.844" x2="107" y2="116.844" style="stroke:#000;stroke-width:1;"/><line x1="8" y1="113.844" x2="8" y2="115.844" style="stroke:#000;stroke-width:1;"/><line x1="107" y1="113.844" x2="107" y2="115.844" style="stroke:#000;stroke-width:1;"/><text x="114" y="114.014" fill="#000" font-size="12" textLength="61.072">$4,200.00</text><line x1="112" y1="116.844" x2="187" y2="116.844" style="stroke:#000;stroke-width:1;"/><line x1="112" y1="113.844" x2="112" y2="115.844" style="stroke:#000;stroke-width:1;"/><line x1="187" y1="113.844" x2="187" y2="115.844" style="stroke:#000;stroke-width:1;"/><text x="10" y="133.982" fill="#000" font-size="12" textLength="38.238">Status</text><line x1="8" y1="136.813" x2="59" y2="136.813" style="stroke:#000;stroke-width:1;"/><line x1="8" y1="133.813" x2="8" y2="135.813" style="stroke:#000;stroke-width:1;"/><line x1="59" y1="133.813" x2="59" y2="135.813" style="stroke:#000;stroke-width:1;"/><text x="66" y="133.982" fill="#000" font-size="12" textLength="81.094">under_review</text><line x1="64" y1="136.813" x2="163" y2="136.813" style="stroke:#000;stroke-width:1;"/><line x1="64" y1="133.813" x2="64" y2="135.813" style="stroke:#000;stroke-width:1;"/><line x1="163" y1="133.813" x2="163" y2="135.813" style="stroke:#000;stroke-width:1;"/><line x1="6" y1="145.313" x2="837" y2="145.313" style="stroke:#AAA;stroke-width:1;stroke-dasharray:1,2;"/><text x="9" y="160.951" fill="#000" font-size="12" textLength="621.404">Attempting to open claim-8800 with this token: rejected -- entityScope does not cover a different claim</text><line x1="7" y1="163.781" x2="834" y2="163.781" style="stroke:#000;stroke-width:1;"/><line x1="7" y1="160.781" x2="7" y2="162.781" style="stroke:#000;stroke-width:1;"/><line x1="834" y1="160.781" x2="834" y2="162.781" style="stroke:#000;stroke-width:1;"/><?plantuml-src RP71Ri8m38RlVGghsc6JQ9TMqu2Uw7ROVJp0518p0crI9IuCCTvzJeiOcfP33idlpzRdHI3fASY6abC2S8BqjP6c1HNlR3ul2iWo2AYSrT8VmNN66cS1xckzxGEXXvS9U9GwSxOvFgHmPaoUZwnQAGmXXNY-8HsWeOhf2GJbEjH03gHgCUjNfXfQLpUj8t8aCkpDIqjSiU8dXbtxrnF0hyvu352AyZaJiqmKOyz_pkruxoRiuXmUGHAiJMFivy2Ubl08XH3fjUGgHhQkj_IBv_JTqwGK8h_4B-abIUh3tp4utLkD_iFZtk3XnbPQ4s7R4OyGdR0RUrd2R2O470njW3OcyESERSNAjwYY3buFMZ9qN4QXe1rxi8v0kJtBaQ3DUesU8oCkJSx90gqULfuKULIMJty0?></g></svg>