<svg xmlns="http://www.w3.org/2000/svg" xmlns:xlink="http://www.w3.org/1999/xlink" version="1.1" data-diagram-type="SEQUENCE" style="width:522px;height:484px;background:#FFFFFF;" width="522px" height="484px" viewBox="0 0 522 484" zoomAndPan="magnify" preserveAspectRatio="none" contentStyleType="text/css"><?plantuml 1.2026.7?><defs/><g font-family="sans-serif" lengthAdjust="spacing"><rect x="115.967" y="252.656" width="381.604" height="149.602" fill="none" style="stroke:#000;stroke-width:1.5;"/><g><title>Client</title><rect x="128.467" y="57.594" width="8" height="368.664" fill="#000" fill-opacity="0"/><line x1="131.967" y1="57.594" x2="131.967" y2="426.258" style="stroke:#181818;stroke-width:0.5;stroke-dasharray:5,5;"/></g><g><title>Server</title><rect x="478.071" y="57.594" width="8" height="368.664" fill="#000" fill-opacity="0"/><line x1="481.571" y1="57.594" x2="481.571" y2="426.258" style="stroke:#181818;stroke-width:0.5;stroke-dasharray:5,5;"/></g><rect x="10" y="10" width="243.934" height="46.594" fill="#E2E2F0" style="stroke:#181818;stroke-width:0.5;" rx="2.5" ry="2.5"/><text x="111.702" y="29.995" fill="#000" font-size="14" textLength="40.53">Client</text><text x="17" y="46.292" fill="#000" font-size="14" textLength="229.934">(video/audio element, scrub bar)</text><rect x="451.616" y="26.297" width="59.91" height="30.297" fill="#E2E2F0" style="stroke:#181818;stroke-width:0.5;" rx="2.5" ry="2.5"/><text x="458.616" y="46.292" fill="#000" font-size="14" textLength="45.91">Server</text><rect x="10" y="426.258" width="243.934" height="46.594" fill="#E2E2F0" style="stroke:#181818;stroke-width:0.5;" rx="2.5" ry="2.5"/><text x="111.702" y="446.253" fill="#000" font-size="14" textLength="40.53">Client</text><text x="17" y="462.55" fill="#000" font-size="14" textLength="229.934">(video/audio element, scrub bar)</text><rect x="451.616" y="426.258" width="59.91" height="30.297" fill="#E2E2F0" style="stroke:#181818;stroke-width:0.5;" rx="2.5" ry="2.5"/><text x="458.616" y="446.253" fill="#000" font-size="14" textLength="45.91">Server</text><polygon points="469.571,97.859,479.571,101.859,469.571,105.859,473.571,101.859" fill="#181818" style="stroke:#181818;stroke-width:1;stroke-linejoin:miter;stroke-miterlimit:10;"/><line x1="131.967" y1="101.859" x2="475.571" y2="101.859" style="stroke:#181818;stroke-width:1;"/><text x="138.967" y="89.227" fill="#000" font-size="13" font-weight="700">1</text><text x="152.012" y="81.661" fill="#000" font-size="13" textLength="91.54">GET /resource</text><text x="152.012" y="96.793" fill="#000" font-size="13" textLength="243.483">(no Range header -- probing support)</text><polygon points="142.967,142.125,132.967,146.125,142.967,150.125,138.967,146.125" fill="#181818" style="stroke:#181818;stroke-width:1;stroke-linejoin:miter;stroke-miterlimit:10;"/><line x1="136.967" y1="146.125" x2="480.571" y2="146.125" style="stroke:#181818;stroke-width:1;stroke-dasharray:2,2;"/><text x="148.967" y="133.493" fill="#000" font-size="13" font-weight="700">2</text><text x="162.012" y="125.926" fill="#000" font-size="13" textLength="47.703">200 OK</text><text x="162.012" y="141.059" fill="#000" font-size="13" textLength="141.813">Accept-Ranges: bytes</text><path d="M136.967,159.125 L136.967,199.125 L347.967,199.125 L347.967,169.125 L337.967,159.125 L136.967,159.125" style="stroke:#181818;stroke-width:0.5;" fill="#FEFFDD"/><path d="M337.967,159.125 L337.967,169.125 L347.967,169.125 L337.967,159.125" style="stroke:#181818;stroke-width:0.5;" fill="#FEFFDD"/><text x="142.967" y="176.192" fill="#000" font-size="13" textLength="190.684">User drags the scrub bar to a</text><text x="142.967" y="191.325" fill="#000" font-size="13" textLength="149.97">later point in playback.</text><polygon points="469.571,236.656,479.571,240.656,469.571,244.656,473.571,240.656" fill="#181818" style="stroke:#181818;stroke-width:1;stroke-linejoin:miter;stroke-miterlimit:10;"/><line x1="131.967" y1="240.656" x2="475.571" y2="240.656" style="stroke:#181818;stroke-width:1;"/><text x="138.967" y="228.024" fill="#000" font-size="13" font-weight="700">3</text><text x="152.012" y="220.458" fill="#000" font-size="13" textLength="91.54">GET /resource</text><text x="152.012" y="235.59" fill="#000" font-size="13" textLength="200.649">Range: bytes=500000-999999</text><path d="M115.967,252.656 L180.41,252.656 L180.41,259.789 L170.41,269.789 L115.967,269.789 L115.967,252.656" style="stroke:#000;stroke-width:1.5;" fill="#EEE"/><rect x="115.967" y="252.656" width="381.604" height="149.602" fill="none" style="stroke:#000;stroke-width:1.5;"/><text x="130.967" y="265.723" fill="#000" font-size="13" textLength="19.443" font-weight="700">alt</text><text x="195.41" y="264.867" fill="#000" font-size="11" textLength="161.074" font-weight="700">[requested range is valid]</text><polygon points="142.967,327.188,132.967,331.188,142.967,335.188,138.967,331.188" fill="#181818" style="stroke:#181818;stroke-width:1;stroke-linejoin:miter;stroke-miterlimit:10;"/><line x1="136.967" y1="331.188" x2="480.571" y2="331.188" style="stroke:#181818;stroke-width:1;stroke-dasharray:2,2;"/><text x="148.967" y="310.989" fill="#000" font-size="13" font-weight="700">4</text><text x="162.012" y="295.856" fill="#000" font-size="13" textLength="126.217">206 Partial Content</text><text x="162.012" y="310.989" fill="#000" font-size="13" textLength="312.559">Content-Range: bytes 500000-999999/2000000</text><text x="162.012" y="326.122" fill="#000" font-size="13" textLength="173.139">[the requested bytes only]</text><line x1="115.967" y1="340.188" x2="497.571" y2="340.188" style="stroke:#000;stroke-width:1;stroke-dasharray:2,2;"/><text x="120.967" y="352.398" fill="#000" font-size="11" textLength="296.178" font-weight="700">[requested range is beyond the resource's end]</text><polygon points="142.967,390.258,132.967,394.258,142.967,398.258,138.967,394.258" fill="#181818" style="stroke:#181818;stroke-width:1;stroke-linejoin:miter;stroke-miterlimit:10;"/><line x1="136.967" y1="394.258" x2="480.571" y2="394.258" style="stroke:#181818;stroke-width:1;stroke-dasharray:2,2;"/><text x="148.967" y="381.625" fill="#000" font-size="13" font-weight="700">5</text><text x="162.012" y="374.059" fill="#000" font-size="13" textLength="169.19">416 Range Not Satisfiable</text><text x="162.012" y="389.192" fill="#000" font-size="13" textLength="215.116">Content-Range: bytes */2000000</text><?plantuml-src XL5BIyD04BxdLtpqeXLZQz621GjIn8EWOlLaFKoIQRgutOsxaqB_lPjDIYrKtDFiFBx73DLYJRtEs2KLEL6vgiW8UZEjsCZ2d6vKmNP0TQ4iMFCwPC_XSrTdoCZrUo2FF3OV0ipPRTZ5iezXahHjIATTPeA7-pSC77jRkvm3cR5u9LCoLam5EwGfAcSpPKhukggiatxIpeRIjEETO3GSulbnOUxod2j98uIV8DiA-yHOOJXLhWHskPCAl0SS58vA3rdntX74Wa9TauI6oggWM1bKchOPvLyN2Pi23UR_TgAEJiRjzR1vwKry2Mc1u--QlN015pqhZmrfLGJoenx7U6aMJ1epQoHUfmlItqmuO1gCuc-uC1-DpJrdsskDtduch3qVavFnrWQtxM3hwiGZBE2unAlBSNU-9okOaoY_L9Hf_aFesKvSizCV?></g></svg>